<?xml version="1.0" encoding="utf-8"?>
<!-- Generator: Adobe Illustrator 27.5.0, SVG Export Plug-In . SVG Version: 6.00 Build 0)  -->
<svg version="1.1" id="Layer_1" xmlns="http://www.w3.org/2000/svg" xmlns:xlink="http://www.w3.org/1999/xlink" x="0px" y="0px"
	 viewBox="0 0 1200 1200" style="enable-background:new 0 0 1200 1200;" xml:space="preserve">
<rect x="0.14" style="fill:#9EDBEF;" width="1200" height="1200.001"/>
<g>
	<g>
		<defs>
			<circle id="SVGID_1_" cx="600.14" cy="558.552" r="421.263"/>
		</defs>
		<clipPath id="SVGID_00000104674382730974272760000014051772155207251857_">
			<use xlink:href="#SVGID_1_"  style="overflow:visible;"/>
		</clipPath>
		<g style="clip-path:url(#SVGID_00000104674382730974272760000014051772155207251857_);">
			<rect x="168.828" y="102.371" style="fill:#FCBC6C;" width="862.87" height="580.099"/>
			<rect x="168.828" y="680.39" style="fill:#88CAE4;" width="862.87" height="329.926"/>
			<g>
				<g>
					<path style="fill:#FFFFFF;" d="M429.31,403.082V593.84c0,10.731,8.35,19.434,18.652,19.434h330.263
						c10.301,0,18.648-8.703,18.648-19.434c0,0-0.003-126.738-0.003-190.759H429.31z"/>
					<g>
						<g>
							<path style="fill-rule:evenodd;clip-rule:evenodd;fill:#CDCBCA;" d="M753.641,421.179h10.816c1.228,0,2.233,1.001,2.233,2.23
								v8.034c0,1.231-1.006,2.237-2.233,2.237h-10.816c-1.226,0-2.23-1.006-2.23-2.237v-8.034
								C751.41,422.18,752.415,421.179,753.641,421.179z"/>
							<path style="fill-rule:evenodd;clip-rule:evenodd;fill:#CDCBCA;" d="M754.141,436.503h9.821c1.494,0,2.729,1.231,2.729,2.731
								v10.888c0,1.499-1.234,2.728-2.729,2.728h-9.821c-1.502,0-2.73-1.229-2.73-2.728v-10.888
								C751.41,437.734,752.639,436.503,754.141,436.503z"/>
							<path style="fill-rule:evenodd;clip-rule:evenodd;fill:#CDCBCA;" d="M732.609,421.179h10.813c1.226,0,2.234,1.001,2.234,2.23
								v8.034c0,1.231-1.009,2.237-2.234,2.237h-10.813c-1.229,0-2.233-1.006-2.233-2.237v-8.034
								C730.376,422.18,731.38,421.179,732.609,421.179z"/>
							<path style="fill-rule:evenodd;clip-rule:evenodd;fill:#CDCBCA;" d="M715.654,436.503h27.083c1.603,0,2.92,1.316,2.92,2.923
								v10.5c0,1.612-1.316,2.923-2.92,2.923h-27.083c-1.608,0-2.924-1.311-2.924-2.923v-10.5
								C712.73,437.819,714.046,436.503,715.654,436.503z"/>
							<path style="fill-rule:evenodd;clip-rule:evenodd;fill:#CDCBCA;" d="M728.083,455.674h14.654c1.603,0,2.92,1.315,2.92,2.922
								v10.505c0,1.606-1.316,2.919-2.92,2.919h-14.654c-1.603,0-2.921-1.313-2.921-2.919v-10.505
								C725.162,456.989,726.48,455.674,728.083,455.674z"/>
							<path style="fill-rule:evenodd;clip-rule:evenodd;fill:#CDCBCA;" d="M766.69,498.043v29.233c0,1.608-1.313,2.922-2.92,2.922
								h-10.505c-1.602,0-2.924-1.314-2.924-2.922v-29.233c0-1.607,1.322-2.918,2.924-2.918h10.505
								C765.377,495.125,766.69,496.435,766.69,498.043z"/>
							<path style="fill-rule:evenodd;clip-rule:evenodd;fill:#CDCBCA;" d="M766.69,460.017v29.232c0,1.607-1.313,2.923-2.92,2.923
								h-10.505c-1.602,0-2.924-1.315-2.924-2.923v-29.232c0-1.607,1.322-2.921,2.924-2.921h10.505
								C765.377,457.095,766.69,458.41,766.69,460.017z"/>
							<path style="fill-rule:evenodd;clip-rule:evenodd;fill:#CDCBCA;" d="M716.54,494.016h9.818c1.503,0,2.733,1.227,2.733,2.729
								v10.884c0,1.503-1.231,2.729-2.733,2.729h-9.818c-1.502,0-2.727-1.226-2.727-2.729v-10.884
								C713.813,495.243,715.038,494.016,716.54,494.016z"/>
							<path style="fill-rule:evenodd;clip-rule:evenodd;fill:#CDCBCA;" d="M745.024,494.016h-38.097
								c-1.5,0-2.729,1.227-2.729,2.729v10.884c0,1.503,1.229,2.729,2.729,2.729h38.097c1.501,0,2.73-1.226,2.73-2.729v-10.884
								C747.754,495.243,746.525,494.016,745.024,494.016z"/>
							<path style="fill-rule:evenodd;clip-rule:evenodd;fill:#CDCBCA;" d="M714.966,421.179h9.354c1.231,0,2.233,1.001,2.233,2.23
								v8.034c0,1.231-1.003,2.237-2.233,2.237h-9.354c-1.225,0-2.235-1.006-2.235-2.237v-8.034
								C712.73,422.18,713.741,421.179,714.966,421.179z"/>
							<path style="fill-rule:evenodd;clip-rule:evenodd;fill:#CDCBCA;" d="M697.036,421.179h9.354c1.225,0,2.235,1.001,2.235,2.23
								v8.034c0,1.231-1.011,2.237-2.235,2.237h-9.354c-1.229,0-2.231-1.006-2.231-2.237v-8.034
								C694.805,422.18,695.808,421.179,697.036,421.179z"/>
							<path style="fill-rule:evenodd;clip-rule:evenodd;fill:#CDCBCA;" d="M679.104,421.179h9.356c1.229,0,2.229,1.001,2.229,2.23
								v8.034c0,1.231-1.001,2.237-2.229,2.237h-9.356c-1.229,0-2.234-1.006-2.234-2.237v-8.034
								C676.87,422.18,677.875,421.179,679.104,421.179z"/>
							<path style="fill-rule:evenodd;clip-rule:evenodd;fill:#CDCBCA;" d="M661.172,421.179h9.357c1.227,0,2.236,1.001,2.236,2.23
								v8.034c0,1.231-1.009,2.237-2.236,2.237h-9.357c-1.227,0-2.234-1.006-2.234-2.237v-8.034
								C658.938,422.18,659.945,421.179,661.172,421.179z"/>
							<path style="fill-rule:evenodd;clip-rule:evenodd;fill:#CDCBCA;" d="M643.243,421.179h9.354c1.229,0,2.231,1.001,2.231,2.23
								v8.034c0,1.231-1.003,2.237-2.231,2.237h-9.354c-1.227,0-2.234-1.006-2.234-2.237v-8.034
								C641.009,422.18,642.017,421.179,643.243,421.179z"/>
							<path style="fill-rule:evenodd;clip-rule:evenodd;fill:#CDCBCA;" d="M625.313,421.179h9.355c1.228,0,2.233,1.001,2.233,2.23
								v8.034c0,1.231-1.005,2.237-2.233,2.237h-9.355c-1.227,0-2.235-1.006-2.235-2.237v-8.034
								C623.078,422.18,624.087,421.179,625.313,421.179z"/>
							<path style="fill-rule:evenodd;clip-rule:evenodd;fill:#CDCBCA;" d="M607.386,421.179h9.354c1.225,0,2.231,1.001,2.231,2.23
								v8.034c0,1.231-1.007,2.237-2.231,2.237h-9.354c-1.23,0-2.24-1.006-2.24-2.237v-8.034
								C605.146,422.18,606.155,421.179,607.386,421.179z"/>
							<path style="fill-rule:evenodd;clip-rule:evenodd;fill:#CDCBCA;" d="M589.45,421.179h9.357c1.229,0,2.235,1.001,2.235,2.23
								v8.034c0,1.231-1.005,2.237-2.235,2.237h-9.357c-1.227,0-2.232-1.006-2.232-2.237v-8.034
								C587.218,422.18,588.224,421.179,589.45,421.179z"/>
							<path style="fill-rule:evenodd;clip-rule:evenodd;fill:#CDCBCA;" d="M571.521,421.179h9.357c1.226,0,2.232,1.001,2.232,2.23
								v8.034c0,1.231-1.006,2.237-2.232,2.237h-9.357c-1.228,0-2.233-1.006-2.233-2.237v-8.034
								C569.288,422.18,570.293,421.179,571.521,421.179z"/>
							<path style="fill-rule:evenodd;clip-rule:evenodd;fill:#CDCBCA;" d="M553.593,421.179h9.35c1.23,0,2.236,1.001,2.236,2.23
								v8.034c0,1.231-1.006,2.237-2.236,2.237h-9.35c-1.232,0-2.235-1.006-2.235-2.237v-8.034
								C551.358,422.18,552.361,421.179,553.593,421.179z"/>
							<path style="fill-rule:evenodd;clip-rule:evenodd;fill:#CDCBCA;" d="M535.658,421.179h9.356c1.23,0,2.234,1.001,2.234,2.23
								v8.034c0,1.231-1.003,2.237-2.234,2.237h-9.356c-1.227,0-2.233-1.006-2.233-2.237v-8.034
								C533.425,422.18,534.431,421.179,535.658,421.179z"/>
							<path style="fill-rule:evenodd;clip-rule:evenodd;fill:#CDCBCA;" d="M517.731,421.179h9.353c1.229,0,2.233,1.001,2.233,2.23
								v8.034c0,1.231-1.004,2.237-2.233,2.237h-9.353c-1.23,0-2.236-1.006-2.236-2.237v-8.034
								C515.496,422.18,516.501,421.179,517.731,421.179z"/>
							<path style="fill-rule:evenodd;clip-rule:evenodd;fill:#CDCBCA;" d="M499.798,421.179h9.355c1.228,0,2.23,1.001,2.23,2.23
								v8.034c0,1.231-1.003,2.237-2.23,2.237h-9.355c-1.229,0-2.235-1.006-2.235-2.237v-8.034
								C497.563,422.18,498.569,421.179,499.798,421.179z"/>
							<path style="fill-rule:evenodd;clip-rule:evenodd;fill:#CDCBCA;" d="M481.868,421.179h9.354c1.229,0,2.235,1.001,2.235,2.23
								v8.034c0,1.231-1.006,2.237-2.235,2.237h-9.354c-1.23,0-2.233-1.006-2.233-2.237v-8.034
								C479.635,422.18,480.638,421.179,481.868,421.179z"/>
							<path style="fill-rule:evenodd;clip-rule:evenodd;fill:#CDCBCA;" d="M461.726,421.179h10.814c1.226,0,2.232,1.001,2.232,2.23
								v8.034c0,1.231-1.006,2.237-2.232,2.237h-10.814c-1.228,0-2.232-1.006-2.232-2.237v-8.034
								C459.494,422.18,460.498,421.179,461.726,421.179z"/>
							<path style="fill-rule:evenodd;clip-rule:evenodd;fill:#CDCBCA;" d="M696.307,436.503h9.637c1.477,0,2.683,1.209,2.683,2.683
								v10.986c0,1.474-1.206,2.677-2.683,2.677h-9.637c-1.473,0-2.681-1.204-2.681-2.677v-10.986
								C693.626,437.712,694.834,436.503,696.307,436.503z"/>
							<path style="fill-rule:evenodd;clip-rule:evenodd;fill:#CDCBCA;" d="M676.852,436.503h9.639c1.474,0,2.676,1.209,2.676,2.683
								v10.986c0,1.474-1.202,2.677-2.676,2.677h-9.639c-1.473,0-2.677-1.204-2.677-2.677v-10.986
								C674.176,437.712,675.38,436.503,676.852,436.503z"/>
							<path style="fill-rule:evenodd;clip-rule:evenodd;fill:#CDCBCA;" d="M657.4,436.503h9.638c1.475,0,2.682,1.209,2.682,2.683
								v10.986c0,1.474-1.207,2.677-2.682,2.677H657.4c-1.473,0-2.683-1.204-2.683-2.677v-10.986
								C654.718,437.712,655.928,436.503,657.4,436.503z"/>
							<path style="fill-rule:evenodd;clip-rule:evenodd;fill:#CDCBCA;" d="M637.943,436.503h9.639c1.476,0,2.679,1.209,2.679,2.683
								v10.986c0,1.474-1.203,2.677-2.679,2.677h-9.639c-1.472,0-2.681-1.204-2.681-2.677v-10.986
								C635.263,437.712,636.472,436.503,637.943,436.503z"/>
							<path style="fill-rule:evenodd;clip-rule:evenodd;fill:#CDCBCA;" d="M618.487,436.503h9.641c1.475,0,2.678,1.209,2.678,2.683
								v10.986c0,1.474-1.203,2.677-2.678,2.677h-9.641c-1.47,0-2.675-1.204-2.675-2.677v-10.986
								C615.813,437.712,617.018,436.503,618.487,436.503z"/>
							<path style="fill-rule:evenodd;clip-rule:evenodd;fill:#CDCBCA;" d="M599.036,436.503h9.638c1.479,0,2.681,1.209,2.681,2.683
								v10.986c0,1.474-1.201,2.677-2.681,2.677h-9.638c-1.471,0-2.679-1.204-2.679-2.677v-10.986
								C596.357,437.712,597.565,436.503,599.036,436.503z"/>
							<path style="fill-rule:evenodd;clip-rule:evenodd;fill:#CDCBCA;" d="M579.582,436.503h9.637c1.476,0,2.679,1.209,2.679,2.683
								v10.986c0,1.474-1.203,2.677-2.679,2.677h-9.637c-1.473,0-2.679-1.204-2.679-2.677v-10.986
								C576.903,437.712,578.109,436.503,579.582,436.503z"/>
							<path style="fill-rule:evenodd;clip-rule:evenodd;fill:#CDCBCA;" d="M560.129,436.503h9.639c1.471,0,2.679,1.209,2.679,2.683
								v10.986c0,1.474-1.208,2.677-2.679,2.677h-9.639c-1.472,0-2.681-1.204-2.681-2.677v-10.986
								C557.448,437.712,558.657,436.503,560.129,436.503z"/>
							<path style="fill-rule:evenodd;clip-rule:evenodd;fill:#CDCBCA;" d="M540.673,436.503h9.639c1.476,0,2.679,1.209,2.679,2.683
								v10.986c0,1.474-1.203,2.677-2.679,2.677h-9.639c-1.468,0-2.679-1.204-2.679-2.677v-10.986
								C537.995,437.712,539.205,436.503,540.673,436.503z"/>
							<path style="fill-rule:evenodd;clip-rule:evenodd;fill:#CDCBCA;" d="M521.22,436.503h9.639c1.475,0,2.678,1.209,2.678,2.683
								v10.986c0,1.474-1.203,2.677-2.678,2.677h-9.639c-1.47,0-2.679-1.204-2.679-2.677v-10.986
								C518.541,437.712,519.75,436.503,521.22,436.503z"/>
							<path style="fill-rule:evenodd;clip-rule:evenodd;fill:#CDCBCA;" d="M501.767,436.503h9.637c1.474,0,2.681,1.209,2.681,2.683
								v10.986c0,1.474-1.207,2.677-2.681,2.677h-9.637c-1.472,0-2.681-1.204-2.681-2.677v-10.986
								C499.086,437.712,500.295,436.503,501.767,436.503z"/>
							<path style="fill-rule:evenodd;clip-rule:evenodd;fill:#CDCBCA;" d="M482.311,436.503h9.642c1.472,0,2.677,1.209,2.677,2.683
								v10.986c0,1.474-1.206,2.677-2.677,2.677h-9.642c-1.47,0-2.676-1.204-2.676-2.677v-10.986
								C479.635,437.712,480.841,436.503,482.311,436.503z"/>
							<path style="fill-rule:evenodd;clip-rule:evenodd;fill:#CDCBCA;" d="M462.221,436.503h9.82c1.502,0,2.731,1.231,2.731,2.731
								v10.888c0,1.499-1.229,2.728-2.731,2.728h-9.82c-1.501,0-2.727-1.229-2.727-2.728v-10.888
								C459.494,437.734,460.72,436.503,462.221,436.503z"/>
							<path style="fill-rule:evenodd;clip-rule:evenodd;fill:#CDCBCA;" d="M462.413,455.674h20.206
								c1.608,0,2.919,1.315,2.919,2.922v10.505c0,1.606-1.311,2.919-2.919,2.919h-20.206c-1.607,0-2.919-1.313-2.919-2.919v-10.505
								C459.494,456.989,460.806,455.674,462.413,455.674z"/>
							<path style="fill-rule:evenodd;clip-rule:evenodd;fill:#CDCBCA;" d="M462.413,474.847h24.025c1.604,0,2.918,1.314,2.918,2.92
								v10.501c0,1.607-1.314,2.92-2.918,2.92h-24.025c-1.607,0-2.919-1.313-2.919-2.92v-10.501
								C459.494,476.161,460.806,474.847,462.413,474.847z"/>
							<path style="fill-rule:evenodd;clip-rule:evenodd;fill:#CDCBCA;" d="M462.413,494.016h34.445
								c1.607,0,2.918,1.311,2.918,2.922v10.502c0,1.607-1.311,2.918-2.918,2.918h-34.445c-1.607,0-2.919-1.311-2.919-2.918v-10.502
								C459.494,495.328,460.806,494.016,462.413,494.016z"/>
							<path style="fill-rule:evenodd;clip-rule:evenodd;fill:#CDCBCA;" d="M490.836,455.674h10.323c1.58,0,2.87,1.294,2.87,2.874
								v10.602c0,1.581-1.29,2.87-2.87,2.87h-10.323c-1.576,0-2.867-1.289-2.867-2.87v-10.602
								C487.969,456.968,489.261,455.674,490.836,455.674z"/>
							<path style="fill-rule:evenodd;clip-rule:evenodd;fill:#CDCBCA;" d="M510.66,455.674h10.321c1.577,0,2.866,1.294,2.866,2.874
								v10.602c0,1.581-1.289,2.87-2.866,2.87H510.66c-1.579,0-2.873-1.289-2.873-2.87v-10.602
								C507.788,456.968,509.081,455.674,510.66,455.674z"/>
							<path style="fill-rule:evenodd;clip-rule:evenodd;fill:#CDCBCA;" d="M530.476,455.674h10.321c1.581,0,2.87,1.294,2.87,2.874
								v10.602c0,1.581-1.289,2.87-2.87,2.87h-10.321c-1.577,0-2.871-1.289-2.871-2.87v-10.602
								C527.605,456.968,528.898,455.674,530.476,455.674z"/>
							<path style="fill-rule:evenodd;clip-rule:evenodd;fill:#CDCBCA;" d="M550.294,455.674h10.322c1.58,0,2.871,1.294,2.871,2.874
								v10.602c0,1.581-1.292,2.87-2.871,2.87h-10.322c-1.577,0-2.866-1.289-2.866-2.87v-10.602
								C547.428,456.968,548.717,455.674,550.294,455.674z"/>
							<path style="fill-rule:evenodd;clip-rule:evenodd;fill:#CDCBCA;" d="M570.113,455.674h10.321
								c1.577,0,2.872,1.294,2.872,2.874v10.602c0,1.581-1.295,2.87-2.872,2.87h-10.321c-1.577,0-2.865-1.289-2.865-2.87v-10.602
								C567.248,456.968,568.536,455.674,570.113,455.674z"/>
							<path style="fill-rule:evenodd;clip-rule:evenodd;fill:#CDCBCA;" d="M589.934,455.674h10.323
								c1.575,0,2.868,1.294,2.868,2.874v10.602c0,1.581-1.293,2.87-2.868,2.87h-10.323c-1.579,0-2.867-1.289-2.867-2.87v-10.602
								C587.066,456.968,588.354,455.674,589.934,455.674z"/>
							<path style="fill-rule:evenodd;clip-rule:evenodd;fill:#CDCBCA;" d="M609.752,455.674h10.323
								c1.577,0,2.872,1.294,2.872,2.874v10.602c0,1.581-1.295,2.87-2.872,2.87h-10.323c-1.579,0-2.869-1.289-2.869-2.87v-10.602
								C606.883,456.968,608.173,455.674,609.752,455.674z"/>
							<path style="fill-rule:evenodd;clip-rule:evenodd;fill:#CDCBCA;" d="M629.572,455.674h10.321
								c1.577,0,2.869,1.294,2.869,2.874v10.602c0,1.581-1.292,2.87-2.869,2.87h-10.321c-1.58,0-2.868-1.289-2.868-2.87v-10.602
								C626.704,456.968,627.992,455.674,629.572,455.674z"/>
							<path style="fill-rule:evenodd;clip-rule:evenodd;fill:#CDCBCA;" d="M649.391,455.674h10.324
								c1.575,0,2.867,1.294,2.867,2.874v10.602c0,1.581-1.292,2.87-2.867,2.87h-10.324c-1.578,0-2.87-1.289-2.87-2.87v-10.602
								C646.521,456.968,647.813,455.674,649.391,455.674z"/>
							<path style="fill-rule:evenodd;clip-rule:evenodd;fill:#CDCBCA;" d="M669.21,455.674h10.321c1.577,0,2.867,1.294,2.867,2.874
								v10.602c0,1.581-1.29,2.87-2.867,2.87H669.21c-1.575,0-2.87-1.289-2.87-2.87v-10.602
								C666.34,456.968,667.635,455.674,669.21,455.674z"/>
							<path style="fill-rule:evenodd;clip-rule:evenodd;fill:#CDCBCA;" d="M689.026,455.674h10.324
								c1.579,0,2.872,1.294,2.872,2.874v10.602c0,1.581-1.293,2.87-2.872,2.87h-10.324c-1.576,0-2.865-1.289-2.865-2.87v-10.602
								C686.161,456.968,687.45,455.674,689.026,455.674z"/>
							<path style="fill-rule:evenodd;clip-rule:evenodd;fill:#CDCBCA;" d="M708.849,455.674h10.321
								c1.579,0,2.871,1.294,2.871,2.874v10.602c0,1.581-1.292,2.87-2.871,2.87h-10.321c-1.579,0-2.869-1.289-2.869-2.87v-10.602
								C705.979,456.968,707.269,455.674,708.849,455.674z"/>
							<path style="fill-rule:evenodd;clip-rule:evenodd;fill:#CDCBCA;" d="M496.351,474.847h10.324
								c1.574,0,2.868,1.289,2.868,2.867v10.606c0,1.579-1.293,2.867-2.868,2.867h-10.324c-1.577,0-2.869-1.288-2.869-2.867v-10.606
								C493.482,476.136,494.774,474.847,496.351,474.847z"/>
							<path style="fill-rule:evenodd;clip-rule:evenodd;fill:#CDCBCA;" d="M516.168,474.847h10.325
								c1.579,0,2.868,1.289,2.868,2.867v10.606c0,1.579-1.288,2.867-2.868,2.867h-10.325c-1.576,0-2.869-1.288-2.869-2.867v-10.606
								C513.299,476.136,514.593,474.847,516.168,474.847z"/>
							<path style="fill-rule:evenodd;clip-rule:evenodd;fill:#CDCBCA;" d="M535.99,474.847h10.322c1.576,0,2.87,1.289,2.87,2.867
								v10.606c0,1.579-1.294,2.867-2.87,2.867H535.99c-1.577,0-2.869-1.288-2.869-2.867v-10.606
								C533.121,476.136,534.413,474.847,535.99,474.847z"/>
							<path style="fill-rule:evenodd;clip-rule:evenodd;fill:#CDCBCA;" d="M555.809,474.847h10.323
								c1.578,0,2.868,1.289,2.868,2.867v10.606c0,1.579-1.29,2.867-2.868,2.867h-10.323c-1.577,0-2.873-1.288-2.873-2.867v-10.606
								C552.936,476.136,554.232,474.847,555.809,474.847z"/>
							<path style="fill-rule:evenodd;clip-rule:evenodd;fill:#CDCBCA;" d="M575.629,474.847h10.321
								c1.577,0,2.869,1.289,2.869,2.867v10.606c0,1.579-1.292,2.867-2.869,2.867h-10.321c-1.579,0-2.87-1.288-2.87-2.867v-10.606
								C572.759,476.136,574.05,474.847,575.629,474.847z"/>
							<path style="fill-rule:evenodd;clip-rule:evenodd;fill:#CDCBCA;" d="M595.447,474.847h10.321
								c1.576,0,2.869,1.289,2.869,2.867v10.606c0,1.579-1.293,2.867-2.869,2.867h-10.321c-1.58,0-2.868-1.288-2.868-2.867v-10.606
								C592.58,476.136,593.867,474.847,595.447,474.847z"/>
							<path style="fill-rule:evenodd;clip-rule:evenodd;fill:#CDCBCA;" d="M615.267,474.847h10.321c1.58,0,2.87,1.289,2.87,2.867
								v10.606c0,1.579-1.29,2.867-2.87,2.867h-10.321c-1.58,0-2.87-1.288-2.87-2.867v-10.606
								C612.396,476.136,613.686,474.847,615.267,474.847z"/>
							<path style="fill-rule:evenodd;clip-rule:evenodd;fill:#CDCBCA;" d="M635.088,474.847h10.319
								c1.579,0,2.871,1.289,2.871,2.867v10.606c0,1.579-1.292,2.867-2.871,2.867h-10.319c-1.58,0-2.871-1.288-2.871-2.867v-10.606
								C632.217,476.136,633.508,474.847,635.088,474.847z"/>
							<path style="fill-rule:evenodd;clip-rule:evenodd;fill:#CDCBCA;" d="M654.903,474.847h10.322c1.58,0,2.869,1.289,2.869,2.867
								v10.606c0,1.579-1.289,2.867-2.869,2.867h-10.322c-1.578,0-2.867-1.288-2.867-2.867v-10.606
								C652.036,476.136,653.325,474.847,654.903,474.847z"/>
							<path style="fill-rule:evenodd;clip-rule:evenodd;fill:#CDCBCA;" d="M674.725,474.847h10.318
								c1.578,0,2.874,1.289,2.874,2.867v10.606c0,1.579-1.296,2.867-2.874,2.867h-10.318c-1.58,0-2.869-1.288-2.869-2.867v-10.606
								C671.855,476.136,673.144,474.847,674.725,474.847z"/>
							<path style="fill-rule:evenodd;clip-rule:evenodd;fill:#CDCBCA;" d="M694.542,474.847h10.319c1.583,0,2.87,1.289,2.87,2.867
								v10.606c0,1.579-1.287,2.867-2.87,2.867h-10.319c-1.578,0-2.871-1.288-2.871-2.867v-10.606
								C691.671,476.136,692.964,474.847,694.542,474.847z"/>
							<path style="fill-rule:evenodd;clip-rule:evenodd;fill:#CDCBCA;" d="M714.458,474.847h10.326
								c1.574,0,2.866,1.289,2.866,2.867v10.606c0,1.579-1.292,2.867-2.866,2.867h-10.326c-1.574,0-2.869-1.288-2.869-2.867v-10.606
								C711.589,476.136,712.884,474.847,714.458,474.847z"/>
							<path style="fill-rule:evenodd;clip-rule:evenodd;fill:#CDCBCA;" d="M734.376,474.847h10.32c1.579,0,2.873,1.289,2.873,2.867
								v10.606c0,1.579-1.294,2.867-2.873,2.867h-10.32c-1.576,0-2.87-1.288-2.87-2.867v-10.606
								C731.506,476.136,732.8,474.847,734.376,474.847z"/>
							<path style="fill-rule:evenodd;clip-rule:evenodd;fill:#CDCBCA;" d="M495.657,494.016h10.321
								c1.577,0,2.869,1.295,2.869,2.866v10.606c0,1.579-1.292,2.871-2.869,2.871h-10.321c-1.577,0-2.87-1.292-2.87-2.871v-10.606
								C492.787,495.311,494.08,494.016,495.657,494.016z"/>
							<path style="fill-rule:evenodd;clip-rule:evenodd;fill:#CDCBCA;" d="M516.836,494.016h10.323
								c1.579,0,2.872,1.295,2.872,2.866v10.606c0,1.579-1.293,2.871-2.872,2.871h-10.323c-1.579,0-2.867-1.292-2.867-2.871v-10.606
								C513.969,495.311,515.257,494.016,516.836,494.016z"/>
							<path style="fill-rule:evenodd;clip-rule:evenodd;fill:#CDCBCA;" d="M538.02,494.016h10.322c1.577,0,2.868,1.295,2.868,2.866
								v10.606c0,1.579-1.292,2.871-2.868,2.871H538.02c-1.577,0-2.87-1.292-2.87-2.871v-10.606
								C535.15,495.311,536.443,494.016,538.02,494.016z"/>
							<path style="fill-rule:evenodd;clip-rule:evenodd;fill:#CDCBCA;" d="M559.202,494.016h10.322
								c1.581,0,2.868,1.295,2.868,2.866v10.606c0,1.579-1.288,2.871-2.868,2.871h-10.322c-1.577,0-2.868-1.292-2.868-2.871v-10.606
								C556.334,495.311,557.625,494.016,559.202,494.016z"/>
							<path style="fill-rule:evenodd;clip-rule:evenodd;fill:#CDCBCA;" d="M580.385,494.016h10.322c1.575,0,2.87,1.295,2.87,2.866
								v10.606c0,1.579-1.295,2.871-2.87,2.871h-10.322c-1.577,0-2.868-1.292-2.868-2.871v-10.606
								C577.517,495.311,578.809,494.016,580.385,494.016z"/>
							<path style="fill-rule:evenodd;clip-rule:evenodd;fill:#CDCBCA;" d="M601.568,494.016h10.323c1.576,0,2.87,1.295,2.87,2.866
								v10.606c0,1.579-1.294,2.871-2.87,2.871h-10.323c-1.579,0-2.869-1.292-2.869-2.871v-10.606
								C598.699,495.311,599.99,494.016,601.568,494.016z"/>
							<path style="fill-rule:evenodd;clip-rule:evenodd;fill:#CDCBCA;" d="M622.749,494.016h10.323
								c1.576,0,2.868,1.295,2.868,2.866v10.606c0,1.579-1.292,2.871-2.868,2.871h-10.323c-1.577,0-2.869-1.292-2.869-2.871v-10.606
								C619.88,495.311,621.172,494.016,622.749,494.016z"/>
							<path style="fill-rule:evenodd;clip-rule:evenodd;fill:#CDCBCA;" d="M643.929,494.016h10.325
								c1.577,0,2.867,1.295,2.867,2.866v10.606c0,1.579-1.29,2.871-2.867,2.871h-10.325c-1.573,0-2.867-1.292-2.867-2.871v-10.606
								C641.061,495.311,642.355,494.016,643.929,494.016z"/>
							<path style="fill-rule:evenodd;clip-rule:evenodd;fill:#CDCBCA;" d="M665.114,494.016h10.321
								c1.578,0,2.869,1.295,2.869,2.866v10.606c0,1.579-1.291,2.871-2.869,2.871h-10.321c-1.581,0-2.868-1.292-2.868-2.871v-10.606
								C662.246,495.311,663.533,494.016,665.114,494.016z"/>
							<path style="fill-rule:evenodd;clip-rule:evenodd;fill:#CDCBCA;" d="M686.298,494.016h10.322
								c1.578,0,2.872,1.295,2.872,2.866v10.606c0,1.579-1.294,2.871-2.872,2.871h-10.322c-1.577,0-2.87-1.292-2.87-2.871v-10.606
								C683.428,495.311,684.721,494.016,686.298,494.016z"/>
							<path style="fill-rule:evenodd;clip-rule:evenodd;fill:#CDCBCA;" d="M462.475,513.853h10.324c1.577,0,2.87,1.294,2.87,2.871
								v10.603c0,1.581-1.293,2.871-2.87,2.871h-10.324c-1.577,0-2.864-1.29-2.864-2.871v-10.603
								C459.61,515.147,460.897,513.853,462.475,513.853z"/>
							<path style="fill-rule:evenodd;clip-rule:evenodd;fill:#CDCBCA;" d="M483.253,513.853h10.323
								c1.576,0,2.868,1.294,2.868,2.871v10.603c0,1.581-1.292,2.871-2.868,2.871h-10.323c-1.576,0-2.872-1.29-2.872-2.871v-10.603
								C480.381,515.147,481.677,513.853,483.253,513.853z"/>
							<path style="fill-rule:evenodd;clip-rule:evenodd;fill:#CDCBCA;" d="M504.032,513.853h10.322
								c1.575,0,2.869,1.294,2.869,2.871v10.603c0,1.581-1.294,2.871-2.869,2.871h-10.322c-1.581,0-2.869-1.29-2.869-2.871v-10.603
								C501.163,515.147,502.452,513.853,504.032,513.853z"/>
							<path style="fill-rule:evenodd;clip-rule:evenodd;fill:#CDCBCA;" d="M524.809,513.853h10.322
								c1.579,0,2.869,1.294,2.869,2.871v10.603c0,1.581-1.29,2.871-2.869,2.871h-10.322c-1.577,0-2.869-1.29-2.869-2.871v-10.603
								C521.94,515.147,523.231,513.853,524.809,513.853z"/>
							<path style="fill-rule:evenodd;clip-rule:evenodd;fill:#CDCBCA;" d="M545.583,513.853h10.324
								c1.579,0,2.867,1.294,2.867,2.871v10.603c0,1.581-1.289,2.871-2.867,2.871h-10.324c-1.574,0-2.868-1.29-2.868-2.871v-10.603
								C542.715,515.147,544.009,513.853,545.583,513.853z"/>
							<path style="fill-rule:evenodd;clip-rule:evenodd;fill:#CDCBCA;" d="M566.364,513.853h10.322
								c1.575,0,2.868,1.294,2.868,2.871v10.603c0,1.581-1.293,2.871-2.868,2.871h-10.322c-1.581,0-2.871-1.29-2.871-2.871v-10.603
								C563.493,515.147,564.783,513.853,566.364,513.853z"/>
							<path style="fill-rule:evenodd;clip-rule:evenodd;fill:#CDCBCA;" d="M587.142,513.853h10.317
								c1.583,0,2.873,1.294,2.873,2.871v10.603c0,1.581-1.291,2.871-2.873,2.871h-10.317c-1.581,0-2.872-1.29-2.872-2.871v-10.603
								C584.271,515.147,585.561,513.853,587.142,513.853z"/>
							<path style="fill-rule:evenodd;clip-rule:evenodd;fill:#CDCBCA;" d="M607.918,513.853h10.32c1.578,0,2.869,1.294,2.869,2.871
								v10.603c0,1.581-1.291,2.871-2.869,2.871h-10.32c-1.58,0-2.87-1.29-2.87-2.871v-10.603
								C605.048,515.147,606.338,513.853,607.918,513.853z"/>
							<path style="fill-rule:evenodd;clip-rule:evenodd;fill:#CDCBCA;" d="M628.693,513.853h10.322
								c1.577,0,2.872,1.294,2.872,2.871v10.603c0,1.581-1.295,2.871-2.872,2.871h-10.322c-1.573,0-2.868-1.29-2.868-2.871v-10.603
								C625.825,515.147,627.12,513.853,628.693,513.853z"/>
							<path style="fill-rule:evenodd;clip-rule:evenodd;fill:#CDCBCA;" d="M649.47,513.853h10.325c1.577,0,2.869,1.294,2.869,2.871
								v10.603c0,1.581-1.292,2.871-2.869,2.871H649.47c-1.575,0-2.87-1.29-2.87-2.871v-10.603
								C646.6,515.147,647.894,513.853,649.47,513.853z"/>
							<path style="fill-rule:evenodd;clip-rule:evenodd;fill:#CDCBCA;" d="M742.651,513.853h-51.375
								c-1.501,0-2.729,1.23-2.729,2.732v10.885c0,1.5,1.229,2.727,2.729,2.727h51.375c1.499,0,2.726-1.227,2.726-2.727v-10.885
								C745.377,515.083,744.15,513.853,742.651,513.853z"/>
							<path style="fill-rule:evenodd;clip-rule:evenodd;fill:#CDCBCA;" d="M670.498,513.853h9.824c1.497,0,2.727,1.23,2.727,2.732
								v10.885c0,1.5-1.229,2.727-2.727,2.727h-9.824c-1.499,0-2.729-1.227-2.729-2.727v-10.885
								C667.769,515.083,668.999,513.853,670.498,513.853z"/>
						</g>
						<g>
							<path style="fill-rule:evenodd;clip-rule:evenodd;fill:#CDCBCA;" d="M561.596,543.278h102.992
								c1.567,0,2.852,1.066,2.852,2.369v41.059c0,1.308-1.285,2.369-2.852,2.369H561.596c-1.571,0-2.854-1.061-2.854-2.369v-41.059
								C558.742,544.345,560.025,543.278,561.596,543.278z"/>
							<path style="fill-rule:evenodd;clip-rule:evenodd;fill:#CDCBCA;" d="M559.333,592.778h51.22c0.33,0,0.594,0.263,0.594,0.588
								v10.292c0,0.318-0.264,0.588-0.594,0.588h-51.22c-0.325,0-0.591-0.27-0.591-0.588v-10.292
								C558.742,593.041,559.008,592.778,559.333,592.778z"/>
							<path style="fill-rule:evenodd;clip-rule:evenodd;fill:#CDCBCA;" d="M615.627,592.778h51.221
								c0.328,0,0.593,0.263,0.593,0.588v10.292c0,0.318-0.265,0.588-0.593,0.588h-51.221c-0.327,0-0.591-0.27-0.591-0.588v-10.292
								C615.036,593.041,615.3,592.778,615.627,592.778z"/>
						</g>
					</g>
				</g>
				<path style="fill:#E5E5E4;" d="M796.873,390.506V209.874c0-10.73-8.351-19.435-18.653-19.435H447.96
					c-10.302,0-18.65,8.705-18.65,19.435c0,0,0.001,116.61,0.003,180.632H796.873z"/>
				<path style="fill:#2E5F65;" d="M796.873,402.078V221.447c0-10.731-8.351-19.436-18.653-19.436H447.96
					c-10.302,0-18.65,8.705-18.65,19.436c0,0,0.001,116.609,0.003,180.631H796.873z"/>
				<rect x="450.814" y="227.221" style="fill:#FFFFFF;" width="324.027" height="157.674"/>
			</g>
			<g>
				<g>
					<path style="fill:#416E8B;" d="M834.017,939.671c0,25.565-20.728,46.289-46.29,46.289H446.342
						c-25.565,0-46.29-20.725-46.29-46.289v-4.34c0-25.565,20.725-46.291,46.29-46.291h341.385c25.563,0,46.29,20.727,46.29,46.291
						V939.671z"/>
					<g>
						<path style="fill:#32536D;" d="M787.727,929.544H446.342c-15.909,0-29.941-8.027-38.272-20.252
							c-5.059,7.42-8.018,16.383-8.018,26.039v4.34c0,25.565,20.725,46.289,46.29,46.289h341.385
							c25.563,0,46.29-20.725,46.29-46.289v-4.34c0-9.656-2.96-18.619-8.018-26.039
							C817.666,921.517,803.637,929.544,787.727,929.544z"/>
					</g>
				</g>
			</g>
			<g>
				<path style="fill-rule:evenodd;clip-rule:evenodd;fill:#E3E4E3;" d="M310.375,559.672
					c-6.067-28.016,11.731-55.662,39.754-61.735c28.022-6.061,55.668,11.73,61.736,39.759c6.073,28.021-11.724,55.664-39.753,61.738
					C344.083,605.499,316.448,587.702,310.375,559.672z"/>
				<path style="fill-rule:evenodd;clip-rule:evenodd;fill:#FFFFFF;" d="M302.492,564.02l-0.47-2.183
					c-0.299-1.393,0.592-2.777,1.992-3.088l23.611-5.115c1.395-0.31,2.79,0.596,3.095,1.998l0.47,2.17
					c0.303,1.399-0.592,2.791-1.994,3.094l-23.611,5.115C304.191,566.319,302.797,565.42,302.492,564.02z"/>
				<path style="fill-rule:evenodd;clip-rule:evenodd;fill:#FFFFFF;" d="M320.826,557.415c-4.827-22.259,9.306-44.209,31.566-49.031
					c22.256-4.822,44.205,9.312,49.025,31.577c4.822,22.254-9.311,44.204-31.57,49.026
					C347.594,593.807,325.643,579.675,320.826,557.415z"/>
				<path style="fill-rule:evenodd;clip-rule:evenodd;fill:#CDCAC8;" d="M324.823,556.541c-4.345-20.045,8.388-39.814,28.433-44.154
					c20.045-4.346,39.819,8.387,44.165,28.438c4.34,20.044-8.392,39.813-28.433,44.16
					C348.938,589.324,329.157,576.599,324.823,556.541z"/>
				<path style="fill-rule:evenodd;clip-rule:evenodd;fill:#886835;" d="M346.856,520.502c15.566-7.878,34.573-1.638,42.444,13.928
					c7.877,15.555,1.644,34.562-13.917,42.439c-15.568,7.877-34.565,1.64-42.45-13.918
					C325.062,547.385,331.295,528.379,346.856,520.502z"/>
				<path style="fill-rule:evenodd;clip-rule:evenodd;fill:#6B5129;" d="M350.815,528.33c11.25-5.685,24.966-1.185,30.664,10.059
					c5.684,11.243,1.184,24.96-10.06,30.651c-11.236,5.686-24.96,1.186-30.652-10.052
					C335.081,547.75,339.582,534.021,350.815,528.33z"/>
				<path style="fill-rule:evenodd;clip-rule:evenodd;fill:#BB9B6D;" d="M372.931,523.214c5.535,2.563,10.274,6.932,13.243,12.793
					c6.996,13.835,1.46,30.718-12.374,37.728c-5.861,2.964-12.267,3.682-18.246,2.468c5.293,0.57,10.795-0.338,15.89-2.919
					c14.05-7.108,19.673-24.263,12.565-38.308C381.429,529.874,377.525,525.894,372.931,523.214z"/>
			</g>
			<g>
				<polygon style="fill-rule:evenodd;clip-rule:evenodd;fill:#008BC0;" points="1001.073,456.747 816.473,456.747 816.473,317.467 
					909.484,317.467 1001.073,317.467 				"/>
				<rect x="821.025" y="440.697" style="fill-rule:evenodd;clip-rule:evenodd;fill:#D3D1C8;" width="175.563" height="11.803"/>
				<g>
					<path style="fill:#F9F9F9;" d="M922.738,312.935c-6.096,1.243-11.186,4.224-14.159,8.162V438.14v2.49l0.361,6.735
						c1.188-1.951,2.708-5.667,8.779-6.735h78.674l0.392-127.767L922.738,312.935z"/>
					<g>
						<path style="fill:#FFFFFF;" d="M894.804,312.935c6.1,1.243,11.189,4.224,14.165,8.162V438.14v2.49v6.657
							c-2.113-2.795-5.292-5.114-9.143-6.657h-78.671l-0.391-127.767L894.804,312.935z"/>
						<path style="fill:#E3E2DF;" d="M895.063,312.994V440.63c0,0,7.68-0.712,13.795,6.823l0.11-126.356
							C906.04,317.214,901.048,314.265,895.063,312.994z"/>
					</g>
				</g>
				<g>
					<g>
						<g>
							<rect x="849.079" y="331.558" style="fill-rule:evenodd;clip-rule:evenodd;fill:#C9C8C8;" width="31.1" height="1.547"/>
							<g>
								<rect x="843.971" y="337.186" style="fill-rule:evenodd;clip-rule:evenodd;fill:#C9C8C8;" width="46.807" height="1.548"/>
								<rect x="838.485" y="339.895" style="fill-rule:evenodd;clip-rule:evenodd;fill:#C9C8C8;" width="52.292" height="1.546"/>
								<rect x="838.485" y="342.609" style="fill-rule:evenodd;clip-rule:evenodd;fill:#C9C8C8;" width="52.292" height="1.544"/>
								<rect x="838.485" y="345.312" style="fill-rule:evenodd;clip-rule:evenodd;fill:#C9C8C8;" width="52.292" height="1.551"/>
								<rect x="838.485" y="348.027" style="fill-rule:evenodd;clip-rule:evenodd;fill:#C9C8C8;" width="52.292" height="1.544"/>
								<rect x="838.485" y="350.735" style="fill-rule:evenodd;clip-rule:evenodd;fill:#C9C8C8;" width="52.292" height="1.547"/>
								<rect x="838.485" y="353.442" style="fill-rule:evenodd;clip-rule:evenodd;fill:#C9C8C8;" width="52.292" height="1.548"/>
								<rect x="838.485" y="356.153" style="fill-rule:evenodd;clip-rule:evenodd;fill:#C9C8C8;" width="52.292" height="1.548"/>
								<rect x="838.485" y="358.864" style="fill-rule:evenodd;clip-rule:evenodd;fill:#C9C8C8;" width="26.144" height="1.547"/>
							</g>
						</g>
						<g>
							<rect x="843.971" y="361.738" style="fill-rule:evenodd;clip-rule:evenodd;fill:#C9C8C8;" width="46.807" height="1.543"/>
							<rect x="838.485" y="364.443" style="fill-rule:evenodd;clip-rule:evenodd;fill:#C9C8C8;" width="52.292" height="1.55"/>
							<rect x="838.485" y="367.157" style="fill-rule:evenodd;clip-rule:evenodd;fill:#C9C8C8;" width="52.292" height="1.547"/>
							<rect x="838.485" y="369.864" style="fill-rule:evenodd;clip-rule:evenodd;fill:#C9C8C8;" width="52.292" height="1.549"/>
							<rect x="838.485" y="372.575" style="fill-rule:evenodd;clip-rule:evenodd;fill:#C9C8C8;" width="52.292" height="1.547"/>
							<rect x="838.485" y="375.287" style="fill-rule:evenodd;clip-rule:evenodd;fill:#C9C8C8;" width="52.292" height="1.548"/>
							<rect x="838.485" y="377.997" style="fill-rule:evenodd;clip-rule:evenodd;fill:#C9C8C8;" width="52.292" height="1.544"/>
							<rect x="838.485" y="380.701" style="fill-rule:evenodd;clip-rule:evenodd;fill:#C9C8C8;" width="52.292" height="1.552"/>
							<rect x="838.485" y="383.417" style="fill-rule:evenodd;clip-rule:evenodd;fill:#C9C8C8;" width="43.257" height="1.547"/>
						</g>
						<g>
							<rect x="843.971" y="386.286" style="fill-rule:evenodd;clip-rule:evenodd;fill:#C9C8C8;" width="46.807" height="1.547"/>
							<rect x="838.485" y="388.993" style="fill-rule:evenodd;clip-rule:evenodd;fill:#C9C8C8;" width="52.292" height="1.552"/>
							<rect x="838.485" y="391.708" style="fill-rule:evenodd;clip-rule:evenodd;fill:#C9C8C8;" width="52.292" height="1.548"/>
							<rect x="838.485" y="394.415" style="fill-rule:evenodd;clip-rule:evenodd;fill:#C9C8C8;" width="52.292" height="1.546"/>
							<rect x="838.485" y="397.123" style="fill-rule:evenodd;clip-rule:evenodd;fill:#C9C8C8;" width="52.292" height="1.551"/>
							<rect x="838.485" y="399.838" style="fill-rule:evenodd;clip-rule:evenodd;fill:#C9C8C8;" width="52.292" height="1.553"/>
							<rect x="838.485" y="405.253" style="fill-rule:evenodd;clip-rule:evenodd;fill:#C9C8C8;" width="52.292" height="1.552"/>
						</g>
						<g>
							<rect x="838.485" y="402.389" style="fill-rule:evenodd;clip-rule:evenodd;fill:#C9C8C8;" width="52.292" height="1.55"/>
							<rect x="838.485" y="405.098" style="fill-rule:evenodd;clip-rule:evenodd;fill:#C9C8C8;" width="52.292" height="1.547"/>
							<rect x="838.485" y="407.81" style="fill-rule:evenodd;clip-rule:evenodd;fill:#C9C8C8;" width="52.292" height="1.547"/>
							<rect x="838.485" y="410.518" style="fill-rule:evenodd;clip-rule:evenodd;fill:#C9C8C8;" width="52.292" height="1.547"/>
							<rect x="838.485" y="413.228" style="fill-rule:evenodd;clip-rule:evenodd;fill:#C9C8C8;" width="52.292" height="1.549"/>
							<rect x="838.485" y="415.935" style="fill-rule:evenodd;clip-rule:evenodd;fill:#C9C8C8;" width="52.292" height="1.548"/>
							<rect x="838.485" y="418.647" style="fill-rule:evenodd;clip-rule:evenodd;fill:#C9C8C8;" width="52.292" height="1.551"/>
						</g>
					</g>
					<g>
						<g>
							<rect x="937.373" y="331.558" style="fill-rule:evenodd;clip-rule:evenodd;fill:#C9C8C8;" width="31.092" height="1.547"/>
							<g>
								<rect x="932.259" y="337.186" style="fill-rule:evenodd;clip-rule:evenodd;fill:#C9C8C8;" width="46.803" height="1.548"/>
								<rect x="926.769" y="339.895" style="fill-rule:evenodd;clip-rule:evenodd;fill:#C9C8C8;" width="52.292" height="1.546"/>
								<rect x="926.769" y="342.609" style="fill-rule:evenodd;clip-rule:evenodd;fill:#C9C8C8;" width="52.292" height="1.544"/>
								<rect x="926.769" y="345.312" style="fill-rule:evenodd;clip-rule:evenodd;fill:#C9C8C8;" width="52.292" height="1.551"/>
								<rect x="926.769" y="348.027" style="fill-rule:evenodd;clip-rule:evenodd;fill:#C9C8C8;" width="52.292" height="1.544"/>
								<rect x="926.769" y="350.735" style="fill-rule:evenodd;clip-rule:evenodd;fill:#C9C8C8;" width="52.292" height="1.547"/>
								<rect x="926.769" y="353.442" style="fill-rule:evenodd;clip-rule:evenodd;fill:#C9C8C8;" width="52.292" height="1.548"/>
								<rect x="926.769" y="356.153" style="fill-rule:evenodd;clip-rule:evenodd;fill:#C9C8C8;" width="52.292" height="1.548"/>
								<rect x="926.769" y="358.864" style="fill-rule:evenodd;clip-rule:evenodd;fill:#C9C8C8;" width="26.145" height="1.547"/>
							</g>
						</g>
						<g>
							<rect x="932.259" y="361.738" style="fill-rule:evenodd;clip-rule:evenodd;fill:#C9C8C8;" width="46.803" height="1.543"/>
							<rect x="926.769" y="364.443" style="fill-rule:evenodd;clip-rule:evenodd;fill:#C9C8C8;" width="52.292" height="1.55"/>
							<rect x="926.769" y="367.157" style="fill-rule:evenodd;clip-rule:evenodd;fill:#C9C8C8;" width="52.292" height="1.547"/>
							<rect x="926.769" y="369.864" style="fill-rule:evenodd;clip-rule:evenodd;fill:#C9C8C8;" width="52.292" height="1.549"/>
							<rect x="926.769" y="372.575" style="fill-rule:evenodd;clip-rule:evenodd;fill:#C9C8C8;" width="52.292" height="1.547"/>
							<rect x="926.769" y="375.287" style="fill-rule:evenodd;clip-rule:evenodd;fill:#C9C8C8;" width="52.292" height="1.548"/>
							<rect x="926.769" y="377.997" style="fill-rule:evenodd;clip-rule:evenodd;fill:#C9C8C8;" width="52.292" height="1.544"/>
							<rect x="926.769" y="380.701" style="fill-rule:evenodd;clip-rule:evenodd;fill:#C9C8C8;" width="52.292" height="1.552"/>
							<rect x="926.769" y="383.417" style="fill-rule:evenodd;clip-rule:evenodd;fill:#C9C8C8;" width="43.259" height="1.547"/>
						</g>
						<g>
							<rect x="932.259" y="386.286" style="fill-rule:evenodd;clip-rule:evenodd;fill:#C9C8C8;" width="46.803" height="1.547"/>
							<rect x="926.769" y="388.993" style="fill-rule:evenodd;clip-rule:evenodd;fill:#C9C8C8;" width="52.292" height="1.552"/>
							<rect x="926.769" y="391.708" style="fill-rule:evenodd;clip-rule:evenodd;fill:#C9C8C8;" width="52.292" height="1.548"/>
							<rect x="926.769" y="394.415" style="fill-rule:evenodd;clip-rule:evenodd;fill:#C9C8C8;" width="52.292" height="1.546"/>
							<rect x="926.769" y="397.123" style="fill-rule:evenodd;clip-rule:evenodd;fill:#C9C8C8;" width="52.292" height="1.551"/>
							<rect x="926.769" y="399.838" style="fill-rule:evenodd;clip-rule:evenodd;fill:#C9C8C8;" width="52.292" height="1.553"/>
							<rect x="926.769" y="405.253" style="fill-rule:evenodd;clip-rule:evenodd;fill:#C9C8C8;" width="52.292" height="1.552"/>
						</g>
						<g>
							<rect x="926.769" y="402.389" style="fill-rule:evenodd;clip-rule:evenodd;fill:#C9C8C8;" width="52.292" height="1.55"/>
							<rect x="926.769" y="405.098" style="fill-rule:evenodd;clip-rule:evenodd;fill:#C9C8C8;" width="52.292" height="1.547"/>
							<rect x="926.769" y="407.81" style="fill-rule:evenodd;clip-rule:evenodd;fill:#C9C8C8;" width="52.292" height="1.547"/>
							<rect x="926.769" y="410.518" style="fill-rule:evenodd;clip-rule:evenodd;fill:#C9C8C8;" width="52.292" height="1.547"/>
							<rect x="926.769" y="413.228" style="fill-rule:evenodd;clip-rule:evenodd;fill:#C9C8C8;" width="52.292" height="1.549"/>
							<rect x="926.769" y="415.935" style="fill-rule:evenodd;clip-rule:evenodd;fill:#C9C8C8;" width="52.292" height="1.548"/>
							<rect x="926.769" y="418.647" style="fill-rule:evenodd;clip-rule:evenodd;fill:#C9C8C8;" width="52.292" height="1.551"/>
						</g>
					</g>
				</g>
				<polygon style="fill:#F4846F;" points="881.032,312.282 881.032,475.71 885.778,470.691 890.742,475.948 890.849,475.948 
					890.849,312.282 				"/>
			</g>
			<g>
				<g>
					
						<rect x="239.129" y="462.334" transform="matrix(0.7683 -0.6401 0.6401 0.7683 -242.9331 261.5989)" style="fill:#FFFFFF;" width="1.458" height="8.017"/>
					<path style="fill:#F9FCFF;" d="M242.767,569.64c1.856,2.225,5.008,2.658,7.033,0.962l41.868-34.959
						c2.024-1.691,2.167-4.867,0.305-7.097l-56.769-67.978c-1.848-2.216-5.01-2.656-7.034-0.966l-41.868,34.963
						c-2.029,1.692-2.161,4.876-0.305,7.096L242.767,569.64z"/>
					<path style="fill:#028BC0;" d="M232.567,464.985c-0.845-1.013-2.281-1.21-3.203-0.441l-38.408,32.074
						c-0.921,0.771-0.982,2.216-0.138,3.228l52.042,62.321c0.846,1.015,2.277,1.21,3.203,0.438l38.408-32.072
						c0.92-0.771,0.982-2.214,0.138-3.228L232.567,464.985z"/>
				</g>
				<path style="fill:#65B7CB;" d="M261.982,555.01c0.456,0.547,1.23,0.652,1.726,0.236l10.827-9.04
					c0.497-0.414,0.53-1.196,0.076-1.743l0,0c-0.457-0.549-1.23-0.654-1.73-0.239l-10.828,9.042
					C261.559,553.681,261.522,554.461,261.982,555.01L261.982,555.01z"/>
			</g>
			<g>
				<path style="fill:#DCE1EC;" d="M287.909,640.851c12.394-2.797,20.17-15.117,17.38-27.496c-0.473-2.088-1.219-4.035-2.185-5.832
					l-40.507,21.787c2.548,4.746,6.657,8.381,11.512,10.379C278.335,641.431,283.112,641.935,287.909,640.851z"/>
				<path style="fill:#CFD4E2;" d="M291.59,597.14c-4.23-1.736-9.006-2.239-13.794-1.16c-12.397,2.791-20.179,15.113-17.385,27.5
					c0.473,2.084,1.22,4.031,2.187,5.83l40.507-21.787C300.552,602.774,296.442,599.14,291.59,597.14z"/>
				<path style="fill:#2E5F65;" d="M209.059,658.11l3.359,6.248c1.023,1.893,3.406,2.611,5.307,1.592l39.204-21.09l-5.213-9.692
					L209.059,658.11z"/>
				<path style="fill:#32536D;" d="M246.501,625.47l-39.214,21.094c-1.891,1.02-2.606,3.398-1.593,5.301l3.365,6.246l42.657-22.942
					L246.501,625.47z"/>
				<path style="fill:#C33A32;" d="M257.124,632.249c-1.219-2.275-2.163-4.762-2.763-7.41c-0.247-1.102-0.427-2.209-0.543-3.309
					l-8.614,4.635l5.225,9.695L257.124,632.249z"/>
				<path style="fill:#DA5C29;" d="M257.124,632.249l-6.696,3.611l5.208,9.689l8.616-4.629
					C261.375,638.554,258.942,635.622,257.124,632.249z"/>
				<path style="fill:#028BC0;" d="M293.942,591.403c-5.36-2.206-11.431-2.848-17.515-1.474
					c-14.63,3.305-24.19,17.046-22.609,31.601c0.116,1.1,0.296,2.207,0.543,3.309c0.601,2.648,1.544,5.135,2.763,7.41l2.777-1.488
					l0.431-0.232l2.265-1.219c-0.967-1.799-1.714-3.746-2.187-5.83c-2.793-12.387,4.988-24.709,17.385-27.5
					c4.789-1.079,9.565-0.576,13.794,1.16c4.852,2,8.961,5.635,11.514,10.383l2.899-1.561l2.563-1.383
					C305.336,598.558,300.111,593.943,293.942,591.403z"/>
				<path style="fill:#05A2D0;" d="M311.334,611.981c-0.598-2.641-1.537-5.125-2.767-7.402l-2.563,1.383l-2.899,1.561
					c0.966,1.797,1.712,3.744,2.185,5.832c2.79,12.379-4.986,24.699-17.38,27.496c-4.797,1.084-9.575,0.58-13.799-1.162
					c-4.855-1.998-8.964-5.633-11.512-10.379l-2.265,1.219l-0.431,0.232l-2.777,1.488c1.818,3.373,4.251,6.305,7.128,8.672
					c2.253,1.865,4.786,3.387,7.495,4.502c5.367,2.213,11.438,2.85,17.535,1.477C305.007,643.351,314.878,627.718,311.334,611.981z"
					/>
			</g>
			<g>
				<g>
					<path style="fill:#264D50;" d="M832.962,601.091c0.035,2.596,1.848,4.688,4.069,4.676c2.214-0.012,4.008-2.119,4.019-4.717
						L832.962,601.091z"/>
				</g>
				
					<rect x="832.743" y="518.923" transform="matrix(1 -0.005 0.005 1 -2.7931 4.2068)" style="fill:#F5BE1A;" width="8.098" height="79.384"/>
				
					<rect x="835.756" y="518.923" transform="matrix(1 -0.005 0.005 1 -2.7867 4.1971)" style="fill:#ED6327;" width="2.075" height="79.384"/>
				
					<rect x="832.944" y="596.168" transform="matrix(1 -0.0049 0.0049 1 -2.9274 4.1142)" style="fill:#FFFFFF;" width="8.098" height="4.973"/>
				<polygon style="fill:#FFFFFF;" points="834.9,507.861 832.524,518.958 840.662,518.917 838.173,507.845 				"/>
				<polygon style="fill:#21464F;" points="838.18,507.903 836.495,500.394 834.896,507.919 				"/>
			</g>
			<g>
				<rect x="503.257" y="236.566" style="fill:#DCE1EC;" width="233.344" height="138.134"/>
				<rect x="503.257" y="236.565" style="fill:#028BC0;" width="233.344" height="22.18"/>
				<g>
					<g>
						<rect x="512.133" y="306.792" style="fill:#008BC0;" width="72.281" height="6.209"/>
						<rect x="512.133" y="318.992" style="fill:#929497;" width="111.79" height="3.105"/>
						<rect x="512.133" y="327.79" style="fill:#929497;" width="24.513" height="3.105"/>
						<rect x="542.301" y="327.79" style="fill:#929497;" width="24.515" height="3.105"/>
						<rect x="573.726" y="327.79" style="fill:#929497;" width="53.427" height="3.105"/>
						<rect x="512.133" y="266.867" style="fill:#008BC0;" width="49.12" height="6.209"/>
						<rect x="512.133" y="287.938" style="fill:#929497;" width="111.79" height="3.105"/>
						<rect x="512.133" y="296.736" style="fill:#929497;" width="28.825" height="3.105"/>
						<rect x="549.888" y="296.736" style="fill:#929497;" width="45.667" height="3.105"/>
						<rect x="601.238" y="296.736" style="fill:#929497;" width="18.966" height="3.105"/>
						<rect x="512.133" y="279.954" style="fill:#929497;" width="111.586" height="3.105"/>
						<rect x="512.133" y="337.845" style="fill:#008BC0;" width="49.654" height="6.21"/>
						<rect x="512.133" y="358.915" style="fill:#929497;" width="28.246" height="3.106"/>
						<rect x="543.595" y="358.915" style="fill:#929497;" width="28.248" height="3.106"/>
						<rect x="577.536" y="358.915" style="fill:#929497;" width="28.247" height="3.106"/>
						<rect x="512.133" y="350.931" style="fill:#929497;" width="49.654" height="3.105"/>
						<rect x="567.441" y="350.931" style="fill:#929497;" width="49.657" height="3.105"/>
					</g>
					<g>
						<rect x="633.545" y="274.606" style="fill:#FFFFFF;" width="94.181" height="79.676"/>
						<g>
							<g>
								<g>
									<path style="fill:#C33A32;" d="M726.061,354.282c-1.737-8.145-5.311-22.783-5.886-23.974
										c-0.575-1.198-26.867-10.811-26.867-10.811c-1.463,1.975-4.432,8.543-4.968,9.094c-0.535,0.549-3.17,2.101-3.17,2.101
										s-0.233-0.085-0.602-0.227l-1.86,23.817H726.061z"/>
								</g>
								<g>
									<path style="fill:#C33A32;" d="M679.28,354.282l-2.743-23.016c-0.375,0.143-0.608,0.225-0.608,0.225
										s-3.041-1.429-3.578-1.978c-0.534-0.552-2.854-9.019-2.734-9.899c0,0-28.115,10.295-28.689,11.493
										c-0.557,1.156-3.921,14.91-5.72,23.176H679.28z"/>
								</g>
								<g>
									<path style="fill:#F7D0A2;" d="M693.252,320.992c-0.563-4.433-0.796-11.265-0.285-16.35
										c0.315-3.09-10.255,3.504-12.242,3.504c-2.244,0-11.668-5.299-11.046-2.104c1.018,5.19,0.107,10.103-0.084,13.642
										c2.038,0.505,3.11,7.601,2.353,8.45c0.576,1.488,1.155,2.79,1.609,3.448c2.365,3.402,4.36,2.159,7.168,2.159
										c2.739,0,5.675-0.811,8.492-4.073C691.019,327.577,693.485,322.847,693.252,320.992z"/>
									<path style="fill:#F7D0A2;" d="M668.255,301.237c0,1.211-0.959,2.194-2.142,2.194l0,0c-1.181,0-1.735-0.415-1.735-5.049
										l-0.73-2.979c0-2.069,1.647,0.496,2.832,0.496h0.648c1.18,0,1.128,0.07,1.128,1.282V301.237z"/>
									<path style="fill:#F7D0A2;" d="M692.179,301.237c0,1.211,0.96,2.194,2.145,2.194l0,0c1.183,0,1.735-0.415,1.735-5.049
										l0.729-2.979c0-2.069-1.648,0.496-2.828,0.496h-0.647c-1.185,0-1.135,0.07-1.135,1.282V301.237z"/>
									<g>
										<path style="fill:#E3AC91;" d="M693.192,319.677c-0.585-4.966-0.736-9.951-0.226-15.035
											c0.315-3.09-10.255,3.504-12.242,3.504c-2.244,0-11.668-5.299-11.046-2.104c0.433,2.197,0.47,4.543,0.372,6.788
											l16.583,23.016c3.107-0.404-0.891,0.089,0.288-1.277C688.723,332.478,693.516,322.415,693.192,319.677z"/>
									</g>
									<path style="fill:#F7D0A2;" d="M693.556,296.977c0-4.483,0.72-10.35-2.587-12.742c-2.088-1.514-7.52-0.498-10.267-0.498
										c-0.012,0-0.087,0-0.198,0v-0.002c-3.195-0.043-8.518-1.01-10.712,0.911c-2.774,2.428-1.94,8.283-1.94,12.331v7.031
										c0,2.04-0.151,4.397,0.646,6.124c1.462,3.156,5.098,6.272,8.329,7.448c1.312,0.479,2.672,1.064,4.127,1.038
										c1.512,0,3.98-0.626,5.326-1.122c3.804-1.67,4.529-3.72,6.789-7.032c0.778-1.709,0.486-4.442,0.486-6.455V296.977z"/>
								</g>
								<path style="fill:none;" d="M682.167,328.183c0.314,0.092,0.586,0.231,0.837,0.397c0.319-0.199,0.643-0.413,0.95-0.622
									L682.167,328.183z"/>
								<path style="fill:none;" d="M678.372,327.998c0.252,0.212,0.503,0.425,0.748,0.625c0.16-0.113,0.328-0.214,0.515-0.296
									C679.256,328.253,678.827,328.143,678.372,327.998z"/>
								<path style="fill:#C33A32;" d="M688.473,354.282l2.125-15.432l6.585-17.435c-0.367,1.311-3.852-2.028-3.852-2.028
									c-0.306,0.209-12.583,9.278-12.901,9.48c0.269,0.185,0.545,12.677,0.785,25.414H688.473z"/>
								<path style="fill:#C33A32;" d="M674.481,354.282h7.215c-0.107-13.249-0.161-25.821,0.098-25.997
									c-0.322-0.199-11.873-8.44-12.178-8.648c0,0,0.147,8.518-0.219,7.208l2.752,12.004L674.481,354.282z"/>
								<path style="fill:#B22E2B;" d="M682.706,354.282v-26.449c0,0-0.491,0.16-1.085,0.16c-0.482,0-1.09-0.16-1.09-0.16v26.449
									H682.706z"/>
								<g>
									<g>
										<path style="fill:#FFFFFF;" d="M681.328,334.543c0.624,0.146,1.24-0.257,1.382-0.893c0.141-0.635-0.251-1.269-0.872-1.413
											c-0.622-0.143-1.238,0.256-1.378,0.892C680.319,333.766,680.71,334.4,681.328,334.543"/>
										<path style="fill:#CDD9D8;" d="M681.344,333.229c0.116,0.025,0.231-0.049,0.259-0.17c0.029-0.12-0.049-0.237-0.166-0.265
											c-0.116-0.029-0.232,0.046-0.259,0.168C681.153,333.081,681.225,333.2,681.344,333.229"/>
										<path style="fill:#CDD9D8;" d="M681.208,333.842c0.116,0.026,0.229-0.049,0.257-0.167c0.028-0.121-0.044-0.24-0.164-0.267
											c-0.116-0.027-0.23,0.048-0.259,0.168C681.016,333.696,681.09,333.816,681.208,333.842"/>
										<path style="fill:#CDD9D8;" d="M681.906,333.357c0.12,0.029,0.235-0.046,0.264-0.166c0.025-0.122-0.05-0.24-0.166-0.268
											c-0.116-0.027-0.233,0.05-0.261,0.169C681.716,333.212,681.79,333.332,681.906,333.357"/>
										<path style="fill:#CDD9D8;" d="M681.774,333.975c0.113,0.025,0.234-0.05,0.257-0.17c0.027-0.121-0.045-0.238-0.161-0.265
											c-0.118-0.028-0.236,0.049-0.261,0.167C681.581,333.827,681.656,333.947,681.774,333.975"/>
									</g>
									<g>
										<path style="fill:#FFFFFF;" d="M681.328,347.158c0.624,0.144,1.24-0.257,1.382-0.892c0.141-0.638-0.251-1.269-0.872-1.412
											c-0.622-0.146-1.238,0.255-1.378,0.893C680.319,346.382,680.71,347.014,681.328,347.158"/>
										<path style="fill:#CDD9D8;" d="M681.344,345.842c0.116,0.028,0.231-0.045,0.259-0.168
											c0.029-0.121-0.049-0.238-0.166-0.266c-0.116-0.026-0.232,0.049-0.259,0.167
											C681.153,345.698,681.225,345.816,681.344,345.842"/>
										<path style="fill:#CDD9D8;" d="M681.208,346.458c0.116,0.026,0.229-0.05,0.257-0.169c0.028-0.119-0.044-0.238-0.164-0.265
											c-0.116-0.028-0.23,0.049-0.259,0.166C681.016,346.311,681.09,346.431,681.208,346.458"/>
										<path style="fill:#CDD9D8;" d="M681.906,345.974c0.12,0.027,0.235-0.051,0.264-0.169c0.025-0.121-0.05-0.238-0.166-0.267
											c-0.116-0.027-0.233,0.049-0.261,0.166C681.716,345.826,681.79,345.946,681.906,345.974"/>
										<path style="fill:#CDD9D8;" d="M681.774,346.589c0.113,0.027,0.234-0.049,0.257-0.168c0.027-0.12-0.045-0.24-0.161-0.267
											c-0.118-0.026-0.236,0.049-0.261,0.169C681.581,346.441,681.656,346.561,681.774,346.589"/>
									</g>
								</g>
								<g>
									<polygon style="fill:#B22E2B;" points="669.623,319.597 676.051,332.021 681.484,328.103 									"/>
									<polygon style="fill:#B22E2B;" points="693.281,319.38 687.028,332.021 681.598,328.103 									"/>
								</g>
							</g>
							<g>
								<path style="fill:#101D23;" d="M666.131,282.275c-0.129,1.01-1.907,3.282-1.057,5.408c0.803,2.008,0.803,6.086,1.405,8.216
									c0.348,1.233,0.943,3.141,1.766,3.908c1.108,0.644-0.055-2.255-0.143-3.459c-0.107-1.538-0.104-3.281,1.048-4.387
									c0.742-0.713,0.94-1.533,0.797-2.504c-0.072-0.502-0.134-1.006-0.192-1.51c-0.261-2.244,0.534-3.601,2.716-4.064
									c1.521-0.321,6.088,1.486,7.648,1.492c3.576,0.015,4.182-1.711,7.758-1.634c0.321,0.007,0.641-0.008,0.96,0.02
									c1.539,0.14,2.51,1.088,2.67,2.671c0.058,0.559,0.097,1.165-0.059,1.687c-0.535,1.813-0.086,3.308,1.106,4.698
									c0.936,1.096,0.865,2.734,0.772,4.195c-0.068,1.028,0.275,1.765,0.175,2.792c0.083,0.036,0.161,0.074,0.241,0.108
									c0.302-0.7,0.708-1.373,0.88-2.105c0.395-1.644,0.651-3.326,1.007-4.981c0.632-2.924,0.864-3.25,0.341-6.246
									c-0.439-2.528-1.06-7.409-3.808-8.214c-3.229-0.298-3.564-2.28-5.252-2.22C668.875,276.784,666.836,276.867,666.131,282.275
									z"/>
							</g>
						</g>
					</g>
				</g>
				<g>
					<path style="fill:#FFFFFF;" d="M617.006,249.552l2.476,0.271c-0.116,1.965-0.518,3.474-1.199,4.524
						c-0.684,1.049-1.522,1.573-2.517,1.573c-1.195,0-2.163-0.72-2.899-2.162c-0.734-1.44-1.106-3.431-1.106-5.967
						c0-2.514,0.35-4.542,1.047-6.087c0.698-1.541,1.672-2.314,2.92-2.314c1.166,0,2.064,0.586,2.691,1.762
						c0.625,1.174,0.978,2.735,1.063,4.675l-2.525,0.248c0-1.073-0.113-1.849-0.341-2.326c-0.227-0.478-0.49-0.717-0.798-0.717
						c-0.853,0-1.279,1.558-1.279,4.676c0,1.746,0.11,2.933,0.334,3.558c0.222,0.628,0.534,0.941,0.932,0.941
						C616.519,252.208,616.921,251.323,617.006,249.552z"/>
					<path style="fill:#FFFFFF;" d="M628.098,239.64l-2.736,16.033h-2.756l-2.862-16.033h2.852l1.396,8.738
						c0.094,0.516,0.178,1.025,0.253,1.525l1.629-10.264H628.098z"/>
				</g>
			</g>
			<path style="fill:#32536D;" d="M518.95,889.298c7.619,42.773,51.364,75.57,104.193,75.57c52.828,0,96.572-32.797,104.191-75.57
				H518.95z"/>
			<path style="fill:#1280A4;" d="M794.95,729.874l7.313,11.129l-22.787,17.627c-4.91-1.961-10.166-3.037-15.634-3.037H463.274
				c-5.468,0-10.722,1.076-15.632,3.037l-22.789-17.627l8.086-12.305h-85.562c-0.428,0-0.834-0.033-1.246-0.06
				c-20.914,52.494,1.581,156.314,117.142,155.697h300.568c114.665,0.611,137.699-101.592,117.62-154.461H794.95z"/>
			<path style="fill:#028BC0;" d="M876.477,694.591c-1.813-3.135-46.958-69.334-46.958-69.334
				c-11.038-16.799-33.603-21.465-50.402-10.426c-16.797,11.039-21.465,33.605-10.425,50.404l33.57,51.092l-22.787,17.625
				c-4.91-1.961-10.166-3.037-15.634-3.037h-28.67h-95.186H463.274c-5.468,0-10.722,1.076-15.632,3.037l-22.789-17.625
				l33.573-51.092c11.038-16.799,6.37-39.365-10.427-50.404c-16.797-11.039-39.365-6.373-50.402,10.426
				c0,0-45.145,66.199-46.958,69.334c-27.914,48.209-10.286,165.723,112.636,165.068h176.712h95.186h28.67
				C886.765,860.313,904.392,742.8,876.477,694.591z"/>
			<path style="fill:#EE9167;" d="M562.227,705.841c-0.156-0.131-0.312-0.262-0.473-0.391c-9.911-7.644-25.819-3.639-35.531,8.955
				c-9.713,12.588-9.552,28.992,0.36,36.637c0.161,0.127,0.33,0.24,0.496,0.359L562.227,705.841z"/>
			<path style="fill:#EE9167;" d="M681.026,895.937c0.119,0.168,0.232,0.338,0.358,0.498c7.673,9.891,24.076,10.014,36.642,0.266
				c12.565-9.742,16.532-25.66,8.861-35.553c-0.123-0.162-0.26-0.315-0.391-0.473L681.026,895.937z"/>
			<g>
				<g>
					<g>
						<path style="fill:#EE9167;" d="M429.722,599.036c12.998,6.85,26.179,13.414,39.307,20.08l10.879-19.002
							c1.052-0.225,13.409-3.109,33.871-21.028c13.561-11.859,41.112-22.884,41.112-22.884c2.53-6.673-6.024-12.854-16.848-10.226
							l-21.732,7.265l16.46-30.008l-19.456-11.776c-3.01-1.823-10.382-7.709-12.018-7.132c-0.511-2.413-10.801-7.19-13.418-5.452
							c-0.742-1.011-1.707-1.881-2.884-2.522c-4.252-2.305-9.574-0.73-11.876,3.52l-22.39,38.767
							c-7.767,11.62-7.574,20.695-7.404,36.224L429.722,599.036z"/>
						<g>
							<path style="fill:#EEAC7B;" d="M552.406,557.24l-3.533-5.597c0,0-7.23,0.614-8.916,3.951
								c-1.693,3.338,1.854,6.458,1.854,6.458L552.406,557.24z"/>
						</g>
					</g>
					<g>
						<path style="fill:#EE9167;" d="M505.681,507.797c4.516,2.9,7.481,4.919,11.988,7.832l23.37-42.607
							c1.777-3.279,0.56-7.384-2.718-9.161c-3.283-1.776-7.384-0.561-9.162,2.717L505.681,507.797z"/>
						<g>
							<path style="fill:#EEAC7B;" d="M537.557,465.002c3.911,2.496,2.832,5.635,0.247,8.877c-2.585,3.231-5.539,1.893-6.44,1.237
								c-2.302-1.687-1.742-4.158-0.718-6.688C531.665,465.886,533.971,462.721,537.557,465.002z"/>
						</g>
					</g>
					<g>
						<path style="fill:#EE9167;" d="M515.94,524.071c4.515,2.897,7.479,4.917,11.987,7.829l23.373-42.606
							c1.776-3.28,0.562-7.382-2.717-9.162c-3.283-1.773-7.385-0.563-9.165,2.719L515.94,524.071z"/>
						<g>
							<path style="fill:#EEAC7B;" d="M547.815,481.274c3.914,2.496,2.834,5.637,0.251,8.878c-2.587,3.228-5.544,1.892-6.443,1.236
								c-2.3-1.689-1.742-4.157-0.717-6.69C541.927,482.157,544.229,478.994,547.815,481.274z"/>
						</g>
					</g>
					<g>
						<path style="fill:#EE9167;" d="M485.605,508.202c4.515,2.902,7.481,4.921,11.985,7.835l23.374-42.608
							c1.774-3.28,0.56-7.385-2.719-9.161c-3.28-1.776-7.386-0.56-9.162,2.719L485.605,508.202z"/>
						<g>
							<path style="fill:#EEAC7B;" d="M517.479,465.409c3.912,2.5,2.836,5.639,0.251,8.88c-2.589,3.231-5.545,1.893-6.444,1.233
								c-2.298-1.685-1.737-4.155-0.716-6.685C511.59,466.295,513.894,463.129,517.479,465.409z"/>
						</g>
					</g>
					<g>
						<path style="fill:#EE9167;" d="M467.211,510.432c4.066,2.612,6.738,4.432,10.801,7.061l21.062-38.398
							c1.6-2.959,0.505-6.658-2.449-8.259c-2.956-1.601-6.657-0.506-8.256,2.451L467.211,510.432z"/>
						<g>
							<path style="fill:#EEAC7B;" d="M495.935,471.866c3.526,2.252,2.554,5.079,0.225,8.003c-2.33,2.91-4.993,1.703-5.806,1.111
								c-2.071-1.519-1.569-3.746-0.647-6.027C490.629,472.662,492.705,469.809,495.935,471.866z"/>
						</g>
					</g>
					
						<rect x="451.286" y="569.144" transform="matrix(0.5179 -0.8555 0.8555 0.5179 -293.7392 679.441)" style="fill:#FFFFFF;" width="9.236" height="62.341"/>
					
						<rect x="426.203" y="586.814" transform="matrix(0.5178 -0.8555 0.8555 0.5178 -314.0064 678.8822)" style="fill:#028BC0;" width="38.009" height="62.34"/>
				</g>
				<path style="fill:#FFFFFF;" d="M431.057,603.856c-1.01,1.674-3.18,2.205-4.847,1.195c-1.669-1.014-2.205-3.184-1.194-4.852
					c1.011-1.668,3.181-2.203,4.85-1.188C431.534,600.021,432.068,602.188,431.057,603.856z"/>
			</g>
			<g>
				<g>
					<g>
						<path style="fill:#EE9167;" d="M796.959,599.476c-12.9,7.031-25.989,13.779-39.021,20.627l-11.146-18.846
							c-1.055-0.211-13.45-2.924-34.162-20.554c-13.725-11.668-41.426-22.308-41.426-22.308c-2.623-6.637,5.846-12.937,16.702-10.46
							l21.832,6.961l-16.878-29.774l19.289-12.048c2.986-1.865,10.273-7.853,11.917-7.299c0.476-2.419,10.7-7.34,13.341-5.638
							c0.729-1.021,1.68-1.904,2.849-2.563c4.22-2.365,9.562-0.864,11.924,3.354l22.931,38.449
							c7.928,11.512,7.864,20.587,7.91,36.117L796.959,599.476z"/>
						<g>
							<path style="fill:#EEAC7B;" d="M673.702,559.399l3.454-5.646c0,0,7.239,0.514,8.972,3.828
								c1.737,3.313-1.766,6.481-1.766,6.481L673.702,559.399z"/>
						</g>
					</g>
					<g>
						<path style="fill:#EE9167;" d="M719.731,509.308c-4.475,2.963-7.411,5.023-11.876,7.998l-23.965-42.276
							c-1.823-3.253-0.664-7.375,2.589-9.198c3.259-1.821,7.376-0.663,9.199,2.589L719.731,509.308z"/>
						<g>
							<path style="fill:#EEAC7B;" d="M687.26,466.963c-3.876,2.551-2.751,5.674-0.122,8.88c2.628,3.194,5.563,1.816,6.456,1.146
								c2.277-1.719,1.683-4.182,0.626-6.697C693.162,467.764,690.813,464.632,687.26,466.963z"/>
						</g>
					</g>
					<g>
						<path style="fill:#EE9167;" d="M709.699,525.722c-4.473,2.96-7.409,5.022-11.875,7.996l-23.966-42.275
							c-1.822-3.255-0.665-7.373,2.587-9.199c3.26-1.819,7.377-0.667,9.202,2.59L709.699,525.722z"/>
						<g>
							<path style="fill:#EEAC7B;" d="M677.23,483.377c-3.877,2.55-2.753,5.675-0.126,8.88c2.633,3.191,5.568,1.815,6.459,1.145
								c2.275-1.72,1.684-4.181,0.624-6.699C683.131,484.177,680.783,481.046,677.23,483.377z"/>
						</g>
					</g>
					<g>
						<path style="fill:#EE9167;" d="M739.81,509.433c-4.474,2.964-7.412,5.025-11.874,8l-23.968-42.277
							c-1.819-3.255-0.663-7.377,2.591-9.198c3.254-1.822,7.379-0.664,9.198,2.591L739.81,509.433z"/>
						<g>
							<path style="fill:#EEAC7B;" d="M707.341,467.089c-3.876,2.555-2.756,5.677-0.126,8.883c2.633,3.194,5.571,1.816,6.462,1.142
								c2.273-1.717,1.679-4.18,0.62-6.693C713.244,467.892,710.894,464.759,707.341,467.089z"/>
						</g>
					</g>
					<g>
						<path style="fill:#EE9167;" d="M758.234,511.404c-4.029,2.67-6.676,4.526-10.701,7.212l-21.598-38.101
							c-1.642-2.936-0.599-6.649,2.334-8.292c2.933-1.642,6.648-0.599,8.287,2.336L758.234,511.404z"/>
						<g>
							<path style="fill:#EEAC7B;" d="M728.974,473.244c-3.496,2.301-2.482,5.115-0.113,8.005c2.37,2.876,5.018,1.633,5.821,1.03
								c2.053-1.547,1.517-3.768,0.565-6.036C734.291,473.965,732.176,471.142,728.974,473.244z"/>
						</g>
					</g>
					
						<rect x="739.625" y="596.502" transform="matrix(0.8481 -0.5298 0.5298 0.8481 -201.4022 499.6201)" style="fill:#FFFFFF;" width="62.343" height="9.235"/>
					
						<rect x="750.569" y="599.634" transform="matrix(0.8482 -0.5297 0.5297 0.8482 -209.0094 507.9665)" style="fill:#028BC0;" width="62.34" height="38.011"/>
				</g>
				<path style="fill:#FFFFFF;" d="M795.69,604.315c1.032,1.658,3.209,2.158,4.863,1.127c1.654-1.037,2.159-3.215,1.128-4.869
					c-1.034-1.654-3.214-2.154-4.866-1.119C795.159,600.487,794.658,602.661,795.69,604.315z"/>
			</g>
			<g>
				<path style="fill:#5D200C;" d="M546.758,709.896c0,0-20.369,33.688-20.723,61.521c1,30.685,16.414,110.049,105.332,113.965
					c82.454,4.34,111.542-75.504,111.542-75.504c16.157-35.742,18.508-98.416-9.22-110.113
					c-29.14-11.115-48.642-24.947-57.567-32.096C601.206,621.761,556.16,689.526,546.758,709.896z"/>
				<g>
					<path style="fill:#42150B;" d="M630.185,879.909c-50.628-2.893-73.773-36.164-73.773-36.164s-26.672-37.357-27.673-68.043
						c-0.25-7.676,9.911-40.441,11.751-47.006c-0.143-0.121-12.076,21.055-12.212,20.93c-6.464,15.986-9.534,42.314-8.94,60.547
						c1.001,30.685,31.447,93.121,100.724,103.008c102.704,7.23,123.98-86.24,128.82-122.594
						C732.567,811.364,694.439,883.29,630.185,879.909z"/>
				</g>
			</g>
			<g>
				<path style="fill:#417C68;" d="M945.11,494.106c0.147-2.031,0.227-4.58,0.227-7.8c0-4.306-3.493-7.798-7.799-7.798
					c-4.307,0-7.799,3.492-7.799,7.798c0,3.198,0.071,5.751,0.206,7.8H945.11z M937.538,481.26c2.783,0,5.046,2.264,5.046,5.046
					c0,2.783-2.263,5.046-5.046,5.046c-2.781,0-5.046-2.263-5.046-5.046C932.492,483.523,934.757,481.26,937.538,481.26z"/>
				<path style="fill:#579F85;" d="M992.894,493.341H882.183c-2.027,0-3.67,1.643-3.67,3.67v144.854c0,2.027,1.643,3.67,3.67,3.67
					h110.711c2.027,0,3.67-1.643,3.67-3.67V497.01C996.563,494.984,994.921,493.341,992.894,493.341z"/>
				<path style="fill:#417C68;" d="M970.449,499.792v-0.47c0-3.636-2.947-6.583-6.583-6.583H911.21
					c-3.636,0-6.582,2.947-6.582,6.583v0.47H970.449z"/>
				<g>
					<polygon style="fill:#FFFFFF;" points="975.111,505.234 882.761,505.234 882.761,638.608 992.076,638.608 992.076,637.276 
						992.076,519.611 					"/>
					<polygon style="fill:#D2DDDB;" points="992.009,519.637 975.314,519.352 992.014,533.838 					"/>
					<polygon style="fill:#E8EAEA;" points="975.092,505.254 992.092,519.592 975.199,519.378 					"/>
				</g>
				<g>
					<g>
						<polygon style="fill:#D06161;" points="930.01,528.708 932.163,533.071 936.976,533.769 933.492,537.165 934.315,541.958 
							930.01,539.695 925.705,541.958 926.527,537.165 923.046,533.769 927.856,533.071 						"/>
						<polygon style="fill:#D06161;" points="950.791,528.708 952.944,533.071 957.758,533.769 954.274,537.165 955.097,541.958 
							950.791,539.695 946.485,541.958 947.308,537.165 943.823,533.769 948.637,533.071 						"/>
						<polygon style="fill:#D06161;" points="971.571,528.708 973.726,533.071 978.539,533.769 975.056,537.165 975.877,541.958 
							971.571,539.695 967.266,541.958 968.088,537.165 964.604,533.769 969.42,533.071 						"/>
					</g>
					<g>
						<polygon style="fill:#D06161;" points="930.01,554.563 932.163,558.926 936.976,559.625 933.492,563.019 934.315,567.813 
							930.01,565.549 925.705,567.813 926.527,563.019 923.046,559.625 927.856,558.926 						"/>
						<polygon style="fill:#D06161;" points="950.791,554.563 952.944,558.926 957.758,559.625 954.274,563.019 955.097,567.813 
							950.791,565.549 946.485,567.813 947.308,563.019 943.823,559.625 948.637,558.926 						"/>
						<polygon style="fill:#D06161;" points="971.571,554.563 973.726,558.926 978.539,559.625 975.056,563.019 975.877,567.813 
							971.571,565.549 967.266,567.813 968.088,563.019 964.604,559.625 969.42,558.926 						"/>
					</g>
					<g>
						<polygon style="fill:#D06161;" points="930.01,580.417 932.163,584.781 936.976,585.479 933.492,588.874 934.315,593.667 
							930.01,591.402 925.705,593.667 926.527,588.874 923.046,585.479 927.856,584.781 						"/>
						<polygon style="fill:#D06161;" points="950.791,580.417 952.944,584.781 957.758,585.479 954.274,588.874 955.097,593.667 
							950.791,591.402 946.485,593.667 947.308,588.874 943.823,585.479 948.637,584.781 						"/>
						<polygon style="fill:#D06161;" points="971.571,580.417 973.726,584.781 978.539,585.479 975.056,588.874 975.877,593.667 
							971.571,591.402 967.266,593.667 968.088,588.874 964.604,585.479 969.42,584.781 						"/>
					</g>
					<g>
						<polygon style="fill:#D06161;" points="930.01,606.273 932.163,610.636 936.976,611.331 933.492,614.727 934.315,619.523 
							930.01,617.259 925.705,619.523 926.527,614.727 923.046,611.331 927.856,610.636 						"/>
						<polygon style="fill:#D06161;" points="950.791,606.273 952.944,610.636 957.758,611.331 954.274,614.727 955.097,619.523 
							950.791,617.259 946.485,619.523 947.308,614.727 943.823,611.331 948.637,610.636 						"/>
						<polygon style="fill:#D06161;" points="971.571,606.273 973.726,610.636 978.539,611.331 975.056,614.727 975.877,619.523 
							971.571,617.259 967.266,619.523 968.088,614.727 964.604,611.331 969.42,610.636 						"/>
					</g>
				</g>
				<g>
					<g>
						<path style="fill:#D06161;" d="M911.256,533.125v13.609h-13.609v-13.609H911.256 M913.335,531.046h-17.767v17.767h17.767
							V531.046L913.335,531.046z"/>
						<polygon style="fill:#0795B6;" points="904.284,548.267 896.896,539.234 899.309,537.259 903.891,542.861 915.723,523.144 
							918.395,524.747 						"/>
					</g>
					<g>
						<path style="fill:#D06161;" d="M911.256,558.63v13.609h-13.609V558.63H911.256 M913.335,556.552h-17.767v17.766h17.767
							V556.552L913.335,556.552z"/>
						<polygon style="fill:#0795B6;" points="904.284,573.02 896.896,563.988 899.309,562.013 903.891,567.615 915.723,547.898 
							918.395,549.502 						"/>
					</g>
					<g>
						<path style="fill:#D06161;" d="M911.256,583.47v13.609h-13.609V583.47H911.256 M913.335,581.392h-17.767v17.765h17.767
							V581.392L913.335,581.392z"/>
						<polygon style="fill:#0795B6;" points="904.284,598.44 896.896,589.405 899.309,587.434 903.891,593.034 915.723,573.316 
							918.395,574.919 						"/>
					</g>
					<g>
						<path style="fill:#D06161;" d="M911.256,609.399v13.607h-13.609v-13.607H911.256 M913.335,607.321h-17.767v17.764h17.767
							V607.321L913.335,607.321z"/>
						<polygon style="fill:#0795B6;" points="904.284,622.771 896.896,613.735 899.309,611.763 903.891,617.362 915.723,597.646 
							918.395,599.249 						"/>
					</g>
				</g>
			</g>
			<g>
				<path style="fill:#ED6834;" d="M322.156,283.305l-73.499,27.999l-6.564,2.499l-2.624,1l-4.594,1.75l53.746,141.089l4.595-1.75
					l2.624-0.999l6.563-2.501l73.501-27.999c6.522-2.484,9.796-9.786,7.311-16.307l-44.746-117.465
					C335.979,284.093,328.677,280.82,322.156,283.305z"/>
				<path style="fill:#FFFFFF;" d="M327.063,278.432l-73.503,28l-6.56,2.499l-2.626,1.001l-4.593,1.749l53.746,141.088l4.593-1.749
					l2.627-1l6.559-2.499l73.504-28c6.521-2.485,9.794-9.787,7.309-16.31l-44.747-117.465
					C340.886,279.221,333.585,275.947,327.063,278.432z"/>
				<path style="fill:#CAC9CA;" d="M325.154,275.401l-73.501,28l-6.559,2.499l-2.625,1l-4.593,1.749l53.746,141.089l4.592-1.749
					l2.626-1l6.56-2.499l73.5-27.999c6.525-2.486,9.799-9.788,7.313-16.312l-44.746-117.465
					C338.982,276.19,331.68,272.915,325.154,275.401z"/>
				<path style="fill:#FFFFFF;" d="M323.279,278.37l-73.499,27.999l-6.562,2.499l-2.624,0.999l-4.596,1.751l53.747,141.092
					l4.594-1.75l2.625-1l6.563-2.5l73.499-27.998c6.523-2.484,9.794-9.79,7.31-16.314L339.59,285.686
					C337.103,279.158,329.802,275.885,323.279,278.37z"/>
				
					<rect x="259.516" y="304.392" transform="matrix(0.9345 -0.356 0.356 0.9345 -117.7472 119.8916)" style="fill:#D65830;" width="14.747" height="150.979"/>
				<path style="fill:#ED6833;" d="M320.407,278.714l-73.5,27.998l53.746,141.089l73.499-27.999
					c6.523-2.483,9.795-9.789,7.311-16.31l-44.747-117.464C334.231,279.503,326.929,276.229,320.407,278.714z"/>
				
					<rect x="264.501" y="304.767" transform="matrix(0.9345 -0.356 0.356 0.9345 -117.946 119.5671)" style="fill:#ED6834;" width="2.807" height="150.98"/>
				
					<rect x="278.366" y="320.835" transform="matrix(0.9285 -0.3712 0.3712 0.9285 -100.3813 135.1714)" style="fill:#224751;" width="45.095" height="14.978"/>
				
					<rect x="334.518" y="275.874" transform="matrix(0.9345 -0.356 0.356 0.9345 -104.0358 143.6804)" style="fill:#66B5C9;" width="7.735" height="157.297"/>
			</g>
			<g>
				<path style="fill:#ED6834;" d="M365.372,326.508l-58.464-22.898l-5.22-2.046l-2.086-0.816l-3.654-1.432L251.99,411.54
					l3.655,1.432l2.087,0.816l5.22,2.045l58.462,22.9c5.188,2.032,11.04-0.527,13.072-5.713l36.598-93.434
					C373.118,334.394,370.558,328.541,365.372,326.508z"/>
				<path style="fill:#FFFFFF;" d="M370.888,326.263l-58.466-22.9l-5.217-2.044l-2.09-0.819l-3.652-1.43l-43.958,112.224l3.653,1.43
					l2.09,0.819l5.218,2.044l58.465,22.9c5.188,2.032,11.04-0.526,13.072-5.716l36.598-93.434
					C378.633,334.147,376.074,328.294,370.888,326.263z"/>
				<path style="fill:#CAC9CA;" d="M371.384,323.447l-58.462-22.899l-5.217-2.044l-2.089-0.818l-3.653-1.431l-43.958,112.224
					l3.652,1.43l2.09,0.819l5.217,2.044l58.464,22.9c5.191,2.032,11.043-0.526,13.077-5.716l36.596-93.432
					C379.133,331.333,376.575,325.48,371.384,323.447z"/>
				<path style="fill:#FFFFFF;" d="M368.685,324.195l-58.463-22.899l-5.22-2.044l-2.087-0.818l-3.654-1.432l-43.959,112.226
					l3.656,1.433l2.087,0.817l5.221,2.044l58.463,22.9c5.187,2.032,11.042-0.529,13.074-5.719l36.596-93.431
					C376.431,332.081,373.873,326.227,368.685,324.195z"/>
				
					<rect x="220.616" y="348.037" transform="matrix(0.3647 -0.9311 0.9311 0.3647 -151.1045 486.3781)" style="fill:#E9C01E;" width="120.526" height="11.772"/>
				<path style="fill:#F5CD2D;" d="M366.801,322.857l-58.462-22.899l-43.958,112.224l58.464,22.899
					c5.188,2.031,11.042-0.529,13.074-5.716l36.595-93.433C374.547,330.742,371.989,324.889,366.801,322.857z"/>
				
					<rect x="219.833" y="352.495" transform="matrix(0.3647 -0.9311 0.9311 0.3647 -151.3173 485.4507)" style="fill:#F5CD2D;" width="120.526" height="2.242"/>
				
					<rect x="322.679" y="323.715" transform="matrix(0.3494 -0.937 0.937 0.3494 -106.3592 530.2476)" style="fill:#FFFFFF;" width="11.957" height="35.999"/>
			</g>
		</g>
	</g>
	<g>
		<path style="fill:#FFFFFF;" d="M465.673,1033.946h3.653v18.939c0,7.518-3.694,9.826-8.565,9.826c-1.344,0-2.981-0.295-3.907-0.672
			l0.548-2.98c0.755,0.293,1.846,0.543,3.065,0.543c3.274,0,5.206-1.469,5.206-7.012V1033.946z"/>
		<path style="fill:#FFFFFF;" d="M493.689,1051.921c0,7.516-5.206,10.791-10.119,10.791c-5.501,0-9.743-4.031-9.743-10.457
			c0-6.799,4.452-10.789,10.079-10.789C489.744,1041.466,493.689,1045.704,493.689,1051.921z M477.564,1052.13
			c0,4.451,2.563,7.813,6.174,7.813c3.526,0,6.172-3.32,6.172-7.896c0-3.441-1.721-7.811-6.089-7.811
			C479.456,1044.235,477.564,1048.267,477.564,1052.13z"/>
		<path style="fill:#FFFFFF;" d="M498.195,1062.249c0.085-1.383,0.168-3.443,0.168-5.248v-24.564h3.653v12.768h0.083
			c1.303-2.27,3.653-3.738,6.929-3.738c5.038,0,8.608,4.197,8.567,10.369c0,7.266-4.58,10.877-9.113,10.877
			c-2.94,0-5.291-1.133-6.803-3.82h-0.125l-0.168,3.357H498.195z M502.017,1054.103c0,0.465,0.083,0.926,0.167,1.344
			c0.715,2.564,2.856,4.324,5.544,4.324c3.862,0,6.171-3.148,6.171-7.807c0-4.074-2.099-7.563-6.046-7.563
			c-2.519,0-4.871,1.725-5.626,4.539c-0.084,0.42-0.21,0.922-0.21,1.51V1054.103z"/>
		<path style="fill:#FFFFFF;" d="M531.302,1034.327c1.849-0.381,4.493-0.588,7.012-0.588c3.905,0,6.425,0.713,8.187,2.307
			c1.43,1.262,2.226,3.195,2.226,5.375c0,3.74-2.35,6.217-5.332,7.225v0.127c2.183,0.754,3.483,2.77,4.156,5.709
			c0.924,3.945,1.597,6.678,2.184,7.768h-3.78c-0.462-0.795-1.092-3.234-1.889-6.758c-0.84-3.906-2.351-5.375-5.669-5.502h-3.442
			v12.26h-3.653V1034.327z M534.955,1047.216h3.736c3.906,0,6.382-2.141,6.382-5.373c0-3.654-2.644-5.25-6.507-5.289
			c-1.764,0-3.024,0.166-3.61,0.334V1047.216z"/>
		<path style="fill:#FFFFFF;" d="M556.004,1052.759c0.083,4.998,3.273,7.057,6.971,7.057c2.645,0,4.24-0.463,5.625-1.049
			l0.633,2.643c-1.304,0.588-3.529,1.262-6.763,1.262c-6.257,0-9.994-4.117-9.994-10.246c0-6.131,3.611-10.959,9.532-10.959
			c6.636,0,8.399,5.836,8.399,9.572c0,0.756-0.085,1.344-0.127,1.721H556.004z M566.838,1050.116
			c0.04-2.354-0.967-6.008-5.123-6.008c-3.739,0-5.375,3.447-5.67,6.008H566.838z"/>
		<path style="fill:#FFFFFF;" d="M589.482,1061.495c-0.964,0.502-3.108,1.176-5.836,1.176c-6.129,0-10.12-4.158-10.12-10.375
			c0-6.256,4.283-10.789,10.919-10.789c2.184,0,4.115,0.547,5.122,1.049l-0.839,2.854c-0.882-0.5-2.267-0.963-4.283-0.963
			c-4.662,0-7.181,3.443-7.181,7.684c0,4.705,3.024,7.602,7.056,7.602c2.098,0,3.486-0.547,4.535-1.01L589.482,1061.495z"/>
		<path style="fill:#FFFFFF;" d="M593.818,1048.267c0-2.395-0.041-4.449-0.168-6.34h3.233l0.127,3.99h0.167
			c0.923-2.732,3.149-4.451,5.626-4.451c0.421,0,0.714,0.041,1.049,0.127v3.482c-0.378-0.086-0.755-0.125-1.258-0.125
			c-2.603,0-4.451,1.973-4.955,4.744c-0.084,0.504-0.167,1.092-0.167,1.721v10.834h-3.654V1048.267z"/>
		<path style="fill:#FFFFFF;" d="M624.563,1056.708c0,2.098,0.041,3.945,0.169,5.541h-3.277l-0.209-3.314h-0.084
			c-0.966,1.637-3.106,3.777-6.719,3.777c-3.19,0-7.012-1.766-7.012-8.904v-11.881h3.694v11.252c0,3.865,1.178,6.469,4.537,6.469
			c2.477,0,4.197-1.723,4.869-3.359c0.211-0.549,0.336-1.219,0.336-1.893v-12.469h3.695V1056.708z"/>
		<path style="fill:#FFFFFF;" d="M634.82,1036.218c0.044,1.258-0.881,2.266-2.35,2.266c-1.303,0-2.227-1.008-2.227-2.266
			c0-1.303,0.966-2.313,2.31-2.313C633.94,1033.905,634.82,1034.915,634.82,1036.218z M630.706,1062.249v-20.322h3.696v20.322
			H630.706z"/>
		<path style="fill:#FFFFFF;" d="M644.988,1036.091v5.836h5.293v2.814h-5.293v10.959c0,2.52,0.714,3.947,2.772,3.947
			c0.967,0,1.678-0.125,2.141-0.252l0.17,2.77c-0.716,0.293-1.85,0.506-3.276,0.506c-1.722,0-3.108-0.547-3.99-1.557
			c-1.05-1.09-1.428-2.895-1.428-5.289v-11.084h-3.15v-2.814h3.15v-4.873L644.988,1036.091z"/>
		<path style="fill:#FFFFFF;" d="M654.443,1047.429c0-2.1-0.041-3.822-0.169-5.502h3.233l0.168,3.277h0.125
			c1.135-1.934,3.024-3.738,6.386-3.738c2.77,0,4.87,1.678,5.752,4.07h0.084c0.629-1.135,1.428-2.012,2.268-2.645
			c1.215-0.924,2.559-1.426,4.492-1.426c2.688,0,6.678,1.764,6.678,8.818v11.965h-3.613v-11.504c0-3.906-1.427-6.258-4.408-6.258
			c-2.1,0-3.738,1.553-4.368,3.361c-0.167,0.504-0.292,1.174-0.292,1.846v12.555h-3.613v-12.178c0-3.232-1.427-5.584-4.238-5.584
			c-2.311,0-3.991,1.846-4.58,3.695c-0.208,0.545-0.293,1.178-0.293,1.807v12.26h-3.61V1047.429z"/>
		<path style="fill:#FFFFFF;" d="M691.541,1052.759c0.084,4.998,3.273,7.057,6.972,7.057c2.644,0,4.24-0.463,5.624-1.049
			l0.632,2.643c-1.302,0.588-3.526,1.262-6.762,1.262c-6.257,0-9.994-4.117-9.994-10.246c0-6.131,3.612-10.959,9.533-10.959
			c6.635,0,8.399,5.836,8.399,9.572c0,0.756-0.085,1.344-0.126,1.721H691.541z M702.376,1050.116
			c0.04-2.354-0.967-6.008-5.123-6.008c-3.738,0-5.376,3.447-5.67,6.008H702.376z"/>
		<path style="fill:#FFFFFF;" d="M710.53,1047.429c0-2.1-0.041-3.822-0.166-5.502h3.275l0.211,3.357h0.083
			c1.008-1.932,3.36-3.818,6.719-3.818c2.812,0,7.18,1.678,7.18,8.65v12.133h-3.696v-11.713c0-3.275-1.216-6.008-4.703-6.008
			c-2.434,0-4.324,1.725-4.954,3.781c-0.167,0.463-0.251,1.092-0.251,1.721v12.219h-3.697V1047.429z"/>
		<path style="fill:#FFFFFF;" d="M738.133,1036.091v5.836h5.291v2.814h-5.291v10.959c0,2.52,0.713,3.947,2.772,3.947
			c0.966,0,1.678-0.125,2.142-0.252l0.168,2.77c-0.715,0.293-1.848,0.506-3.276,0.506c-1.721,0-3.107-0.547-3.99-1.557
			c-1.05-1.09-1.427-2.895-1.427-5.289v-11.084h-3.148v-2.814h3.148v-4.873L738.133,1036.091z"/>
	</g>
</g>
</svg>
