<?xml version="1.0" encoding="utf-8"?>
<!-- Generator: Adobe Illustrator 27.5.0, SVG Export Plug-In . SVG Version: 6.00 Build 0)  -->
<svg version="1.1" id="Layer_1" xmlns="http://www.w3.org/2000/svg" xmlns:xlink="http://www.w3.org/1999/xlink" x="0px" y="0px"
	 viewBox="0 0 900 900" style="enable-background:new 0 0 900 900;display:none;" xml:space="preserve">
<g style="display:inline;">
	
		<line style="fill:none;stroke:#433A47;stroke-width:11;stroke-linecap:round;stroke-linejoin:round;stroke-miterlimit:10;" x1="784.797" y1="293.452" x2="828.714" y2="555.154"/>
	<path style="fill:#A6A0B3;" d="M58.387,636.484h613.495c11.605,0,21.013,9.408,21.013,21.013v112.715
		c0,11.605-9.408,21.013-21.013,21.013H58.387c-11.605,0-21.013-9.408-21.013-21.013l0-112.715
		C37.374,645.891,46.782,636.484,58.387,636.484z"/>
	<g>
		<path style="fill:#A6A0B3;" d="M73.467,606.379v104.042c0,3.473,2.841,6.314,6.314,6.314h34.706c1.31,0,2.39-1.08,2.39-2.4
			v-111.87c0-1.32-1.08-2.4-2.39-2.4H79.781C76.308,600.065,73.467,602.906,73.467,606.379z"/>
		<path style="fill:#433A47;" d="M85.53,564.739c-1.318,0-2.396,1.078-2.396,2.396v133.974c0,1.318,1.078,2.396,2.396,2.396h38.624
			c1.318,0,2.396-1.078,2.396-2.396V567.135c0-1.318-1.078-2.396-2.396-2.396H85.53z"/>
		<path style="fill:#574D5E;" d="M83.133,567.132v111.87c0,1.32,1.08,2.4,2.4,2.4h38.62c1.31,0,2.39-1.08,2.39-2.4v-111.87
			c0-1.32-1.08-2.4-2.39-2.4h-38.62C84.213,564.732,83.133,565.812,83.133,567.132z"/>
		<path style="fill:#7D7087;" d="M87.533,564.652h36.62c1.31,0,2.39,1.08,2.39,2.4v59.747c0-1.32-1.08-2.4-2.39-2.4h-36.62
			c-1.32,0-2.4,1.08-2.4,2.4v-59.747C85.133,565.732,86.213,564.652,87.533,564.652z"/>
		<g>
			<path style="fill:#433A47;" d="M90.718,634.319c0,0.827,0.18,1.629,0.515,2.396c1.653,3.774,7.116,6.541,13.609,6.541
				c6.493,0,11.956-2.767,13.609-6.541c0.336-0.767,0.515-1.569,0.515-2.396c0-4.936-6.325-8.937-14.124-8.937
				C97.043,625.382,90.718,629.383,90.718,634.319z"/>
			<path style="fill:#574D5E;" d="M91.233,636.715c1.653,3.774,7.116,6.541,13.609,6.541c6.493,0,11.956-2.767,13.609-6.541
				c-1.653-3.774-7.116-6.541-13.609-6.541C98.349,630.174,92.886,632.941,91.233,636.715z"/>
		</g>
		<g>
			<path style="fill:#433A47;" d="M90.718,607.256c0,0.827,0.18,1.629,0.515,2.396c1.653,3.774,7.116,6.541,13.609,6.541
				c6.493,0,11.956-2.768,13.609-6.541c0.336-0.767,0.515-1.569,0.515-2.396c0-4.936-6.325-8.937-14.124-8.937
				C97.043,598.32,90.718,602.321,90.718,607.256z"/>
			<path style="fill:#7D7087;" d="M91.233,609.652c0.407,0.946,1.054,1.821,1.893,2.599l0.012,0.012
				c2.54,2.372,6.829,3.929,11.704,3.929c4.876,0,9.164-1.557,11.704-3.929l0.012-0.012c0.839-0.778,1.486-1.653,1.893-2.599
				c-0.371-0.862-0.947-1.665-1.689-2.396c-1.282-1.282-3.079-2.348-5.2-3.067c-1.988-0.683-4.289-1.078-6.721-1.078
				s-4.732,0.396-6.721,1.078c-2.12,0.719-3.917,1.785-5.199,3.067C92.179,607.987,91.604,608.79,91.233,609.652z"/>
			<path style="fill:#A6A0B3;" d="M86.828,608.485c0,0.747,0.16,1.472,0.469,2.154c1.482,3.402,6.409,5.897,12.254,5.897
				c0.373,0,0.736-0.01,1.099-0.032c5.354-0.288,9.758-2.677,11.155-5.866c0.299-0.683,0.459-1.408,0.459-2.154
				c0-4.213-5.108-7.657-11.614-8.009c-0.363-0.021-0.725-0.032-1.099-0.032C92.523,600.444,86.828,604.038,86.828,608.485z"/>
		</g>
		<g>
			<path style="fill:#433A47;" d="M90.718,580.194c0,0.826,0.18,1.629,0.515,2.396c1.653,3.773,7.116,6.541,13.609,6.541
				c6.493,0,11.956-2.767,13.609-6.541c0.336-0.767,0.515-1.57,0.515-2.396c0-4.936-6.325-8.937-14.124-8.937
				C97.043,571.257,90.718,575.258,90.718,580.194z"/>
			<path style="fill:#7D7087;" d="M91.233,582.59c0.515,1.162,1.378,2.228,2.528,3.139c2.588,2.072,6.589,3.402,11.082,3.402
				s8.494-1.33,11.081-3.402c1.15-0.911,2.013-1.977,2.528-3.139c-0.371-0.851-0.947-1.653-1.689-2.384
				c-1.917-1.929-4.984-3.354-8.59-3.905c-1.066-0.168-2.18-0.252-3.33-0.252c-1.15,0-2.264,0.084-3.33,0.252
				c-3.606,0.551-6.673,1.977-8.59,3.905C92.179,580.937,91.604,581.739,91.233,582.59z"/>
		</g>
		<path style="fill:#4B4051;" d="M92.924,604.192v6.66c0,0.48,0.07,0.94,0.2,1.4l0.01,0.01c1.95,1.82,4.95,3.17,8.45,3.69
			c0.38,0.06,0.77,0.11,1.17,0.14c0.63,0.06,1.29,0.1,1.95,0.1h0.14c0.71,0,1.41-0.03,2.09-0.1c0.39-0.03,0.78-0.08,1.17-0.14
			c3.49-0.52,6.49-1.87,8.44-3.69l0.01-0.01c0.14-0.46,0.21-0.92,0.21-1.4v-6.66H92.924z"/>
		<path style="fill:#4B4051;" d="M92.924,604.192v6.66c0,0.48,0.07,0.94,0.2,1.4l0.01,0.01c1.95,1.82,4.95,3.17,8.45,3.69
			c0.33,0.09,0.69,0.14,1.05,0.14h0.12c0.63,0.06,1.29,0.1,1.95,0.1v-12.39h-2.07c-0.62,0-1.22,0.14-1.75,0.39H92.924z"/>
		<path style="fill:#4B4051;" d="M92.922,576.3v6.661c0,0.694,0.143,1.378,0.431,2.025c0.108,0.251,0.239,0.503,0.407,0.743
			c2.588,2.072,6.589,3.402,11.082,3.402s8.494-1.33,11.081-3.402c0.168-0.24,0.299-0.491,0.408-0.743
			c0.287-0.647,0.431-1.33,0.431-2.025V576.3H92.922z"/>
		<path style="fill:#574D5E;" d="M92.917,575.474c0,0.698,0.152,1.375,0.435,2.023c1.396,3.186,6.008,5.523,11.49,5.523
			s10.095-2.337,11.49-5.523c0.284-0.648,0.435-1.325,0.435-2.023c0-4.167-5.34-7.546-11.925-7.546
			C98.257,567.928,92.917,571.306,92.917,575.474z"/>
		<path style="fill:#4B4051;" d="M92.789,575.362c0,0.7,0.15,1.38,0.44,2.02c1.39,3.19,6.01,5.53,11.49,5.53
			c0.35,0,0.69-0.01,1.03-0.03v-15.03c-0.34-0.02-0.68-0.03-1.03-0.03C98.128,567.822,92.789,571.192,92.789,575.362z"/>
		<path style="fill:#6D6177;" d="M98.446,566.528c0-2.302,1.883-4.185,4.185-4.185h4.422c2.302,0,4.185,1.883,4.185,4.185v13.505
			c0,2.302-1.883,4.185-4.185,4.185h-4.422c-2.302,0-4.185-1.883-4.185-4.185V566.528z"/>
		<path style="fill:#4B4051;" d="M98.446,577.035c0-2.302,1.883-4.185,4.185-4.185h4.422c2.302,0,4.185,1.883,4.185,4.185v3.92
			c0,2.302-1.883,4.185-4.185,4.185h-4.422c-2.302,0-4.185-1.883-4.185-4.185V577.035z"/>
		<path style="fill:#574D5E;" d="M92.914,603.362c0,0.7,0.15,1.38,0.44,2.02c1.39,3.19,6.01,5.53,11.49,5.53
			c0.35,0,0.69-0.01,1.03-0.03c5.02-0.27,9.15-2.51,10.46-5.5c0.28-0.64,0.43-1.32,0.43-2.02c0-3.95-4.79-7.18-10.89-7.51
			c-0.34-0.02-0.68-0.03-1.03-0.03C98.253,595.822,92.914,599.192,92.914,603.362z"/>
		<path style="fill:#4B4051;" d="M92.914,603.362c0,0.7,0.15,1.38,0.44,2.02c1.39,3.19,6.01,5.53,11.49,5.53
			c0.35,0,0.69-0.01,1.03-0.03v-15.03c-0.34-0.02-0.68-0.03-1.03-0.03C98.253,595.822,92.914,599.192,92.914,603.362z"/>
		<path style="fill:#6D6177;" d="M98.446,596.814c0-2.302,1.883-4.185,4.185-4.185h4.422c2.302,0,4.185,1.883,4.185,4.185v10.905
			c0,2.302-1.883,6.785-4.185,6.785h-4.422c-2.302,0-4.185-4.21-4.185-6.512V596.814z"/>
		<path style="fill:#4B4051;" d="M98.444,607.992v3.92c0,1.94,1.34,3.58,3.14,4.04c0.33,0.09,0.69,0.14,1.05,0.14h4.42
			c0.36,0,0.72-0.05,1.05-0.14c1.8-0.46,3.13-2.1,3.13-4.04v-3.92c0-1.68-1-3.14-2.44-3.8c-0.53-0.25-1.12-0.39-1.74-0.39h-4.42
			c-0.62,0-1.22,0.14-1.75,0.39C99.444,604.852,98.444,606.312,98.444,607.992z"/>
		<path style="fill:#39303D;" d="M115.738,655.101c0.864,0,1.57,0.707,1.57,1.57v9.124c0,0.864-0.707,1.57-1.57,1.57H93.944
			c-0.864,0-1.571-0.707-1.571-1.57v-9.124c0-0.864,0.707-1.57,1.571-1.57H115.738z"/>
		<path style="fill:#463D4A;" d="M115.773,649.624c0.844-0.182,1.535,0.376,1.535,1.239v9.124c0,0.864-0.691,1.719-1.535,1.902
			l-9.397,2.026c-0.844,0.182-2.242,0.331-3.106,0.331h-9.326c-0.864,0-1.571-0.707-1.571-1.57v-9.124
			c0-0.864,0.707-1.57,1.571-1.57h9.326c0.864,0,2.261-0.149,3.106-0.331L115.773,649.624z"/>
		<g style="opacity:0.9;">
			
				<line style="fill:none;stroke:#F22C2C;stroke-width:7.188;stroke-linecap:round;stroke-miterlimit:10;" x1="113.366" y1="675.407" x2="96.316" y2="675.407"/>
		</g>
		<g style="opacity:0.7;">
			<path style="fill:#312633;" d="M101.545,637.185c0,0.329,0.27,0.599,0.599,0.599h5.395c0.329,0,0.599-0.27,0.599-0.599v-1.458
				c0-0.329-0.27-0.599-0.599-0.599h-5.395c-0.329,0-0.599,0.27-0.599,0.599V637.185z"/>
		</g>
		<g style="opacity:0.7;">
			<path style="fill:#312633;" d="M107.542,643.075c0.327-0.039,0.595-0.34,0.595-0.67v-0.707c0-0.329-0.269-0.599-0.599-0.599
				h-5.391c-0.329,0-0.599,0.27-0.599,0.599v0.707c0,0.33,0.268,0.631,0.595,0.67c0,0,1.522,0.181,2.7,0.181
				C106.019,643.256,107.542,643.075,107.542,643.075z"/>
		</g>
		
			<line style="fill:none;stroke:#FF6A48;stroke-width:2.396;stroke-linecap:round;stroke-miterlimit:10;" x1="110.97" y1="675.407" x2="98.712" y2="675.407"/>
	</g>
	
		<line style="fill:none;stroke:#A6A0B3;stroke-width:16.2284;stroke-linejoin:round;stroke-miterlimit:10;" x1="284.374" y1="713.552" x2="502.579" y2="812.21"/>
	
		<line style="fill:none;stroke:#A6A0B3;stroke-width:16.2284;stroke-linejoin:round;stroke-miterlimit:10;" x1="88.369" y1="776.56" x2="167.216" y2="812.21"/>
	
		<path style="opacity:0.39;fill:none;stroke:#A6A0B3;stroke-width:6;stroke-linecap:round;stroke-linejoin:round;stroke-miterlimit:10;" d="
		M135.04,641.052c0,28.801,0,41.304,0,54.333c0,14.667,8,22,28,22s34-3.333,34-24.667c0-14.723,0-35.796,0-51.167"/>
	<path style="fill:none;stroke:#7D7087;stroke-width:6;stroke-linecap:round;stroke-linejoin:round;stroke-miterlimit:10;" d="
		M201.04,637.052c0-6.902,0-12.654,0-16.166c0-11.333-8-16-22.667-16c-14.667,0-31.333,6-31.333-24
		c0-14.297-0.681-44.415-0.06-73.364"/>
	<path style="fill:none;stroke:#574D5E;stroke-width:6;stroke-linecap:round;stroke-linejoin:round;stroke-miterlimit:10;" d="
		M104.842,598.32c0-7.434,34.198-10.768,34.198,26.566c0,4.169,0,8.047,0,11.667"/>
	<path style="fill:none;stroke:#574D5E;stroke-width:6;stroke-linecap:round;stroke-linejoin:round;stroke-miterlimit:10;" d="
		M139.04,636.552c0,28.801,0,41.304,0,54.333c0,14.667,8,22,28,22s34-3.333,34-24.667c0-14.723,0-35.796,0-51.167"/>
	<g>
		<g>
			<g>
				
					<line style="fill:none;stroke:#A6A0B3;stroke-width:22.9938;stroke-linecap:round;stroke-linejoin:round;stroke-miterlimit:10;" x1="634.797" y1="726.788" x2="717.291" y2="726.882"/>
				<g>
					<path style="fill:#97AAAD;" d="M654.751,773.835c-0.003,2.525-2.071,4.588-4.596,4.585l-21.338-0.024
						c-2.525-0.003-4.588-2.071-4.586-4.596l0.013-11.165c0.003-2.525,2.071-4.588,4.596-4.586l21.338,0.024
						c2.525,0.003,4.588,2.071,4.586,4.596L654.751,773.835z"/>
					<path style="fill:#433A47;" d="M654.751,773.835c-0.003,2.525-2.071,4.588-4.596,4.585l-21.338-0.024
						c-2.525-0.003-4.588-2.071-4.586-4.596l0.013-11.165c0.003-2.525,2.071-4.588,4.596-4.586l21.338,0.024
						c2.525,0.003,4.588,2.071,4.586,4.596L654.751,773.835z"/>
				</g>
				<g>
					<path style="fill:#433A47;" d="M623.908,762.792c-1.308-0.002-2.376-1.236-2.374-2.744c0.002-1.507,0.009-7.611,0.015-13.564
						c0.007-5.953,5.177-10.818,11.489-10.81l12.992,0.015c6.312,0.007,11.471,5.083,11.464,11.278
						c-0.007,6.196-0.014,12.3-0.016,13.564c-0.001,1.265-0.952,2.298-2.112,2.297c-1.16-0.001-7.274-0.008-13.586-0.016
						l-4.019-0.005C631.45,762.8,625.216,762.793,623.908,762.792z"/>
					<path style="fill:none;stroke:#433A47;stroke-width:4.1241;stroke-linejoin:round;stroke-miterlimit:10;" d="M623.908,762.792
						c-1.308-0.002-2.376-1.236-2.374-2.744c0.002-1.507,0.009-7.611,0.015-13.564c0.007-5.953,5.177-10.818,11.489-10.81
						l12.992,0.015c6.312,0.007,11.471,5.083,11.464,11.278c-0.007,6.196-0.014,12.3-0.016,13.564
						c-0.001,1.265-0.952,2.298-2.112,2.297c-1.16-0.001-7.274-0.008-13.586-0.016l-4.019-0.005
						C631.45,762.8,625.216,762.793,623.908,762.792z"/>
				</g>
				<path style="fill:#433A47;" d="M534.699,725.701c-0.01,9.171,7.416,16.614,16.587,16.625c9.171,0.01,16.614-7.416,16.625-16.587
					"/>
				<g>
					<path style="fill:#433A47;" d="M534.698,726.138c-1.139-0.001-2.061-0.926-2.06-2.064c0.012-10.293,8.396-18.658,18.689-18.646
						c10.294,0.012,18.659,8.395,18.647,18.689c-0.001,1.139-0.926,2.061-2.065,2.06L534.698,726.138z"/>
					<g>
						<path style="fill:#433A47;" d="M551.325,707.49c9.171,0.01,16.598,7.453,16.587,16.624l-33.212-0.038
							C534.711,714.905,542.154,707.479,551.325,707.49 M551.33,703.366c-11.43-0.013-20.74,9.275-20.753,20.706
							c-0.003,2.278,1.842,4.126,4.119,4.129l33.212,0.038c2.278,0.003,4.126-1.842,4.129-4.119
							C572.049,712.688,562.76,703.379,551.33,703.366L551.33,703.366z"/>
					</g>
				</g>
				<path style="fill:#433A47;" d="M714.886,725.907c-0.01,9.171,7.416,16.614,16.587,16.625c9.171,0.01,16.614-7.416,16.625-16.587
					"/>
				<g>
					<path style="fill:#433A47;" d="M714.885,726.344c-1.139-0.001-2.061-0.926-2.06-2.064c0.012-10.293,8.396-18.658,18.69-18.646
						c10.293,0.012,18.658,8.395,18.646,18.689c-0.001,1.139-0.926,2.061-2.065,2.06L714.885,726.344z"/>
					<g>
						<path style="fill:#433A47;" d="M731.513,707.696c9.171,0.01,16.598,7.453,16.587,16.624l-33.212-0.038
							C714.899,715.111,722.342,707.685,731.513,707.696 M731.517,703.572c-5.537-0.006-10.745,2.143-14.665,6.055
							c-3.92,3.911-6.082,9.114-6.088,14.651c-0.003,2.277,1.842,4.126,4.119,4.129l33.212,0.038
							c2.278,0.003,4.126-1.842,4.129-4.119C752.237,712.895,742.948,703.585,731.517,703.572L731.517,703.572z"/>
					</g>
				</g>
				
					<line style="fill:none;stroke:#433A47;stroke-width:22.9938;stroke-linecap:round;stroke-linejoin:round;stroke-miterlimit:10;" x1="643.464" y1="697.121" x2="725.958" y2="697.216"/>
				
					<line style="fill:none;stroke:#433A47;stroke-width:28.3001;stroke-linecap:round;stroke-linejoin:round;stroke-miterlimit:10;" x1="639.431" y1="664.491" x2="639.35" y2="735.244"/>
				
					<line style="fill:none;stroke:#BFCBD1;stroke-width:16.9214;stroke-linecap:round;stroke-linejoin:round;stroke-miterlimit:10;" x1="639.532" y1="581.635" x2="639.421" y2="673.644"/>
				
					<line style="fill:none;stroke:#433A47;stroke-width:29.84;stroke-linecap:round;stroke-linejoin:round;stroke-miterlimit:10;" x1="639.538" y1="570.884" x2="639.489" y2="613.739"/>
			</g>
			<g>
				
					<path style="fill:none;stroke:#433A47;stroke-width:16.973;stroke-linecap:round;stroke-linejoin:round;stroke-miterlimit:10;" d="
					M785.706,288.394l-30,268.823c-0.893,7.585-7.873,13.785-15.511,13.776l-147.959-0.169"/>
			</g>
			<g>
				<path style="fill:#433A47;" d="M759.265,292.172c-2.45,8.125,2.306,14.781,10.568,14.79c8.262,0.01,16.593-6.746,18.513-15.013
					l0.217-0.933c1.92-8.267,1.976-39.475,0.126-47.757l-0.243-1.086c-1.85-8.282-8.943-15.065-15.761-15.073
					c-6.818-0.008-11.465,6.801-10.326,15.13c1.139,8.329,0.066,39.46-2.383,47.585L759.265,292.172z"/>
				<path style="fill:#433A47;" d="M742.902,459.909c-0.791,8.45,4.778,15.37,12.376,15.379c7.597,0.009,14.461-6.898,15.251-15.347
					l14.392-161.043c0.791-8.45-4.778-15.37-12.376-15.379c-7.598-0.009-14.461,6.897-15.251,15.347L742.902,459.909z"/>
			</g>
			<g>
				<path style="fill:#1AB0D3;" d="M741.255,292.152c-2.45,8.125,2.49,14.781,10.976,14.791l4.653,0.005
					c8.486,0.01,17.001-6.746,18.92-15.012l0.217-0.933c1.92-8.267,1.976-39.475,0.126-47.757l-0.243-1.086
					c-1.85-8.282-10.173-15.066-18.495-15.076c-8.322-0.009-14.199,6.797-13.06,15.126c1.139,8.329,0.066,39.46-2.383,47.585
					L741.255,292.152z"/>
			</g>
			<path style="fill:#433A47;" d="M543.235,594.521c-0.01,8.486,6.926,15.438,15.412,15.448l158.378,0.181
				c8.487,0.01,15.438-6.926,15.448-15.412l0.018-15.471c0.01-8.487-6.926-15.438-15.412-15.448L558.7,563.638
				c-8.486-0.01-15.438,6.926-15.448,15.412L543.235,594.521z"/>
			<path style="fill:#136791;" d="M732.52,551.165v0.221l-0.022,25.932c-0.022,8.489-6.959,15.426-15.448,15.404l-89.166-0.112
				l-69.218-0.066c-8.289,0-15.116-6.649-15.382-14.872c-0.022-0.2-0.022-0.378-0.022-0.577l0.022-25.91v-0.11
				c0-0.045,0-0.089,0.022-0.133c0.111-8.379,7.026-15.182,15.426-15.182l69.196,0.066l89.188,0.112
				C725.516,535.96,732.431,542.787,732.52,551.165z"/>
			<path style="fill:#1AB0D3;" d="M543.277,550.774c0,5.28,2.688,9.964,6.758,12.767c0.23,0.154,0.461,0.288,0.691,0.423
				c2.342,1.44,5.069,2.246,7.987,2.246l55.696,0.077l102.676,0.115c8.486,0,15.417-6.932,15.436-15.417l0.038-49.804
				c0.019-8.486-6.912-15.436-15.398-15.455l-158.372-0.173c-0.634,0-1.267,0.039-1.901,0.115
				c-7.622,0.922-13.555,7.469-13.574,15.302L543.277,550.774z"/>
			<path style="fill:#15759C;" d="M511.944,550.774c0,5.28,2.688,9.964,6.758,12.767c0.23,0.154,0.461,0.288,0.691,0.423
				c2.342,1.44,5.068,2.246,7.987,2.246l55.696-7.658l76.298,0.115c16,0,48-1.365,48-26.115l0.039-13
				c0-15.333-13.097-18.981-21.583-19l-158.372-15c-0.634,0-1.267,0.039-1.901,0.115c-7.622,0.922-13.555,7.469-13.574,15.302
				L511.944,550.774z"/>
			<path style="fill:#15759C;" d="M627.928,514.173v21.654l-0.022,30.476l-0.022,26.309l-69.218-0.066
				c-8.289,0-15.116-6.649-15.382-14.872l0.022-25.932v-37.768c0.022-7.846,5.962-14.385,13.586-15.316l55.632,0.067
				C621.013,498.746,627.95,505.684,627.928,514.173z"/>
		</g>
		<g>
			<g>
				<g>
					<g>
						<path style="fill:#602C34;" d="M497.235,606.388c0.003-0.071,0.005-0.141,0.008-0.211
							C497.24,606.247,497.238,606.317,497.235,606.388z"/>
						<path style="fill:#602C34;" d="M497.291,604.275c0,0.026-0.001,0.052-0.001,0.078
							C497.289,604.327,497.291,604.301,497.291,604.275z"/>
						<path style="fill:#602C34;" d="M497.261,602.282c0.002,0.039,0.003,0.078,0.004,0.118
							C497.264,602.36,497.263,602.321,497.261,602.282z"/>
						<path style="fill:#602C34;" d="M496.478,612.946c0.026-0.143,0.053-0.287,0.078-0.43
							C496.531,612.659,496.505,612.802,496.478,612.946z"/>
						<path style="fill:#602C34;" d="M496.859,610.584c0.009-0.066,0.016-0.131,0.024-0.197
							C496.875,610.453,496.868,610.518,496.859,610.584z"/>
						<path style="fill:#602C34;" d="M497.081,608.59c0.01-0.105,0.02-0.21,0.029-0.314
							C497.101,608.38,497.09,608.485,497.081,608.59z"/>
					</g>
				</g>
				<path style="opacity:0.2;fill:#59594F;" d="M507.666,507.538c0.018,0.11,0.018,0.22,0.018,0.33c0-0.238,0.018-0.476,0.019-0.714
					C507.685,507.282,507.684,507.41,507.666,507.538z"/>
			</g>
			<path style="fill:#893434;" d="M434.398,702.868l-0.004,3.115c-0.003,3.031-0.008,7.177-0.03,8.105l-92.645-0.106
				c-5.403-0.233-19.036-0.496-22.892-0.665c-0.268,0-0.536-0.043-0.804-0.084c-0.062-0.021-0.144-0.041-0.206-0.063
				c-0.206-0.062-0.371-0.103-0.577-0.186c-0.062-0.021-0.124-0.041-0.206-0.083c-0.227-0.103-0.474-0.207-0.68-0.351
				c-0.041-0.021-0.082-0.041-0.124-0.083c-0.185-0.103-0.371-0.228-0.536-0.372c-0.082-0.041-0.144-0.124-0.206-0.165
				c-0.144-0.124-0.288-0.247-0.412-0.392c-0.082-0.062-0.144-0.124-0.206-0.186c-0.165-0.207-0.35-0.413-0.515-0.619
				c-0.082-0.104-0.124-0.186-0.206-0.289c-0.082-0.144-0.185-0.269-0.288-0.413c-0.082-0.124-0.144-0.247-0.227-0.372
				c-0.062-0.144-0.144-0.268-0.206-0.391c-0.165-0.289-0.309-0.599-0.432-0.888c-0.041-0.083-0.082-0.165-0.124-0.248
				c-0.082-0.185-0.144-0.372-0.206-0.557c-0.041-0.103-0.082-0.185-0.123-0.289c-0.062-0.206-0.144-0.392-0.206-0.618
				c-0.02-0.062-0.041-0.144-0.061-0.207c-0.062-0.206-0.123-0.413-0.144-0.618c-0.123-0.372-0.205-0.743-0.288-1.114
				c-0.41-1.795-0.408-3.878-0.387-3.816c0,0.021,0.021,0.041,0.021,0.061c0-0.247,0.001-0.516,0.021-0.783
				c0.214-6.517,7.559-9.127,15.128-8.831c7.59,0.298,13.737-0.768,13.737-0.768s12.053-4.189,15.022-6.686
				c8.578-7.212,18.605-19.696,18.626-19.778c0.083-0.329,0.166-0.659,0.249-1.01c0.021-0.062,0.041-0.104,0.042-0.165
				c0.083-0.309,0.145-0.598,0.207-0.907c0.041-0.083,0.041-0.144,0.062-0.206c0.062-0.33,0.145-0.659,0.228-0.99
				c0-0.061,0.021-0.144,0.042-0.206c0.062-0.288,3.701,1.057,3.763,0.768c3.934,1.991,1.431-0.317,1.431-0.358
				c0.415-2.062,1.073-1.788,1.073-1.788l2.09-2.345l5.816,0.254c0,0,4.672,8.461,19.643,10.644
				c16.476,2.412,16.808,0.556,16.809,0.37C425.466,668.188,434.429,675.767,434.398,702.868z"/>
			<g>
				<g>
					<g>
						<g>
							<path style="fill:#362C38;" d="M389.905,672.816c-0.011,9.851,4.785,18.025,21.123,18.044
								c16.338,0.019,12.759-22.33,12.759-22.33L389.905,672.816z"/>
						</g>
						<g>
							<path style="fill:#9B3E3E;" d="M476.639,761.196l-0.004,3.292c-0.002,1.362-0.003,2.937-0.007,4.373
								c-0.005,2.322-1.891,4.192-4.213,4.189l-93.739-0.107c-5.712-0.246-20.121-0.524-24.198-0.702
								c-0.284,0-0.567-0.045-0.85-0.088c-0.065-0.022-0.153-0.044-0.218-0.066c-0.218-0.065-0.392-0.109-0.61-0.197
								c-0.065-0.022-0.131-0.044-0.218-0.087c-0.24-0.109-0.501-0.219-0.719-0.371c-0.044-0.022-0.087-0.044-0.131-0.087
								c-0.196-0.109-0.392-0.241-0.566-0.393c-0.087-0.044-0.152-0.131-0.218-0.175c-0.153-0.131-0.305-0.261-0.436-0.415
								c-0.087-0.065-0.152-0.131-0.218-0.196c-0.174-0.218-0.37-0.437-0.544-0.654c-0.087-0.11-0.131-0.197-0.218-0.306
								c-0.087-0.152-0.196-0.284-0.305-0.437c-0.087-0.131-0.152-0.261-0.24-0.393c-0.065-0.152-0.152-0.283-0.217-0.413
								c-0.174-0.306-0.326-0.633-0.457-0.938c-0.043-0.087-0.087-0.175-0.13-0.262c-0.087-0.196-0.152-0.393-0.217-0.589
								c-0.043-0.109-0.087-0.196-0.13-0.306c-0.065-0.218-0.152-0.414-0.217-0.654c-0.022-0.065-0.043-0.152-0.065-0.218
								c-0.065-0.218-0.13-0.437-0.152-0.654c-0.13-0.393-0.217-0.786-0.304-1.178c-0.434-1.897-0.431-4.099-0.41-4.034
								c0,0.022,0.022,0.044,0.022,0.065c0-0.261,0.001-0.545,0.023-0.828c0.226-6.889,7.99-9.648,15.99-9.334
								c6.872,0.27,12.625-0.518,14.134-0.75c0.261-0.04,0.492-0.098,0.741-0.187c2.08-0.737,12.697-4.565,15.524-6.942
								c9.067-7.623,19.666-20.819,19.688-20.906c0.088-0.348,0.175-0.697,0.263-1.067c0.022-0.066,0.044-0.11,0.044-0.174
								c0.088-0.327,0.153-0.632,0.219-0.959c0.044-0.087,0.044-0.152,0.066-0.218c0.066-0.349,0.153-0.697,0.241-1.046
								c0-0.065,0.022-0.152,0.044-0.218c0.066-0.304,0.132-0.61,0.197-0.915c0-0.044,0.022-0.066,0.022-0.108
								c0.004-0.022,0.009-0.044,0.013-0.065c0.423-2.107,2.382-3.541,4.517-3.303l3.943,0.44c0.094,0.01,0.189,0.018,0.283,0.022
								l3.913,0.171c1.204,0.053,2.351,0.589,3.111,1.525c2.131,2.624,7.876,8.087,19.744,9.817
								c9.428,1.38,13.855,1.438,15.932,1.17c1.563-0.202,3.09,0.528,3.959,1.843C472.113,731.39,476.662,741.332,476.639,761.196z"
								/>
							<g>
								<path style="fill:#362C38;" d="M430.572,719.149c-0.011,9.851,4.785,18.025,21.122,18.044
									c16.338,0.019,12.759-22.33,12.759-22.33L430.572,719.149z"/>
							</g>
						</g>
						<g>
							<path style="fill:#33252C;" d="M425.452,685.861l80.949-177.399c0.231-0.507,0.447-1.02,0.646-1.539
								c0.558-0.328,1.229-0.636,1.716-0.768l175.405,0.185c14.559,0.017,26.375-11.772,26.392-26.332
								c0.017-14.559-11.773-36.882-26.332-36.898l-175.94-0.186c-19.656-0.022-43.806,23.748-50.679,45.456l-80.105,175.555
								C371.449,677.177,421.018,695.559,425.452,685.861z"/>
						</g>
						<path style="fill:#2B232D;" d="M591.509,471.689l109.081,1.489l9.605,1.469l2.737,22.948
							c1.482,29.09-3.64,50.89-29.093,50.861l-59.876-5.689c-16.437,0.116-32.49-12.644-36.599-29.672
							c-0.658-2.731,8.649-5.563,8.653-8.484L591.509,471.689z"/>
						<g>
							<path style="fill:#3F2F36;" d="M713.444,506.89c0.098,3.944,0.702,10.119-0.059,13.532
								c-5.958,26.74-36.647,34.998-49.568,34.983l-152.71-0.16l-38.48,167.352c-2.782,12.241-54.648,2.552-51.422-11.649
								l39.126-177.442c4.791-21.176,24.338-37.299,45.924-38.217c0.673-0.018,1.326-0.037,1.999-0.036l172.488,0.182
								C695.294,495.452,713.076,492.32,713.444,506.89z"/>
						</g>
					</g>
				</g>
				<g>
					<g>
						<path style="fill:#602C34;" d="M499.422,605.67c0.003-0.07,0.005-0.14,0.008-0.21
							C499.427,605.531,499.425,605.6,499.422,605.67z"/>
						<path style="fill:#602C34;" d="M499.477,603.572c0,0.026-0.001,0.052-0.001,0.078
							C499.476,603.624,499.477,603.598,499.477,603.572z"/>
						<path style="fill:#602C34;" d="M499.448,601.593c0.002,0.039,0.003,0.078,0.004,0.117
							C499.451,601.67,499.449,601.632,499.448,601.593z"/>
						<path style="fill:#602C34;" d="M498.67,612.185c0.026-0.142,0.053-0.285,0.078-0.427
							C498.723,611.901,498.697,612.043,498.67,612.185z"/>
						<path style="fill:#602C34;" d="M499.048,609.839c0.009-0.065,0.016-0.13,0.024-0.195
							C499.064,609.709,499.057,609.773,499.048,609.839z"/>
						<path style="fill:#602C34;" d="M499.269,607.858c0.01-0.104,0.02-0.208,0.029-0.312
							C499.289,607.65,499.278,607.754,499.269,607.858z"/>
					</g>
				</g>
				<path style="opacity:0.2;fill:#59594F;" d="M509.784,507.482c0.018,0.109,0.017,0.218,0.017,0.328
					c0-0.236,0.018-0.473,0.018-0.709C509.802,507.227,509.801,507.355,509.784,507.482z"/>
			</g>
			<path style="fill:#33252C;" d="M713.41,519.807c-0.371,5.15-1.203,9.609-2.399,13.452c-5.324,17.042-17.401,22.18-47.194,22.146
				H498.424l2.923-19.968c0.307,0.25,19.012-3.223,49.728-3.188c0,0,70.945,0.081,90.012,0.103
				c14.435,0.016,26.103-1.027,32.727-10.822c2.214-3.266,3.871-6.627,4.874-9.816C698.847,514.58,708.627,517.417,713.41,519.807z"
				/>
			<path style="fill:#1F1921;" d="M713.154,504.028c1.833,16.5-0.946,25.388-2.142,29.231c-3.263-4.002-11.966-7.549-37.198-11.729
				c-2.671-0.426-5.516-0.872-8.571-1.336c0,0-13.625-2.341-30.228-5.936c-24.155-5.198-54.611-13.037-58.274-20.114
				c-0.134-0.327-0.288-0.654-0.441-1c-0.441-1.038-0.804-2.673-1.09-4.654l0.046-6.304c0.325,1.634,0.727,3.058,1.206,4.192
				c0.154,0.308,4.957-8.114,5.11-7.767c3.779,6.789,29.254,12.077,52.833,16.333c16.2,2.94,29.583,5.083,29.583,5.083
				c5.612,0.64,9.567,3.694,14.083,4.333C698.23,507.228,708.37,501.638,713.154,504.028z"/>
		</g>
	</g>
	
		<line style="fill:none;stroke:#433A47;stroke-width:16.2284;stroke-linejoin:round;stroke-miterlimit:10;" x1="167.216" y1="538.975" x2="167.216" y2="819.21"/>
	
		<line style="fill:none;stroke:#433A47;stroke-width:16.2284;stroke-linejoin:round;stroke-miterlimit:10;" x1="504.579" y1="538.975" x2="504.579" y2="819.21"/>
	<path style="fill:#D4BD96;" d="M158.539,359.121l396.557-40.627c4.701,0,8.511,3.811,8.511,8.512l0,236.912
		c0,4.701-3.811,8.512-8.512,8.512H158.539c-4.701,0-8.511-3.811-8.511-8.512l0-196.285
		C150.027,362.931,153.838,359.121,158.539,359.121z"/>
	<path style="fill:#F2DBBB;" d="M150.023,303.972v241.29c0,4.32,3.51,7.82,7.83,7.82h397.93c4.32,0,7.82-3.5,7.82-7.82v-241.29
		c0-4.32-3.5-7.82-7.82-7.82h-397.93C153.533,296.152,150.023,299.652,150.023,303.972z"/>
	<g>
		<g>
			
				<rect x="178.404" y="295.824" transform="matrix(1 -0.001 0.001 1 -0.3267 0.252)" style="opacity:0.48;fill:#5B2824;" width="137.258" height="49.64"/>
			<polygon style="fill:#524858;" points="317.196,336.834 200.964,336.975 200.962,313.117 317.194,312.977 			"/>
			<polygon style="fill:#ACB715;" points="317.196,325.721 199.126,325.861 199.125,279.348 317.195,279.208 			"/>
			<polygon style="fill:#605168;" points="319.656,281.048 201.585,281.188 201.585,273.808 319.655,273.806 			"/>
			<polygon style="fill:#FFF9F7;" points="319.657,316.983 203.425,317.123 203.423,283.61 319.655,283.469 			"/>
			<polygon style="fill:#41B3D6;" points="319.657,296.214 201.587,296.353 201.585,249.84 319.656,249.701 			"/>
			<polygon style="fill:#605168;" points="319.656,252.771 201.585,252.911 201.585,245.531 319.656,245.529 			"/>
			<rect x="200.013" y="314.355" style="fill:#218CA5;" width="119.644" height="5.498"/>
			<rect x="200.013" y="295.801" style="fill:#218CA5;" width="119.644" height="5.638"/>
			<polygon style="fill:#FF5D55;" points="312.276,263.821 196.206,263.96 196.205,217.448 312.275,217.308 			"/>
			<polygon style="fill:#76788B;" points="312.585,267.553 196.353,267.694 196.351,255.617 312.583,255.477 			"/>
			
				<rect x="217.795" y="229.233" transform="matrix(1 -0.0019 0.0019 1 -0.451 0.4282)" style="fill:#F2DBBB;" width="14.683" height="16.705"/>
			<polygon style="fill:#574D5E;" points="196.353,267.694 196.352,263.928 196.351,263.928 196.353,287.785 312.585,287.645 
				312.583,267.553 			"/>
		</g>
		<polygon style="fill:#FFF9F7;" points="217.272,271.709 217.272,271.709 217.271,271.709 217.272,281.918 277.738,281.847 
			277.737,271.638 		"/>
		<polygon style="fill:#FFF9F7;" points="283.605,271.709 283.605,272.069 283.604,272.069 283.605,281.918 292.404,281.847 
			292.404,271.638 		"/>
		<path style="fill:#574D5E;" d="M240.662,275.215c-3.049,0.305-6.055-0.627-9.11-0.699c-2.891-0.068-5.721,0.333-8.521,1.023
			c-1.249,0.308-0.72,2.237,0.532,1.928c3.014-0.743,6.077-1.115,9.18-0.899c2.671,0.186,5.229,0.917,7.919,0.647
			C241.931,277.087,241.944,275.086,240.662,275.215z"/>
		<path style="fill:#574D5E;" d="M250.138,274.981c-1.623,0.227-3.245,0.454-4.867,0.68c-1.269,0.178-0.729,2.105,0.532,1.929
			c1.622-0.227,3.245-0.454,4.867-0.68C251.939,276.733,251.399,274.805,250.138,274.981z"/>
	</g>
	<g>
		<g>
			<path style="fill:#FFF9F7;" d="M253.416,315.975l-13.953,0.034c-1.424,0.004-2.581-1.15-2.58-2.574l0.003-13.252
				c0-1.419,1.149-2.57,2.568-2.573l13.953-0.034c1.424-0.004,2.581,1.15,2.58,2.574l-0.003,13.252
				C255.984,314.821,254.835,315.972,253.416,315.975z"/>
		</g>
	</g>
	<g>
		<g>
			<path style="fill:#FFF9F7;" d="M253.417,292.988l-13.953,0.034c-1.424,0.003-2.581-1.15-2.58-2.575l0.003-13.252
				c0-1.419,1.149-2.57,2.568-2.573l13.953-0.034c1.424-0.003,2.581,1.15,2.58,2.575l-0.003,13.252
				C255.984,291.833,254.835,292.984,253.417,292.988z"/>
		</g>
	</g>
	<g>
		<g>
			<path style="fill:#FFF9F7;" d="M253.417,269.654l-13.953,0.034c-1.424,0.003-2.581-1.15-2.58-2.575l0.003-13.252
				c0-1.419,1.149-2.57,2.568-2.573l13.953-0.034c1.424-0.003,2.581,1.15,2.58,2.574l-0.003,13.252
				C255.984,268.5,254.835,269.651,253.417,269.654z"/>
		</g>
	</g>
	<g>
		<path style="fill:#B59885;" d="M150.023,481.188l120.732-0.01c10.057-0.001,18.285-8.23,18.285-18.286v-81.976
			c0-10.057-8.228-18.285-18.285-18.285H150.023"/>
	</g>
	<g>
		<path style="fill:#B59885;" d="M563.86,335.33l-60.769,29.284c-9.06,4.366-16.472,16.166-16.472,26.223l0,72.322
			c0,10.057,8.207,18.869,18.239,19.584l59.003,4.201"/>
	</g>
	<g>
		<path style="fill:#575966;" d="M168.34,377.639c-0.001-10.057,8.227-18.285,18.283-18.285l89.033,0
			c10.057,0,18.286,8.228,18.286,18.285l0.006,64.828c0.001,10.057-8.227,18.285-18.283,18.285l-89.033,0
			c-10.057,0-18.286-8.228-18.287-18.285L168.34,377.639z"/>
	</g>
	<path style="fill:#433A47;" d="M168.344,367.432v3.66l0.01,61.16c0,7.48,4.55,13.95,11.02,16.77c2.23,0.97,4.68,1.51,7.26,1.51
		h89.03c10.06,0,18.28-8.22,18.28-18.28v-64.82c0-10.05-8.22-18.28-18.28-18.28h-89.04c-2.57,0-5.03,0.54-7.25,1.51
		c-4.83,2.1-8.59,6.24-10.2,11.31C168.633,363.702,168.344,365.532,168.344,367.432z"/>
	<path style="fill:none;stroke:#433A47;stroke-width:6;stroke-linecap:round;stroke-linejoin:round;stroke-miterlimit:10;" d="
		M173.007,401.393c-3.361,4.194-5.967,11.033-5.967,22.159c0,31.333,5.333,46.667-6.667,46.667c-16,0-12.71,5.507-13.393,37.303
		v67.364"/>
	<polygon style="fill:#76788B;" points="238.384,250.264 236.074,256.534 202.074,348.824 201.954,349.154 177.404,428.444 
		179.374,371.864 169.174,361.974 169.164,361.964 179.374,332.314 202.074,266.384 224.324,201.774 226.144,196.474 
		227.354,201.774 236.074,240.114 	"/>
	<path style="fill:#575966;" d="M168.344,367.432v3.66l0.01,61.16c0,7.48,4.55,13.95,11.02,16.77v-116.71l-10.21,29.65l0.01,0.01
		C168.633,363.702,168.344,365.532,168.344,367.432z"/>
	<polygon style="fill:#474A56;" points="236.074,240.114 236.074,256.534 202.074,348.824 202.074,266.384 224.324,201.774 
		227.354,201.774 	"/>
	<path style="fill:#574D5E;" d="M214.335,349.152v101.384h61.329c10.057,0,18.283-8.226,18.283-18.283v-64.819
		c0-10.057-8.226-18.283-18.283-18.283H214.335z"/>
	<polygon style="fill:#433A47;" points="287.404,433.365 283.737,439.186 231.791,439.063 231.791,414.203 	"/>
	<g>
		<polygon style="fill:#D8E533;" points="287.404,433.365 238.333,433.365 238.333,418.444 287.404,418.778 		"/>
		<rect x="238.333" y="394.238" style="fill:#D3354F;" width="49.071" height="30.46"/>
		<polygon style="fill:#F9436E;" points="287.404,391.87 287.404,416.852 238.458,416.73 238.458,391.87 		"/>
	</g>
	<polygon style="fill:#575966;" points="238.384,275.154 212.874,354.344 181.204,452.674 168.974,444.644 202.094,346.454 
		226.144,275.154 	"/>
	<polygon style="fill:#433A47;" points="238.384,275.154 212.874,354.344 202.094,346.454 226.144,275.154 	"/>
	<polygon style="fill:#695E72;" points="236.205,116.656 282.258,323.671 282.258,399.211 236.205,192.196 	"/>
	<polygon style="fill:#433A47;" points="208.988,196.538 236.205,192.196 282.258,399.211 255.04,403.552 	"/>
	<g>
		<path style="fill:#B59885;" d="M428.384,438.162c0.54,9.87,2.04,6.034,11.99,6.723l86.83,17.697c0.86,0.06,1.74,0.09,2.62,0.09
			c12.07-0.02,25-5.73,33.78-14.5v-65.92c-1.74,1.35-3.27,3.05-4.46,5.07l-20.34,34.46c-1.32,2.23-6.49-62.727-9.1-62.897
			l-76.3,10.226l-23.697,17.108C419.757,385.529,427.844,428.202,428.384,438.162z"/>
	</g>
	<polygon style="fill:#574D5E;" points="208.988,120.998 236.205,116.657 236.205,194.956 208.988,199.298 	"/>
	<g>
		<path style="fill:#B59885;" d="M373.801,478.572l59.941,0.004c5.735,0,10.385-4.649,10.385-10.384V364.143
			c0-5.735-4.649-10.384-10.383-10.384l-59.941-0.004c-5.735,0-10.385,4.649-10.385,10.384v104.049
			C363.418,473.923,368.067,478.572,373.801,478.572z"/>
		<path style="fill:#433A47;" d="M383.627,466.832l55.883,4.79c4.121,0.353,7.661-2.896,7.661-7.033V361.536
			c0-3.665-2.804-6.72-6.456-7.033l-55.883-4.79c-4.121-0.353-7.661,2.897-7.661,7.033V459.8
			C377.172,463.465,379.976,466.52,383.627,466.832z"/>
		<path style="fill:#574D5E;" d="M377.174,347.742v103.06c0,3.66,2.8,6.72,6.45,7.03l55.89,4.79c4.12,0.35,7.66-2.9,7.66-7.03
			v-103.06c0-3.66-2.81-6.72-6.46-7.03l-55.88-4.79C380.713,340.362,377.174,343.612,377.174,347.742z"/>
		<path style="fill:#433A47;" d="M403.874,393.552c4.706,2.943,0.5,13.75,14.5,12.5c9.23-0.82,21.51,2.05,28.8,4.1v-40.34
			l-27.05,1.24l-14.72,0.392l-8,8.25C397.144,385.364,398.904,390.444,403.874,393.552z"/>
	</g>
	<path style="fill:#433A47;" d="M393.654,411.944c-0.5,19.5,18,23.75,40.22,23.108c10.186-0.294,12.68,3.39,13.3,8.55v-29.27
		l-20.3-2.28L393.654,411.944z"/>
	<path style="fill:#F58D6C;" d="M468.214,347.464c0,0-0.36,1.56-0.96,3.96c-1.78,7.19-5.08,19.88-7.47,22.27
		c-3.18,3.18-9.76,7.24-18.63,11.09c-8.87,3.85-21.25,1.5-25.27,1.51c-8.36,0.03-5.24-6.26-1.73-6.6c3.52-0.33,15.28-2.44,11.6-4.28
		c-3.68-1.84-9.02-3.12-11.04-2.51c-2.02,0.61-3.68,2.34-9.21,5.36c-5.52,3.01-9.6,3.95-9.6-1.57c0-0.86,0.33-1.83,0.9-2.89
		c3.13-5.77,13.65-13.93,18.74-17.75c2.31-1.73,4.31-2.98,6.63-3.79c3.74-1.3,8.32-1.46,16.37-0.63c0.19,0.02,0.39,0.04,0.59,0.08
		c4.92,0.65,11.05,3.31,15.02,2.73c3.51-0.5,4.8-4.4,7.58-5.16l0.05-0.01C464.234,348.604,466.384,347.954,468.214,347.464z"/>
	<path style="fill:#FFB287;" d="M439.404,354.444c0,1.88-15.75,12.88-19.5,11.88s-7.62-2.88-10.12-1.38s-9.24,6.36-12.98,8.86
		c3.13-5.77,13.65-13.93,18.74-17.75c2.31-1.73,4.31-2.98,6.63-3.79c3.74-1.3,8.32-1.46,16.37-0.63c0.19,0.02,0.39,0.04,0.59,0.08
		C439.294,352.864,439.404,353.884,439.404,354.444z"/>
	<polygon style="fill:#695E72;" points="269.594,266.762 269.594,342.302 282.253,399.212 282.253,323.672 	"/>
	<g>
		<polygon style="fill:#FFD833;" points="237.704,192.029 237.704,130.305 268.094,266.929 268.094,328.651 		"/>
		<g>
			<path style="fill:#695E72;" d="M239.204,143.957l3.941,17.719l16.53,74.299l6.919,31.119v47.905l-1.592-7.156l-16-71.93
				l-9.798-44.048V143.957 M236.204,116.654v75.54l9.87,44.37l16,71.93l7.52,33.81v-75.54l-6.99-31.44l-16.53-74.3L236.204,116.654
				L236.204,116.654z"/>
		</g>
	</g>
	<g>
		<path style="fill:#7C9CB4;" d="M138.115,672.814"/>
	</g>
	
		<line style="fill:none;stroke:#433A47;stroke-width:22.9938;stroke-linecap:round;stroke-linejoin:round;stroke-miterlimit:10;" x1="641.873" y1="697.052" x2="553.873" y2="697.052"/>
	<g>
		<path style="fill:#FFB287;" d="M462.904,413.444c-5.44,12.1-2.25,17.75-2.25,17.75c-17.5,2.75-23.84-7.12-29.5-8.25
			c-9.74-1.95-15.87,4.38-20.63,2.62c-13.39-4.93-6.54-13.58-13.72-12.84c-0.68,0.07-1.8,0.07-2.88-0.2
			c-1.26-0.31-2.46-0.98-2.79-2.32c-0.61-2.47,4.96-4.35,8.78-6.3c3.8-1.94,11.06-4.41,20.41-5.21c2.06-0.18,5.29,0.23,4.58-0.01
			c-2.78-0.96-4.99-2.6-6.52-4.91c-0.48-0.72-0.71-1.9-0.39-2.65c0.25-0.61,0.91-1.63,1.77-1.83c0.78-0.18,2.25,0.52,3.07,0.7
			c7.31,1.6,10.86,2.17,18.12,3.99c4.39,1.08,8.4,3.58,11.76,5.51c0.98,0.56,4.6,2.83,8.19,2.88c0.05,0.01,0.09,0.01,0.14,0.01
			c-0.18,0.12-0.48,0.17-0.84,0.19c-1.33,0.06-3.53-0.38-4.16,0.14c-0.64,0.52-0.57,1.2-0.09,1.99
			C457.574,407.374,463.924,411.174,462.904,413.444z"/>
		<path style="fill:#F58D6C;" d="M462.904,413.444c-5.44,12.1-2.25,17.75-2.25,17.75c-17.5,2.75-23.84-7.12-29.5-8.25
			c-9.74-1.95-15.87,4.38-20.63,2.62c-13.39-4.93-6.54-13.58-13.72-12.84c-0.68,0.07-1.8,0.07-2.88-0.2
			c1.31,0.2,2.87,0.16,4.73-0.08c5.75-0.75,3.25,4,7.25,7s10,0,17.75-2s19,5.75,25-4.5c2.42-4.12,5.03-6.67,7.3-8.24
			C457.574,407.374,463.924,411.174,462.904,413.444z"/>
	</g>
	<path style="fill:#FFB287;" d="M432.404,368.611c2.559,0.337,7.353-1.857,13.923-4.497c5.95-2.38,13.06-5.44,20.41-8.67
		c8.82-3.88,20.677-6.98,28.667-10.5l-33.624,4.331l-0.05,0.01c-2.78,0.76-3.441,2.284-6.951,2.784
		c-4.13,0.6-11.229,0.076-16.239-0.434c-8.05-0.83-12.63-0.67-16.37,0.63c-2.46,2.26-5.29,4.72-8.13,7.87
		C409.54,365.135,426.07,367.778,432.404,368.611z"/>
	<g>
		<g>
			<path style="fill:#433A47;" d="M827.096,534.248c5.118,3.632,9.305,11.287,9.305,17.012v61.137c0,5.725-4.396,11.11-9.769,11.967
				l-98.421,22.274c-15.004,0.913-20.777-3.336-22.337-4.421c-7.667-5.333-8.161-13-8.161-21.499v-61.138
				c0-5.725,4.437-10.987,9.859-11.694l98.722-20.068c5.422-0.707,14.046,1.686,19.164,5.318L827.096,534.248z"/>
			<path style="fill:#5B5266;" d="M836.404,550.423v56.14c0,5.73-4.4,11.113-9.77,11.965l-98.42,22.281
				c-5.38,0.849-13.9-1.526-18.941-5.286l-2.396-3.387c-5.04-3.76-9.17-11.53-9.17-17.25l0-56.14c0-5.72,4.44-10.985,9.86-11.696
				l84.14-18.164l14.59-1.9c5.42-0.701,14.04,1.684,19.16,5.321l-1.533-1.143l0.82,0.58l2.35,1.67
				C832.214,537.05,836.404,544.703,836.404,550.423z"/>
			<path style="fill:#9386A5;" d="M836.404,550.423v4.49c-21.08,3.589-107.42,24.466-120,26.255l-6.03-22.616l118.625-21.375
				l1.75-0.5C835.623,540.052,836.404,548.052,836.404,550.423z"/>
			<g>
				<path style="fill:#433A47;" d="M697.708,620.722c0,5.725,4.126,13.486,9.168,17.248l2.393,3.39
					c5.042,3.761,9.168,2.155,9.168-3.57v-61.142c0-5.725-0.064-13.428-6.064-18.428l-5.497-2.209
					c-5.043-3.761-9.168-2.155-9.168,3.57V620.722z"/>
			</g>
			<path style="fill:#433A47;" d="M836.401,574.227v16.97l-45.81,16.564l-11.28,1.63l-60.87,5.866l-9.04-14.353l9.04-9.397
				c0,9.56,4.63,14.645,17.29,13.222c4.54-0.514,33.18-1.585,42.37-2.76c4.54-0.574,9.22-1.18,13.61-1.755
				c11.49-1.486,35.02-14.731,35.02-14.731S836.401,583.557,836.401,574.227z"/>
			<path style="fill:#B7BEBC;" d="M787.19,600.741v4.76c0,1.04-0.43,2.04-1.12,2.787c-0.59,0.667-1.39,1.121-2.25,1.241l-6.87,0.929
				c-0.82,0.109-1.58-0.099-2.16-0.54c-0.74-0.554-1.21-1.462-1.21-2.562v-4.86C778.12,601.922,782.8,601.317,787.19,600.741z"/>
		</g>
		
			<line style="fill:none;stroke:#433A47;stroke-width:11;stroke-linecap:round;stroke-linejoin:round;stroke-miterlimit:10;" x1="707.906" y1="561.486" x2="751.873" y2="300.052"/>
	</g>
	<g>
		<path style="fill:#B59885;" d="M421.874,329.719c0,5.5,4.5,10,10,10h30c5.5,0,10-4.5,10-10v-8c0-5.5-4.5-10-10-10h-30
			c-5.5,0-10,4.5-10,10V329.719z"/>
	</g>
	<g>
		<path style="fill:#433A47;" d="M425.874,322.719c0,5.5,4.5,10,10,10h30c5.5,0,10-4.5,10-10v-3c0-5.5-4.5-10-10-10h-30
			c-5.5,0-10,4.5-10,10V322.719z"/>
	</g>
	<g>
		<path style="fill:#574D5E;" d="M425.874,318.219c0,5.5,4.271,7.898,9.76,6.423c9.21-2.727,21.27-2.727,30.48,0
			c5.489,1.476,9.76-0.923,9.76-6.423c0-1.2,0-1.8,0-3c0-5.5-4.271-12.101-9.76-13.576c-9.21-2.727-21.27-2.727-30.48-0.001
			c-5.489,1.475-9.76,8.077-9.76,13.577C425.874,316.419,425.874,317.019,425.874,318.219z"/>
	</g>
	<path style="fill:none;stroke:#433A47;stroke-width:11;stroke-linecap:round;stroke-linejoin:round;stroke-miterlimit:10;" d="
		M743.373,299.052c0,0-3.5-29,16.5-30.5c18.953-1.422,27,20,27,20"/>
	<path style="fill:#1AB0D3;" d="M739.404,297.444c1-6.75,5-18.5,15.5-21.75s15.25,11,14.5,16.25s-3.75,18.75-4.75,18.75
		S739.404,297.444,739.404,297.444z"/>
	<path style="fill:#136791;" d="M724.891,459.888c-0.791,8.45,5.506,15.371,13.992,15.381l2.235,0.003
		c8.487,0.01,16.077-6.896,16.868-15.345l14.392-161.043c0.791-8.45-5.506-15.371-13.992-15.381l-2.235-0.003
		c-8.487-0.01-16.077,6.896-16.868,15.345L724.891,459.888z"/>
	<path style="fill:#A0A6BA;" d="M428.204,315.469c0,0.64,0.07,1.26,0.22,1.85c1.77-2.71,4.32-4.9,7.21-5.68
		c2.13-0.63,4.41-1.11,6.78-1.44c-1.48-1.72-3.67-2.81-6.12-2.81C431.823,307.389,428.204,311.009,428.204,315.469z"/>
</g>
<g style="display:inline;">
	<path style="fill:#2B232D;" d="M595.044,493.908"/>
	<path style="fill:#2B232D;" d="M596.63,493.967"/>
	<g>
		
			<path style="fill:none;stroke:#A3BFE2;stroke-width:20.2157;stroke-linecap:round;stroke-linejoin:round;stroke-miterlimit:10;" d="
			M670.953,407.382"/>
		<g>
			<g>
				<path style="fill:#F4EDED;" d="M631.824,253.154l-43.83,73.42c-5.81,16.4-14.05,41.98-34.81,45.34l-93.78,10.65
					c-1.95,0-5.92-9.08-7.9-17.78c-1.7-7.4-1.96-14.53,1.66-15.54l74.24-12.05c3.62-0.47,14.33-4.84,18.11-12.76
					c5.81-12.23,16.3-34.57,28.01-59.71c9.4-20.19,19.58-37.02,28.75-38.44c23.22-3.6,12.55-7.98,22.48-1.98
					C634.664,230.304,637.844,243.224,631.824,253.154z"/>
				<path style="fill:#FFFFFF;" d="M580.404,271.944c0,0-26,59.5-35,72.5c-8.84,12.77-72.7,17.34-93.9,20.34
					c-1.7-7.4-1.96-14.53,1.66-15.54l74.24-12.05c3.62-0.47,14.33-4.84,18.11-12.76c5.81-12.23,16.3-34.57,28.01-59.71
					L580.404,271.944z"/>
			</g>
			<path style="fill:#2B232D;" d="M708.248,473.812l-34.471,0.849l-13.769-0.036l-46.754-5.895l-21.803,0.535
				c0-0.02-0.019-0.039-0.039-0.057c-0.212-0.599-2.643,5.808-5.572-0.201c-2.485-5.082-7.197,0.936-8.653-9.204
				c-4.472-16.359-0.842-13.794-0.842-13.892c-0.249-1.797-0.612-6.105-0.842-7.998c-1.511-12.495,0.03-25.625-0.553-39.201
				c-0.038-0.888-0.075-1.758-0.113-2.627l0-0.057c0-0.116,0-0.232-0.019-0.328c-0.994-25.743-6.973-72.675-7.336-77.49
				c-3.985-52.826,3.748-102.794,35.249-102.396c6.809,0.086,11.428-0.624,12.027-0.856c-1.352,0.173-11.586-0.38,9.598-0.066
				c3.978,0.063,8.013,1.091,11.97,2.873c11.928,5.362,23.192,17.444,30.304,29.735c1.792,3.091,3.334,6.357,4.701,9.777
				c11.919,29.772,8.881,61.704,11.779,77.388c4.99,26.944,1.301,61.179,5.841,93.608
				C693.203,458.751,708.248,473.812,708.248,473.812z"/>
			<path style="fill:#963932;" d="M575.554,431.254c0.03-1.35,0.06-2.68,0.1-3.98c0.04-1.41,0.08-2.76,0.12-4.09
				c0.1-4,0.12-7.59,0.03-10.43c-0.02-0.1-0.02-0.18-0.02-0.27c-0.02-0.06-0.02-0.12-0.02-0.16c0-0.15-0.02-0.31-0.02-0.46
				C576.374,415.614,575.994,423.404,575.554,431.254z"/>
			<path style="fill:#963932;" d="M587.514,321.734c0.49-2.37,1.47,4.16,2.7,3.12C588.444,328.124,587.444,322.044,587.514,321.734z
				"/>
			<path style="fill:#963932;" d="M631.274,276.534c-2.08,4.29-4.25,8.73-6.54,13.17c-1.12,2.16-9.73,11.63-16.9,19.52
				c-3.89,4.31-7.37,8.13-8.97,10.05c-2.49,2.99-6.1,3.38-8.65,5.57C597.554,311.254,618.174,274.314,631.274,276.534z"/>
			<path style="fill:#4A3B4C;" d="M706.734,509.864c-5.56-2.45-26.1-2.61-41.87-4.97c-0.76-0.12-1.51-0.23-2.24-0.34
				c-15.93-2.44-89.3-10.57-85.1-27.86c-0.97-2.44-1.95-12.51-2.12-23.92c0.03,0.11,0.07,0.2,0.1,0.29
				c4.48,11.4,39.28,15.71,48.03-4.2c0.3-0.67,0.56-1.38,0.8-2.11c1.34-4.19,6.09-66.98,9.32-114.81
				c1.71-25.18,9.36-44.23,2.05-52.73c-1.34-1.55-2.83-2.41-4.43-2.68c8.29-17.11,15.09-31.94,22.06-35.81
				c1.84-1.04,3.67-1.31,5.56-0.63c2.82,0.97,5.75,4.02,8.85,9.68c0.45,0.78,0.89,1.57,1.33,2.38c0.02,0.04,0.04,0.08,0.06,0.12
				c2.95,5.39,5.55,11.15,7.86,17.08c2.66,6.8,4.94,13.82,6.9,20.74c3.01,10.6,5.28,18.84,7.03,25.76
				c1.67,6.55,2.87,11.92,3.81,16.99c4.99,26.94,0.65,67.17,5.17,99.6c1.03,7.41,3.31,15.64,4,23c0.27,3.01-0.27,10.62,0,13.5
				C706.544,496.844,706.734,509.864,706.734,509.864z"/>
			<path style="fill:#4A3B4C;" d="M704.779,510.194c-5.83-2.57-26.225-3.21-42.155-5.64c-15.93-2.44-89.3-10.57-85.1-27.86
				c-0.97-2.44-1.95-12.51-2.12-23.92c0.03,0.11,0.07,0.2,0.1,0.29c4.48,11.4,39.28,15.71,48.03-4.2
				c-3.63,22.19-3.54,38.2,18.37,42.58C674.404,497.944,694.654,503.444,704.779,510.194z"/>
			<path style="fill:#4A3B4C;" d="M671.331,257.277c-10.742-12.951-32.289,86.918-39.428,97.918c0,0,10.167-84.083-14.5-65.417
				c-12.981,9.823-20.048,38.86-25.234,48.22c-0.948,1.718,8.494,3.427,7.566,4.565c-5.357,6.676,7.83,3.039,6.499,1.898
				c0,0-4.822-7.245-3.368-12.206c4.304-14.594-0.893-39.684-0.213-59.811c0.68-20.127,14.408-27.802,15.713-37.456
				c0.701-5.329,9.051-11.905,17.96-17.224c9.419,4.24,18.447,12.67,25.292,22.101c1.851,2.493,3.509,5.064,5.012,7.634
				c0.867,1.507,1.696,3.053,2.447,4.657c0.019,0.038,0.039,0.076,0.058,0.115C669.925,253.896,670.657,255.576,671.331,257.277z"/>
			<path style="fill:#352937;" d="M709.524,511.064c-4.87,4-34.74-4.69-44.66-6.17c-0.76-0.12-1.51-0.23-2.24-0.34
				c-15.93-2.44-89.3-10.57-85.1-27.86c-0.97-2.44-1.95-12.51-2.12-23.92c0.03,0.11,0.07,0.2,0.1,0.29
				c4.48,11.4,35.6,7.4,44.35-12.51c0.3-0.67,0.56-1.38,0.8-2.11c1.34-4.19,7.667-72,11.917-123c-0.411,7.883,2.998-9.505,5-4.833
				c12.2,28.465,59.206,25.794,53.353,5.243c1.67,6.55,2.87,11.92,3.81,16.99c4.99,26.94,10.69,63.18,15.21,95.61
				c1.03,7.41,1.87,15.08,2.56,22.44c0.27,3.01,0.56,5.96,0.76,8.85C714.554,477.944,716.834,505.074,709.524,511.064z"/>
			<path style="fill:#1F1921;" d="M576.347,445.912c0.842,13.892,7.557,46.033,37.057,51.033s3,8.5,3,8.5s-38.5-7.5-42.5-14.5
				s-6.5-28-6.5-30s0-21,1.5-23S576.347,445.912,576.347,445.912z"/>
			<ellipse style="opacity:0.4;fill:#8271A8;" cx="614.07" cy="297.778" rx="26.77" ry="28.814"/>
			<path style="fill:#5B4957;" d="M589.404,261.944c5.004-6.187,10.5-10.75,26.5-14.75c13.419-3.355,28-5.75,24.5-16.75
				s-9.75-9.25-16.75-9.5s-36.427,21.259-42.25,26.25c-8.75,7.5-8.5,21.5-9.25,30.5s1.75,36.5,1.75,36.5
				S575.654,278.944,589.404,261.944z"/>
			<path style="fill:#FFFFFF;" d="M632.219,218.432c4.651,13.845,5.866,18.972-22.88,24.917
				c-14.303,2.958-22.766,11.226-27.709,20.826c-2.763,5.366-5.527,6.53-4.689,0.754c1.366-9.415,3.673-19.318,7.463-28.618
				c3.094-7.591,8.836-17.888,13.777-19.858c6.853-2.732,14.688-8.674,18.441-8.983C628.21,206.518,631.283,215.644,632.219,218.432
				z"/>
			<g>
				<path style="fill:#8E3925;" d="M619.858,143.566"/>
				<path style="fill:#8E3925;" d="M605.813,139.911"/>
			</g>
			<path style="fill:#FFB287;" d="M600.76,232.582c-1.92,0.581-3.688,1.263-5.304,1.995c-8.84,4.04-13.033,9.824-13.033,9.824
				l-3.511-14.624l-0.329-1.312l-0.934-3.436l-0.783-2.904l-0.101-0.328l-1.339-4.926l-0.353-1.263l-3.511-12.73
				c0,0,9.017-3.056,11.694,0.985c0.152,0.227,0.278,0.429,0.429,0.631c2.172,3.182,3.915,5.051,6.314,6.112
				c1.036,0.48,2.172,0.783,3.536,1.01c0.429,0.077,0.884,0.127,1.338,0.178c11.265,1.186,25.257-7.476,25.257-7.476
				s0.682,0.783,1.692,2.651c0.909,1.793,2.172,4.596,3.41,8.613C627.381,222.782,624.552,225.535,600.76,232.582z"/>
			
				<path style="fill:none;stroke:#FFFFFF;stroke-width:42.4846;stroke-linecap:round;stroke-linejoin:round;stroke-miterlimit:10;" d="
				M613.148,302.191l-32.41,112.92c-1.079,11.74-15.934,14.621-25.2,14.61l-82.989-14.277"/>
		</g>
		<g>
			<path style="fill:#574046;" d="M594.213,198.606l0.702,6.382c-20.094,5.188-40.817-6.562-46.005-26.657l5.464-23.935
				c-9.694-16.51,0.757-20.437-12.209-32.632c-3.631-3.415-1.613-16.832,12.274-24.605c7.407-4.146,20.488-6.009,32.792-5.396
				c31.847,1.586,55.155,6.586,57.732,47.47c1.484,23.555-14.407,42.405-27.554,46.731
				C603.195,190.639,608.244,195.255,594.213,198.606z"/>
			<path style="fill:#FFB287;" d="M628.344,185.594c-2.41,6.71-8.99,9.18-4.7,24.94c0.11,0.49,0.27,0.99,0.4,1.51
				c0.59-0.05-19.26,12.45-19.44,12.51c-1.64,0.47-0.41-13.62-8.56-9.16c-2.5,1.38-4.92,2.95-7.59,4.46
				c-3.01,1.77-6.31,3.49-10.38,4.86c-5.49,1.86-12.35,3.01-21.7,2.66c-1.52-0.06-2.82-0.27-3.96-0.63
				c-1.53-0.46-2.71-1.14-3.62-2.06c-2.2-2.07-2.94-5.25-3.23-8.98c-0.1-1.45-0.14-2.97-0.19-4.55c0-0.28,0-0.58-0.02-0.89
				c-0.03-1.7-0.06-3.43-0.16-5.16c-0.03-0.58-0.52-1.03-1.12-1.44c-1.36-0.93-3.43-1.69-3.2-3.68c0.26-2.2,0.42-4.01,0.35-5.26
				c-0.01-0.18-0.02-0.33-0.06-0.44c-0.33-1.14-10.18-3.09-10.18-3.09c-1.81-0.54-3.31-2.49-3.15-4.89c0.07-1.11,0.5-2.31,1.42-3.5
				l6.81-9.23l3.53-4.8c0.13-0.24,0.15-0.52,0.27-0.77c0.19-0.46,0.39-0.9,0.5-1.32c0.27-0.79,0.4-1.46,0.46-2.09
				c0.36-3.85-2.36-5.58-2.83-8.59c-0.05-0.33-0.1-0.66-0.06-1.07c-0.01-0.23,0.04-0.45,0.06-0.68c0-0.02,0-0.04,0.01-0.06
				c0.03-0.3,0.07-0.63,0.13-0.96c0.32-2.23,1.01-4.94,1-6.84c0.01-3.14-0.22-10.03-0.22-10.03c0.41-19.94,7.3-19.67,21.39-22.84
				l35.31-8.07c15.53-1.03,29.22,10.6,30.26,26.13l3.27,47.71C629.324,181.874,628.974,183.874,628.344,185.594z"/>
			<path style="fill:#F58D6C;" d="M551.237,170.278c12.833-4,30.167-10.083,32.167-10.583s0.5-2.625,0.5-2.625l-28.375,6.375
				L551.237,170.278z"/>
			<path style="fill:#F58D6C;" d="M549.279,170.882c-4.909,1.075-4.938,6.5-8.375,9.875c-2.698,2.648-3.5-3.192-4.25-5.692
				c0,0-0.23-0.57-0.59-1.49l3.53-4.8c0.13-0.24,0.15-0.52,0.27-0.77c0.19-0.46,0.39-0.9,0.5-1.32c0.27-0.79,0.4-1.46,0.46-2.09
				c0.36-3.85-2.36-5.58-2.83-8.59c-0.05-0.33-0.1-0.66-0.06-1.07c-0.01-0.23,0.04-0.45,0.06-0.68c0-0.02,0-0.04,0.01-0.06
				c1.98-0.25,4.08-0.2,5.15,0.63c2.25,1.74,7.75,5.62,8.63,6.37C552.654,161.944,559.841,168.569,549.279,170.882z"/>
			<path style="fill:#574046;" d="M556.248,101.17c0.77,1.723-10.463,15.956-5.576,14.453c10.626-3.267,7.488,5.874,8.903,13.671
				c1.306,7.196,19.506,4.979,21.338,20.637c0.446,3.814,0.653,16.449,2.122,23.122c0.881,4.004,2.514,3.901,4.094,3.947
				c6.133,0.178,5.578-5.854,6.942-22.751c0.36-4.459,14.431,0.787,14.431,0.787l-2.173,18.464c0,0,0.64-5.449,4.83,1.393
				c3.92,6.403,7.396,22.971,10.917,21.637c14.538-5.508,11.823-79.411,11.823-79.411l-29.072-16.465l-31.42,3.521L556.248,101.17z"
				/>
			<path style="fill:#F58D6C;" d="M561.354,161.66c0,0,0,0-4.004,2.323c-4.041,2.301-6.533,4.408-10.558,0.797
				c-2.191-1.976-4.35-2.785-5.938-2.576c0.357-3.846-2.34-5.576-2.834-8.565c-0.048-0.334-0.076-0.685-0.04-1.089
				c-0.001-0.213,0.02-0.444,0.059-0.674c0.029-0.327,0.425,0.264,0.475-0.081c2.938-0.788,3.71-1.218,6.943-0.721
				C552.939,152.197,561.354,161.66,561.354,161.66z"/>
			<path style="fill:#FFF9EE;" d="M554.867,164.485c-0.465,0.488,1.038,0.718,1.038,0.718s-2.847,4.302-6.174,3.696
				c-3.328-0.605-1.556-5.205-1.556-5.205L554.867,164.485z"/>
			<path style="fill:#352937;" d="M547.453,162.551c-0.966,0.314-1.09,1.772-1.101,1.874c-0.19,1.857,0.994,4.338,3.188,4.928
				c0.714,0.193,1.378-0.278,1.691-0.773C552.383,166.761,550.623,161.52,547.453,162.551z"/>
			<path style="fill:#FFB287;" d="M552.079,157.271c-4.882-0.952-5.79,6.122-5.879,6.51c0,0,0.999-1.971,9.365,1.187
				C556.889,165.467,557.97,158.419,552.079,157.271z"/>
		</g>
		<g>
			<path style="fill:#574046;" d="M539.51,159.245c-1.498,0.066-2.956-0.766-3.616-2.215c-0.868-1.904-0.028-4.151,1.876-5.019
				c3.563-1.624,14.686-0.132,19.963,1.592c1.989,0.649,1.356-0.834,0.705,1.155c-0.649,1.99-2.79,3.075-4.778,2.424
				c-2.643-0.862-9.983,0.464-12.746,1.724C540.457,159.114,539.982,159.224,539.51,159.245z"/>
		</g>
		<path style="fill:#FFB287;" d="M543.484,210.281c0.182,0.244,0.393,0.44,0.606,0.61c0.477,0.346,0.99,0.569,1.543,0.92
			c0.894,0.508,1.89,1.305,2.993,3.201c0.221,0.375,0.44,0.774,0.677,1.251c2.452,5.054,6.013-0.924,6.128-2.258
			c0.113-1.309-8.096-10.717-8.096-10.717c-1.141,0.003-2.187,0.369-3.005,1.033C542.541,205.661,541.767,208.154,543.484,210.281z"
			/>
		<path style="fill:#D6755B;" d="M554.711,200.017c1.597,0.94-7.049,4.697-10.857,4.604c-1.194-0.892-2.826-1.57-2.904-3.554
			c1.443,0.127,2.858,0.349,4.266,0.646C546.738,202.04,553.24,199.151,554.711,200.017z"/>
		<path style="fill:#FFB287;" d="M557.766,133.531c-0.506-3.437,31.095,19.902,17.114,5.646
			c-18.343-18.703-0.58-30.595,2.809-32.397c0,0-25.542,3.995-33.837,12.282c-7.748,7.74,1.699,17.435,2.501,17.505
			C547.154,136.638,557.766,133.531,557.766,133.531z"/>
	</g>
	<path style="fill:#F58D6C;" d="M591.624,211.412c-0.683,2.907-1.693,5.785-3.166,8.447c-2.11,3.874-5.17,7.285-9.536,9.694
		l-0.214-1.336l-0.634-3.504c-5.485,1.857-12.354,3.011-21.703,2.656c-1.517-0.055-2.817-0.269-3.952-0.621
		c-1.532-0.462-2.714-1.148-3.624-2.063c0.327,0.028,0.721,0.164,1.205,0.434c2.054,1.167,15.869-2.325,26.322-10.014
		c3.923-2.854,7.366-6.307,9.54-10.327c1.355-2.468,2.22-5.132,2.42-8.03c1.418-20.159,3.582-8.563,3.582-8.563
		S594.318,199.933,591.624,211.412z"/>
	<path style="fill:#F58D6C;" d="M595.456,234.577c-8.84,4.04-13.033,9.824-13.033,9.824l-3.511-14.624l-0.329-1.312l-0.934-3.436
		l-0.783-2.904l12.199-10.482C590.177,218.211,593.713,229.324,595.456,234.577z"/>
	<path style="fill:#574046;" d="M539.552,201.238c-4.928-1.121-1.429-8.681-1.429-8.681s7.649-0.921,11.683,0.063
		c4.034,0.984,5.664,7.78,6.84,8.832C556.646,201.452,542.725,201.96,539.552,201.238z"/>
</g>
<path style="display:inline;fill:#574046;" d="M593.339,92.118c3.227-0.557,28.854-2.851,42.199,13.027s14.75,34.403,5.774,53.03
	s-22.705-31.412-22.705-31.412L593.339,92.118z"/>
<path style="display:inline;fill:#FFB287;" d="M461.044,402.384c-0.18,0.12-0.48,0.17-0.84,0.19c0.26-0.08,0.5-0.15,0.7-0.2
	C460.954,402.384,460.994,402.384,461.044,402.384z"/>
<g style="display:inline;">
	<polygon style="fill:#B59885;" points="338.404,492.966 338.404,544.182 174.283,543.965 174.283,492.748 	"/>
	<rect x="197.553" y="472.887" style="fill:#87A143;" width="138.708" height="54.057"/>
	<rect x="202.062" y="469.43" style="fill:#EADDCA;" width="129.533" height="54.057"/>
	<polygon style="fill:#FFF9EE;" points="331.595,442.966 331.595,494.182 202.283,493.965 202.283,442.748 	"/>
	<rect x="195.064" y="465.861" style="fill:#D2DD37;" width="7.157" height="49.883"/>
	<rect x="331.595" y="465.861" style="fill:#8BBC57;" width="7.157" height="49.883"/>
	<polygon style="fill:#B2947A;" points="324.021,503.6 308.592,516.237 225.223,516.237 209.794,503.6 202.221,503.6 
		202.221,525.139 331.94,525.386 331.94,503.6 	"/>
	<polygon style="fill:#8BBC57;" points="324.021,509.267 308.592,521.905 225.223,521.905 209.794,509.267 195.064,509.267 
		195.064,531.054 338.751,531.054 338.751,509.267 	"/>
	<polygon style="fill:#48722E;" points="324.021,515.605 308.592,528.243 225.223,528.243 209.794,515.605 195.064,515.605 
		195.064,537.391 338.751,537.391 338.751,515.605 	"/>
	<polygon style="opacity:0.5;fill:#9E938F;" points="286.007,502.413 318.586,517.198 327.936,502.413 	"/>
	<polygon style="fill:#515727;" points="202.221,509.267 195.064,507.778 195.064,465.861 202.221,465.861 	"/>
	<polygon style="fill:#FFF9EE;" points="286.323,502.413 324.935,511.399 328.252,502.413 	"/>
</g>
<path style="display:inline;fill:#F9436E;" d="M243.07,153.111c0.333-9.667,4.333-16.167,11.583-16.667
	c0,0,1.083,21.667,6.083,32.333c0,0-11.833,3.667-10,18L243.07,153.111z"/>
<path style="display:inline;fill:#D8E533;" d="M250.987,183.778c6.083-9.667,10.167-8.417,17.417-8.917c0,0,1.25,22.25,3,34.25
	c0,0-10.333-8.667-12.75,8.333L250.987,183.778z"/>
<g style="display:inline;">
	<path style="fill:#B59885;" d="M388.807,527.657l26.871,0.002c7.406,0,13.41-6.003,13.41-13.409v0
		c0-7.405-6.003-13.408-13.408-13.409l-26.871-0.002c-7.406-0.001-13.41,6.003-13.41,13.409l0,0
		C375.399,521.654,381.402,527.657,388.807,527.657z"/>
	<g>
		<g>
			<g>
				<path style="fill:#FFFBF3;" d="M431.457,508.09l-0.681,7.115c0.011,1.867-0.846,3.602-2.328,5.062
					c-2.218,2.229-5.864,3.887-10.146,4.458c-1.12,0.143-2.284,0.231-3.481,0.231c-0.022,0-0.022,0-0.022,0
					c-3.7,0-7.115-0.78-9.817-2.075c-3.723-1.779-6.149-4.557-6.149-7.676l-0.67-7.115l8.071-18.338l-4.041-10.849l12.606,0.681
					l12.189,3.173l0.176,1.373l2.789,12.507L431.457,508.09z"/>
				<path style="fill:#E04336;" d="M434.301,478.508l-0.154,2.009l-0.154,1.471l-2.119,20.545l-0.417,5.556
					c-2.394,3.14-7.083,5.49-12.738,6.237c-1.263,0.176-2.559,0.264-3.898,0.264h-0.011c-7.379,0-13.737-2.679-16.647-6.501
					l-2.844-29.582l19.491,1.054L434.301,478.508z"/>
				<path style="opacity:0.4;fill:#8271A8;" d="M404.978,522.875c-3.725-1.776-6.132-4.551-6.132-7.672l-0.68-7.116l-2.847-29.57
					l6.883,0.375c-0.085,4.064-0.241,8.212-0.241,8.212L404.978,522.875z"/>
				<path style="fill:#DDD3B8;" d="M436.144,476.706c0,7.2-9.552,13.037-21.334,13.037c-11.783,0-21.335-5.837-21.335-13.037
					l0-4.319c0,0,18.574-7.658,18.648-7.411c0.074,0.247,24.003,6.943,24.003,6.943l0,0L436.144,476.706z"/>
				<path style="fill:#F9F2E4;" d="M436.14,472.386c0,7.196-9.543,13.04-21.336,13.04c-11.781,0-21.325-5.845-21.325-13.041
					c0-0.557,0.058-1.113,0.174-1.656c1.322-6.416,10.285-11.384,21.151-11.384C426.596,459.346,436.14,465.191,436.14,472.386z"/>
				<path style="opacity:0.4;fill:#8271A8;" d="M406.791,481.571c-3.513-0.96-9.462-5.984-13.138-10.842
					c1.322-6.416,10.285-11.384,21.151-11.384c0.197,0.89,3.49,10.799,3.49,10.799l-9.357,8.378
					C408.333,480.054,411.035,482.726,406.791,481.571z"/>
				<path style="fill:#DDD3B8;" d="M397.219,465.675l0,6.332c0,5.936,7.876,10.749,17.59,10.749c9.715,0,17.59-4.812,17.59-10.749
					l0-7.031l-34.905,0.699"/>
				<path style="fill:#FFFBF3;" d="M397.219,465.675c0-5.936,7.875-10.749,17.59-10.749c9.715,0,17.59,4.813,17.591,10.749
					c0,5.937-7.875,10.749-17.59,10.749C405.095,476.424,397.219,471.612,397.219,465.675z"/>
				<path style="opacity:0.6;fill:none;stroke:#463E4C;stroke-width:2.6477;stroke-linecap:round;stroke-miterlimit:10;" d="
					M405.178,470.139c1.077,0.529,2.334,0.997,3.756,1.352"/>
			</g>
			<path style="opacity:0.4;fill:#8271A8;" d="M398.715,513.893l0.124,1.314c0,3.115,2.419,5.892,6.145,7.672
				c2.702,1.293,6.11,2.077,9.818,2.077c0,0,0,0,0.018,0c1.201,0,2.366-0.085,3.479-0.233c4.291-0.572,7.928-2.225,10.153-4.45
				c1.483-1.462,2.331-3.2,2.331-5.065l0.212-2.31c-0.406,1.865-1.148,3.878-2.543,5.256c-2.242,2.204-5.862,3.878-10.153,4.451
				c-1.112,0.148-2.278,0.233-3.479,0.233c-0.018,0-0.018,0-0.018,0c-3.708,0-7.116-0.784-9.818-2.077
				C401.611,519.149,399.139,516.648,398.715,513.893l-0.071-0.869C398.644,513.321,398.662,513.597,398.715,513.893
				L398.715,513.893z"/>
		</g>
	</g>
</g>
<line style="display:inline;fill:none;stroke:#667D7F;stroke-width:2;stroke-linecap:round;stroke-miterlimit:10;" x1="544.614" y1="165.324" x2="594.154" y2="155.194"/>
<line style="display:inline;fill:none;stroke:#667D7F;stroke-width:3;stroke-linecap:round;stroke-miterlimit:10;" x1="539.466" y1="166.377" x2="544.614" y2="165.324"/>
<path style="display:inline;fill:#FFB287;" d="M591.264,160.215c3.227-11.766,13.486-16.239,19.908-6.746
	c5.51,8.146-5.574,27.364-13.684,26.29C589.378,178.686,591.264,160.215,591.264,160.215z"/>
<g style="display:inline;">
	<path style="fill:#CBEFFA;" d="M537.521,181.276L537.521,181.276c-1.982,0.109-3.76-1.492-4.18-3.764l-1.722-9.312
		c-0.519-2.807,1.217-5.453,3.666-5.587l0,0c1.982-0.109,3.01,1.934,3.43,4.207l2.471,8.869
		C541.707,178.496,539.971,181.142,537.521,181.276z"/>
</g>
<path style="display:inline;fill:#667D7F;" d="M537.524,181.274c-0.23,0.01-0.46,0-0.69-0.03c1.1-1.05,1.68-2.77,1.35-4.56
	l-1.72-9.31c-0.19-1.04-0.67-1.94-1.33-2.59c-0.6-0.62-1.35-1.02-2.16-1.14c0.63-0.6,1.42-0.98,2.31-1.03
	c0.85-0.05,1.67,0.22,2.35,0.72c0.91,0.67,1.59,1.75,1.83,3.04l1.72,9.31C541.704,178.494,539.974,181.144,537.524,181.274z"/>
<path style="display:inline;fill:#FFFFFF;" d="M537.634,163.334c-0.8,0.36-1.72,0.93-2.5,1.45c-0.6-0.62-1.35-1.02-2.16-1.14
	c0.63-0.6,1.42-0.98,2.31-1.03C536.134,162.564,536.954,162.834,537.634,163.334z"/>
<polygon style="display:inline;fill:#FFFFFF;" points="262.604,255.324 262.074,256.444 262.074,295.444 246.074,223.514 
	246.074,181.024 "/>
</svg>
