<?xml version="1.0" encoding="utf-8"?>
<!-- Generator: Adobe Illustrator 27.5.0, SVG Export Plug-In . SVG Version: 6.00 Build 0)  -->
<svg version="1.1" xmlns="http://www.w3.org/2000/svg" xmlns:xlink="http://www.w3.org/1999/xlink" x="0px" y="0px"
	 viewBox="0 0 500 500" style="enable-background:new 0 0 500 500;" xml:space="preserve">
<g id="Floor">
	<path id="Floor_7_" style="fill:#F5F5F5;" d="M90.509,402.975c89.784,46.904,235.354,46.905,325.137,0.001
		c89.785-46.905,89.785-122.952,0-169.855c-89.784-46.904-235.354-46.904-325.138-0.001C0.724,280.024,0.724,356.071,90.509,402.975
		z"/>
</g>
<g id="Shadows">
	<path id="Shadow_2_" style="fill:#E0E0E0;" d="M166.845,370.69l82.536,47.652c1.561,0.901,4.091,0.902,5.653,0.003l157.968-91.015
		c1.561-0.9,1.562-2.359,0.001-3.26l-82.703-47.748c-1.561-0.901-4.091-0.901-5.651,0l-157.805,91.106
		C165.285,368.328,165.285,369.789,166.845,370.69z"/>
	<path id="Shadow_1_" style="fill:#E0E0E0;" d="M64.947,276.315l43.194,24.826c1.562,0.898,4.094,0.895,5.654-0.006l51.818-29.917
		c1.561-0.901,1.561-2.362,0-3.263l-42.944-24.793c-1.561-0.901-4.092-0.904-5.655-0.006l-52.067,29.907
		C63.385,273.962,63.384,275.417,64.947,276.315z"/>
</g>
<g id="Plants">
	<g id="Plants_9_">
		<g id="XMLID_15723_">
			<g id="XMLID_15728_">
				<path id="XMLID_15730_" style="fill:#27DEBF;" d="M409.526,293.655c-0.239-0.097-0.996-16.275,5.965-25.808
					c6.96-9.532,15.397-10.632,20.939-8.306c5.542,2.326,4.405,8.011-2.416,11.421c-6.821,3.411-15.313,9.379-17.337,20.256
					L409.526,293.655z"/>
			</g>
			<g id="XMLID_524_">
				<path id="XMLID_15285_" style="opacity:0.1;" d="M409.526,293.655c-0.239-0.097-0.996-16.275,5.965-25.808
					c6.96-9.532,15.397-10.632,20.939-8.306c5.542,2.326,4.405,8.011-2.416,11.421c-6.821,3.411-15.313,9.379-17.337,20.256
					L409.526,293.655z"/>
			</g>
			<g id="XMLID_15724_">
				<path id="XMLID_15726_" style="fill:#FFFFFF;" d="M412.088,288.914c0.251,0,0.472-0.183,0.512-0.438
					c2.613-16.426,12.324-24.475,20.542-26.53c0.278-0.07,0.448-0.352,0.378-0.63c-0.069-0.279-0.352-0.447-0.63-0.378
					c-8.54,2.136-18.624,10.449-21.316,27.376c-0.045,0.283,0.148,0.549,0.431,0.595
					C412.033,288.912,412.061,288.914,412.088,288.914z"/>
			</g>
		</g>
		<g id="XMLID_15714_">
			<g id="XMLID_15721_">
				<path id="XMLID_15722_" style="fill:#27DEBF;" d="M410.782,323.691c1.059-4.262,5.353-7.079,10.421-7.536
					c5.262-0.474,11.392-0.991,13.023-5.443c1.63-4.451-0.016-10.466,0.735-13.425c0.906-3.572,2.276-5.706,9.192-7.877
					c6.2-1.947,9.625-7.873,3.375-10.374c-6.25-2.501-12.501-0.917-16.751,0.978c-4.25,1.896-4.443,3.911-10.422,3.396
					c-5.978-0.516-10.454,3.25-10.829,6.875L410.782,323.691z"/>
			</g>
			<g id="XMLID_15719_">
				<path id="XMLID_15720_" style="fill:#FFFFFF;" d="M410.782,309.23c0.213,0,0.413-0.132,0.489-0.344
					c4.919-13.71,25.038-26.108,31.722-26.899c0.285-0.034,0.489-0.291,0.455-0.576c-0.034-0.285-0.29-0.498-0.577-0.454
					c-6.87,0.813-27.536,13.526-32.578,27.579c-0.097,0.27,0.044,0.567,0.314,0.665C410.664,309.22,410.724,309.23,410.782,309.23z"
					/>
			</g>
			<g id="XMLID_15717_">
				<path id="XMLID_15718_" style="fill:#FFFFFF;" d="M415.49,300.996c0.039,0,0.078-0.004,0.118-0.013
					c0.28-0.065,0.453-0.344,0.389-0.624c-1.654-7.138-0.035-11.741-0.018-11.787c0.098-0.269-0.041-0.567-0.31-0.666
					c-0.269-0.097-0.567,0.041-0.666,0.31c-0.072,0.197-1.747,4.916-0.018,12.379C415.04,300.834,415.254,300.996,415.49,300.996z"
					/>
			</g>
			<g id="XMLID_15715_">
				<path id="XMLID_15716_" style="fill:#FFFFFF;" d="M412.088,306.258c0.084,0,0.168-0.02,0.247-0.063
					c4.038-2.191,12.798-0.627,12.887-0.611c0.281,0.048,0.553-0.136,0.604-0.418c0.052-0.282-0.135-0.553-0.418-0.605
					c-0.374-0.067-9.207-1.645-13.569,0.72c-0.252,0.137-0.346,0.453-0.209,0.704C411.724,306.16,411.903,306.258,412.088,306.258z"
					/>
			</g>
		</g>
	</g>
</g>
<g id="Cabinet">
	<g id="Cabinet_2_">
		<g id="XMLID_14715_">
			<g id="XMLID_14751_">
				<polygon id="XMLID_15426_" points="160.177,268.975 152.007,264.258 160.177,261.899 				"/>
			</g>
			<g id="XMLID_14737_">
				<polygon id="XMLID_15408_" points="111.147,290.206 111.147,297.729 66.204,271.78 66.205,264.258 				"/>
			</g>
			<g id="XMLID_14734_">
				<polygon id="XMLID_15401_" style="fill:#263238;" points="62.118,205.284 107.062,231.232 107.063,292.565 62.118,266.617 				
					"/>
			</g>
			<g id="XMLID_14733_">
				<polygon id="XMLID_15399_" style="fill:#37474F;" points="107.062,231.232 168.349,195.848 168.349,257.181 107.063,292.565 
									"/>
			</g>
			<g id="XMLID_14785_">
				<polygon id="XMLID_15397_" style="fill:#455A64;" points="168.349,195.848 123.405,169.9 62.118,205.284 107.062,231.232 				
					"/>
			</g>
			<g id="XMLID_14731_">
				<g id="XMLID_14732_">
					<polygon id="XMLID_15389_" style="fill:#455A64;" points="111.147,233.591 164.265,202.925 164.265,217.078 111.147,247.745 
											"/>
				</g>
				<g id="XMLID_14774_">
					<path id="XMLID_15386_" style="fill:#263238;" d="M131.577,222.976c0,0.651,1.95,0.054,4.355-1.335l7.632-4.406
						c2.405-1.389,4.356-3.043,4.356-3.694l0.001-1.18l-16.343,9.435C131.577,221.796,131.577,222.324,131.577,222.976z"/>
				</g>
			</g>
			<g id="XMLID_14728_">
				<g id="XMLID_14730_">
					<polygon id="XMLID_15383_" style="fill:#455A64;" points="111.147,252.463 164.265,221.796 164.265,235.95 111.147,266.617 
											"/>
				</g>
				<g id="XMLID_14729_">
					<path id="XMLID_15381_" style="fill:#263238;" d="M131.577,241.848c0,0.652,1.95,0.054,4.355-1.335l7.632-4.406
						c2.405-1.389,4.356-3.043,4.356-3.694l0.001-1.18l-16.343,9.435C131.577,240.668,131.577,241.196,131.577,241.848z"/>
				</g>
			</g>
			<g id="XMLID_14722_">
				<g id="XMLID_14726_">
					<polygon id="XMLID_15378_" style="fill:#455A64;" points="111.147,271.335 164.265,240.668 164.265,254.822 111.147,285.489 
											"/>
				</g>
				<g id="XMLID_14724_">
					<path id="XMLID_15376_" style="fill:#263238;" d="M131.577,260.72c0,0.651,1.95,0.054,4.355-1.335l7.632-4.406
						c2.405-1.389,4.356-3.043,4.356-3.694l0.001-1.18l-16.343,9.435C131.577,259.54,131.577,260.068,131.577,260.72z"/>
				</g>
			</g>
			<g id="XMLID_14721_">
				<polygon id="XMLID_15373_" style="fill:#263238;" points="111.147,297.729 115.234,295.37 115.234,287.847 111.147,290.206 				
					"/>
			</g>
			<g id="XMLID_14720_">
				<polygon id="XMLID_15371_" style="fill:#263238;" points="160.177,268.975 164.264,266.616 164.264,259.54 160.177,261.899 				
					"/>
			</g>
		</g>
		<g id="XMLID_521_">
			<g id="XMLID_523_">
				<path id="XMLID_15283_" style="fill:#E0E0E0;" d="M105.137,226.131l24.437-14.146c0.481-0.278,0.479-0.727-0.004-1.001
					l-33.507-19.062c-0.483-0.275-1.264-0.272-1.745,0.006l-24.212,13.979c-0.481,0.278-0.481,0.728,0,1.006l33.29,19.22
					C103.876,226.41,104.656,226.409,105.137,226.131z"/>
			</g>
			<g id="XMLID_522_">
				<path id="XMLID_15281_" style="fill:#F5F5F5;" d="M70.083,205.869l27.496-17.478c0.469-0.298,1.239-0.314,1.72-0.037
					l9.904,5.718c0.481,0.278,0.666,0.904,0.413,1.398l-0.403,0.786c-0.253,0.495-0.069,1.122,0.411,1.401l19.95,11.614
					c0.48,0.28,0.491,0.75,0.023,1.051l-24.486,15.767c-0.467,0.301-1.236,0.32-1.717,0.042l-33.29-19.22
					C69.624,206.633,69.614,206.167,70.083,205.869z"/>
			</g>
		</g>
		<g id="XMLID_402_">
			<g id="XMLID_15201_">
				<path id="XMLID_15290_" style="fill:#27DEBF;" d="M127.392,135.027c-0.221-0.128-0.421-0.14-0.565-0.057
					c-0.145,0.084-0.616,0.356-0.616,0.356l0.382,39.515c0,0.511,0.359,1.132,0.801,1.387l30.929,17.857l-0.014-41.21
					L127.392,135.027z"/>
				<path id="XMLID_15289_" style="opacity:0.2;" d="M127.392,135.027c-0.221-0.128-0.421-0.14-0.565-0.057
					c-0.145,0.084-0.616,0.356-0.616,0.356l0.382,39.515c0,0.511,0.359,1.132,0.801,1.387l30.929,17.857l-0.014-41.21
					L127.392,135.027z"/>
				<path id="XMLID_15287_" style="fill:#27DEBF;" d="M126.791,135.374c-0.442-0.255-0.801-0.048-0.801,0.462l0.001,39.352
					c0,0.511,0.359,1.132,0.801,1.387l30.929,17.857l-0.014-41.21L126.791,135.374z"/>
				<path id="XMLID_15286_" style="opacity:0.5;" d="M126.791,135.374c-0.442-0.255-0.801-0.048-0.801,0.462l0.001,39.352
					c0,0.511,0.359,1.132,0.801,1.387l30.929,17.857l-0.014-41.21L126.791,135.374z"/>
				<g id="XMLID_15274_">
					<path id="XMLID_15284_" style="fill:#EBEBEB;" d="M150.12,190.6l-22.892-13.224c-0.442-0.255-0.801-0.876-0.801-1.387
						l-0.001-36.296l-2.991-1.712l3.054-1.763l0.056,0.032c0.139-0.195,0.386-0.245,0.681-0.074l26.218,15.144l0.014,41.21
						l-3.337,1.926L150.12,190.6z"/>
					<path id="XMLID_15282_" style="fill:#FAFAFA;" d="M123.89,138.101c-0.442-0.255-0.801-0.048-0.801,0.462l0.001,39.352
						c0,0.511,0.359,1.132,0.801,1.387l26.231,15.152l-0.014-41.21L123.89,138.101z"/>
					<polygon id="XMLID_15280_" style="fill:#E6E6E6;" points="150.108,153.244 153.445,151.318 153.459,192.528 150.122,194.454 
											"/>
					<path id="XMLID_15279_" style="fill:#263238;" d="M149.017,154.364c-0.006-0.103-0.02-0.202-0.06-0.307
						c-0.046-0.155-0.134-0.307-0.244-0.404c-0.036-0.044-0.075-0.074-0.122-0.1c-0.232-0.144-0.427,0.001-0.424,0.32
						c0.004,0.137,0.038,0.288,0.104,0.421c0.077,0.169,0.193,0.316,0.322,0.391c0.017,0.011,0.034,0.023,0.055,0.021
						C148.861,154.796,149.018,154.662,149.017,154.364z"/>
					<path id="XMLID_15275_" style="fill:#263238;" d="M153.648,156.357c0.473-0.273,0.796-0.62,0.95-1.018
						c0.166-0.416,0.13-0.865-0.101-1.266c-0.005-0.008-0.005-0.008-0.005-0.008c-0.176-0.304-0.461-0.577-0.843-0.794
						c-0.064-0.038-0.133-0.083-0.206-0.116l0.002,0.522c1.074,0.64,1.06,1.652-0.029,2.28c-1.089,0.629-2.87,0.632-3.961,0.002
						c-0.592-0.341-0.868-0.801-0.809-1.252c0.012-0.22,0.119-0.442,0.309-0.648c-0.046-0.155-0.134-0.307-0.244-0.404
						c-0.208,0.195-0.361,0.411-0.442,0.64c-0.158,0.411-0.127,0.853,0.109,1.261c0.18,0.312,0.461,0.577,0.848,0.803
						C150.464,157.074,152.407,157.073,153.648,156.357z"/>
				</g>
				<path id="XMLID_15273_" style="fill:#27DEBF;" d="M149.921,157.182l-28.42-19.137l0.435-0.251c0.221-0.128,0.58-0.128,0.801,0
					l27.789,19.04L149.921,157.182z"/>
				<path id="XMLID_15272_" style="opacity:0.2;" d="M149.921,157.182l-28.42-19.137l0.435-0.251c0.221-0.128,0.58-0.128,0.801,0
					l27.789,19.04L149.921,157.182z"/>
				<path id="XMLID_15271_" style="fill:#27DEBF;" d="M122.063,138.103c-0.442-0.255-0.801-0.048-0.801,0.462l0.001,39.352
					c0,0.511,0.359,1.132,0.801,1.387l28.325,19.361l-0.014-41.21L122.063,138.103z"/>
				<g id="XMLID_15202_">
					<polygon id="XMLID_15270_" style="fill:#27DEBF;" points="158.308,152.875 158.322,194.085 150.379,198.671 150.379,157.454 
											"/>
					<polygon id="XMLID_15269_" style="opacity:0.1;" points="158.308,152.875 158.322,194.085 150.379,198.671 150.379,157.454 
											"/>
					<g id="XMLID_15266_">
						<path id="XMLID_15268_" style="fill:#455A64;" d="M156.734,161.915c-0.232-0.401-0.604-0.659-1.049-0.726
							c-0.421-0.064-0.89,0.046-1.357,0.315c-1.24,0.717-2.212,2.401-2.213,3.835c0,0.442,0.091,0.823,0.27,1.134
							c0.466,0.808,1.433,0.973,2.406,0.412c1.242-0.717,2.213-2.402,2.213-3.836C157.005,162.607,156.914,162.226,156.734,161.915
							C156.735,161.916,156.735,161.916,156.734,161.915z"/>
						<path id="XMLID_15267_" style="fill:#F5F5F5;" d="M154.56,161.905c1.094-0.633,1.982-0.12,1.982,1.145
							c0.001,1.265-0.887,2.802-1.982,3.435c-1.095,0.632-1.983,0.12-1.982-1.145C152.579,164.075,153.466,162.537,154.56,161.905z"
							/>
					</g>
					<path id="XMLID_15265_" style="fill:#F5F5F5;" d="M154.171,170.438l0.6-0.347c1.203-0.694,2.178-0.132,2.178,1.257l0,17.861
						c0,1.389-0.975,3.078-2.178,3.772l-0.6,0.347c-1.203,0.694-2.178,0.132-2.178-1.257v-17.861
						C151.994,172.821,152.969,171.132,154.171,170.438z"/>
					<polygon id="XMLID_15264_" style="fill:#27DEBF;" points="157.835,152.597 149.938,157.156 150.379,157.454 158.308,152.875 
											"/>
					<polygon id="XMLID_15228_" style="opacity:0.2;" points="157.835,152.597 149.938,157.156 150.379,157.454 158.308,152.875 
											"/>
				</g>
			</g>
			<g id="XMLID_15138_">
				<g id="XMLID_15196_">
					<path id="XMLID_15200_" style="fill:#27DEBF;" d="M148.507,199.369c0.167-0.097,0.303-0.355,0.303-0.577l-0.014-40.405
						c0-0.222-0.156-0.492-0.349-0.604l-29.424-19.231l-0.603,0.348l0.001,41.201l29.436,19.242
						C148.048,199.454,148.34,199.465,148.507,199.369z"/>
					<path id="XMLID_15199_" style="opacity:0.1;" d="M148.09,158.391l0.601-0.347c0.065,0.113,0.1,0.233,0.106,0.345l0.014,40.399
						c0,0.221-0.138,0.486-0.303,0.581c-0.165,0.096-0.464,0.082-0.655-0.028c0.191,0.11,0.348,0.02,0.348-0.201l-0.005-40.404
						C148.198,158.619,148.155,158.505,148.09,158.391z"/>
					<path id="XMLID_15198_" style="opacity:0.5;" d="M118.42,138.9l29.424,19.227c0.103,0.057,0.185,0.16,0.246,0.265
						c0.065,0.113,0.108,0.228,0.106,0.345l0.005,40.404c0,0.221-0.157,0.311-0.348,0.201l-29.434-19.244L118.42,138.9z"/>
					<path id="XMLID_15197_" style="opacity:0.2;" d="M118.42,138.9l0.603-0.348l29.422,19.228c0.103,0.057,0.185,0.16,0.246,0.265
						l-0.601,0.347c-0.06-0.104-0.143-0.208-0.246-0.265L118.42,138.9z"/>
				</g>
				<g id="XMLID_15193_">
					<polygon id="XMLID_15195_" style="fill:#27DEBF;" points="118.899,139.174 118.913,180.384 110.969,184.97 111.049,143.707 
											"/>
					<polygon id="XMLID_15194_" style="opacity:0.7;" points="118.899,139.174 118.913,180.384 110.969,184.97 111.049,143.707 
											"/>
				</g>
				<g id="XMLID_15153_">
					<path id="XMLID_15192_" style="fill:#EBEBEB;" d="M144.018,201.46c0.241,0.139,0.631,0.139,0.871,0l1.607-0.928
						c0.241-0.139,0.435-0.477,0.435-0.754l-0.014-40.204c0-0.278-0.195-0.616-0.436-0.755l-25.75-15.836l-2.478,1.431l0.002,41.202
						L144.018,201.46z"/>
					<path id="XMLID_15191_" style="fill:#FAFAFA;" d="M118.256,185.616l25.762,15.844c0.241,0.139,0.435,0.026,0.435-0.251
						l-0.014-40.204c0-0.278-0.195-0.616-0.436-0.755l-25.75-15.836L118.256,185.616z"/>
					<path id="XMLID_15190_" style="fill:#263238;" d="M120.149,147.233c-0.006-0.103-0.021-0.202-0.06-0.307
						c-0.047-0.155-0.134-0.307-0.244-0.404c-0.036-0.044-0.075-0.074-0.122-0.1c-0.232-0.143-0.427,0.001-0.424,0.32
						c0.004,0.136,0.038,0.288,0.104,0.421c0.076,0.169,0.193,0.316,0.322,0.391c0.017,0.011,0.034,0.023,0.055,0.021
						C119.993,147.665,120.151,147.531,120.149,147.233z"/>
					<path id="XMLID_15189_" style="fill:#E6E6E6;" d="M144.304,160.577l2.483-1.433c0.08,0.139,0.135,0.294,0.134,0.434
						l0.016,40.201c-0.001,0.279-0.202,0.616-0.437,0.752l-1.612,0.93c-0.2,0.116-0.515,0.135-0.75,0.049
						c0.179,0.048,0.312-0.064,0.316-0.298l-0.016-40.201C144.439,160.871,144.394,160.712,144.304,160.577z"/>
					<g id="XMLID_15154_">
						<path id="XMLID_15188_" style="fill:#263238;" d="M114.384,145.185c-0.007,0.598,0.343,1.133,0.992,1.508
							c1.089,0.628,2.81,0.718,4.389,0.31c-0.08-0.201-0.179-0.448-0.221-0.559c-1.41,0.347-2.939,0.277-3.873-0.263
							c-0.206-0.12-0.438-0.295-0.576-0.533c-0.076-0.132-0.124-0.283-0.121-0.454c0.008-0.554,0.533-1.165,1.404-1.633
							c1.673-0.901,4.078-1.033,5.359-0.293c0.244,0.14,0.521,0.36,0.639,0.665l0.646,0.376c0.001-0.015,0.001-0.031,0.001-0.046
							c0.004-0.268-0.065-0.523-0.2-0.757c-0.167-0.288-0.433-0.544-0.792-0.751c-1.463-0.845-4.07-0.72-5.935,0.285
							C115.021,143.62,114.396,144.402,114.384,145.185z"/>
					</g>
				</g>
				<g id="XMLID_15148_">
					<path id="XMLID_15152_" style="fill:#27DEBF;" d="M143.464,202.281c0.167-0.097,0.303-0.355,0.303-0.577l-0.014-40.405
						c0-0.222-0.156-0.492-0.349-0.604l-32.285-17.58l-0.603,0.348l0.001,41.201l32.296,17.59
						C143.005,202.365,143.296,202.377,143.464,202.281z"/>
					<path id="XMLID_15151_" style="opacity:0.1;" d="M143.046,161.303l0.601-0.347c0.065,0.113,0.1,0.233,0.106,0.345l0.014,40.399
						c0,0.221-0.138,0.486-0.303,0.581s-0.464,0.082-0.655-0.028c0.191,0.11,0.348,0.02,0.348-0.201l-0.005-40.404
						C143.155,161.531,143.112,161.417,143.046,161.303z"/>
					<path id="XMLID_15150_" style="fill:#27DEBF;" d="M110.516,143.463l32.285,17.576c0.103,0.057,0.185,0.16,0.246,0.265
						c0.065,0.113,0.108,0.228,0.106,0.345l0.005,40.404c0,0.221-0.157,0.311-0.348,0.201l-32.294-17.592L110.516,143.463z"/>
					<path id="XMLID_15149_" style="opacity:0.2;" d="M110.516,143.463l0.603-0.348l32.283,17.577
						c0.102,0.057,0.185,0.16,0.246,0.265l-0.601,0.347c-0.06-0.104-0.143-0.208-0.246-0.265L110.516,143.463z"/>
				</g>
				<g id="XMLID_15145_">
					<polygon id="XMLID_15147_" style="fill:#27DEBF;" points="118.42,138.9 110.529,143.455 111.049,143.707 118.899,139.174 					
						"/>
					<polygon id="XMLID_15146_" style="opacity:0.2;" points="118.42,138.9 110.529,143.455 111.049,143.707 118.899,139.174 					
						"/>
				</g>
			</g>
			<g id="XMLID_409_">
				<path id="XMLID_15137_" style="fill:#27DEBF;" d="M110.962,144.513c-0.221-0.128-0.421-0.14-0.565-0.057
					c-0.145,0.083-0.616,0.356-0.616,0.356l0.382,39.515c0,0.511,0.359,1.132,0.801,1.387l30.929,17.857l-0.014-41.21
					L110.962,144.513z"/>
				<path id="XMLID_15136_" style="opacity:0.2;" d="M110.962,144.513c-0.221-0.128-0.421-0.14-0.565-0.057
					c-0.145,0.083-0.616,0.356-0.616,0.356l0.382,39.515c0,0.511,0.359,1.132,0.801,1.387l30.929,17.857l-0.014-41.21
					L110.962,144.513z"/>
				<path id="XMLID_15135_" style="fill:#27DEBF;" d="M110.361,144.859c-0.442-0.255-0.801-0.048-0.801,0.462l0.002,39.352
					c0,0.511,0.358,1.132,0.801,1.387l30.929,17.857l-0.014-41.21L110.361,144.859z"/>
				<path id="XMLID_15134_" style="opacity:0.5;" d="M110.361,144.859c-0.442-0.255-0.801-0.048-0.801,0.462l0.002,39.352
					c0,0.511,0.358,1.132,0.801,1.387l30.929,17.857l-0.014-41.21L110.361,144.859z"/>
				<g id="XMLID_15023_">
					<path id="XMLID_15133_" style="fill:#EBEBEB;" d="M133.69,200.085l-22.892-13.224c-0.442-0.255-0.801-0.876-0.801-1.387
						l-0.001-36.297l-2.991-1.712l3.054-1.763l0.056,0.032c0.139-0.194,0.386-0.245,0.681-0.074l26.218,15.144l0.014,41.21
						l-3.337,1.927L133.69,200.085z"/>
					<path id="XMLID_15132_" style="fill:#FAFAFA;" d="M107.459,147.587c-0.442-0.255-0.801-0.048-0.801,0.462l0.002,39.352
						c0,0.511,0.359,1.132,0.801,1.387l26.231,15.152l-0.014-41.21L107.459,147.587z"/>
					<polygon id="XMLID_15076_" style="fill:#E6E6E6;" points="133.677,162.73 137.014,160.804 137.029,202.014 133.692,203.94 
											"/>
					<path id="XMLID_15075_" style="fill:#263238;" d="M132.587,163.85c-0.006-0.103-0.021-0.202-0.06-0.307
						c-0.047-0.155-0.134-0.307-0.244-0.404c-0.036-0.043-0.075-0.074-0.122-0.1c-0.232-0.144-0.427,0.001-0.424,0.32
						c0.004,0.136,0.038,0.288,0.104,0.42c0.076,0.169,0.193,0.316,0.322,0.391c0.017,0.011,0.034,0.023,0.055,0.021
						C132.43,164.282,132.588,164.148,132.587,163.85z"/>
					<path id="XMLID_15070_" style="fill:#263238;" d="M137.218,165.842c0.473-0.273,0.796-0.62,0.95-1.018
						c0.166-0.416,0.13-0.865-0.101-1.266c-0.005-0.008-0.005-0.008-0.005-0.008c-0.176-0.304-0.461-0.577-0.843-0.794
						c-0.064-0.038-0.133-0.083-0.206-0.116l0.002,0.522c1.074,0.64,1.06,1.652-0.029,2.281c-1.089,0.629-2.87,0.632-3.961,0.001
						c-0.592-0.341-0.868-0.801-0.809-1.252c0.012-0.22,0.118-0.442,0.309-0.648c-0.047-0.155-0.134-0.307-0.244-0.404
						c-0.208,0.195-0.361,0.411-0.442,0.64c-0.158,0.411-0.127,0.853,0.109,1.261c0.18,0.312,0.461,0.577,0.848,0.803
						C134.034,166.56,135.977,166.559,137.218,165.842z"/>
				</g>
				<path id="XMLID_14936_" style="fill:#27DEBF;" d="M133.49,166.668l-28.42-19.137l0.435-0.251c0.221-0.128,0.58-0.128,0.801,0
					l27.788,19.04L133.49,166.668z"/>
				<path id="XMLID_14925_" style="opacity:0.2;" d="M133.49,166.668l-28.42-19.137l0.435-0.251c0.221-0.128,0.58-0.128,0.801,0
					l27.788,19.04L133.49,166.668z"/>
				<path id="XMLID_14880_" style="fill:#27DEBF;" d="M105.633,147.589c-0.442-0.255-0.801-0.048-0.801,0.462l0.002,39.352
					c0,0.511,0.358,1.132,0.801,1.387l28.325,19.361l-0.014-41.21L105.633,147.589z"/>
				<g id="XMLID_410_">
					<polygon id="XMLID_14747_" style="fill:#27DEBF;" points="141.878,162.361 141.892,203.571 133.949,208.157 133.949,166.94 
											"/>
					<polygon id="XMLID_14736_" style="opacity:0.1;" points="141.878,162.361 141.892,203.571 133.949,208.157 133.949,166.94 
											"/>
					<g id="XMLID_420_">
						<path id="XMLID_528_" style="fill:#455A64;" d="M140.304,171.401c-0.232-0.401-0.604-0.66-1.049-0.726
							c-0.421-0.064-0.89,0.046-1.357,0.315c-1.24,0.717-2.212,2.401-2.213,3.835c0,0.442,0.091,0.823,0.27,1.134
							c0.466,0.808,1.433,0.973,2.406,0.412c1.242-0.717,2.213-2.402,2.213-3.835C140.574,172.093,140.484,171.712,140.304,171.401
							C140.305,171.402,140.305,171.402,140.304,171.401z"/>
						<path id="XMLID_421_" style="fill:#F5F5F5;" d="M138.13,171.391c1.094-0.632,1.982-0.12,1.982,1.145
							c0.001,1.265-0.887,2.802-1.982,3.435c-1.095,0.632-1.983,0.12-1.982-1.144C136.149,173.561,137.036,172.023,138.13,171.391z"
							/>
					</g>
					<path id="XMLID_418_" style="fill:#F5F5F5;" d="M137.741,179.923l0.6-0.346c1.203-0.694,2.178-0.132,2.178,1.257v17.861
						c0,1.389-0.975,3.077-2.178,3.772l-0.6,0.347c-1.203,0.694-2.178,0.131-2.178-1.257v-17.861
						C135.564,182.307,136.538,180.618,137.741,179.923z"/>
					<polygon id="XMLID_417_" style="fill:#27DEBF;" points="141.405,162.083 133.508,166.642 133.949,166.94 141.878,162.361 					
						"/>
					<polygon id="XMLID_411_" style="opacity:0.2;" points="141.405,162.083 133.508,166.642 133.949,166.94 141.878,162.361 					
						"/>
				</g>
			</g>
		</g>
	</g>
</g>
<g id="Speech_Bubble">
	<g id="XMLID_15789_">
		<g id="XMLID_15792_">
			<path id="XMLID_15825_" style="fill:#27DEBF;" d="M364.118,151.444l-3.947-7.422l3.176-9.167v-5.612l-9.719,5.612v5.611
				l4.178,7.237c0.071,0.122,0.172,0.202,0.284,0.252l-0.002,0.004L364.118,151.444z"/>
			<path id="XMLID_15823_" style="opacity:0.2;" d="M364.118,151.444l-3.947-7.422l3.176-9.167v-5.612l-9.719,5.612v5.611
				l4.178,7.237c0.071,0.122,0.172,0.202,0.284,0.252l-0.002,0.004L364.118,151.444z"/>
			<path id="XMLID_15822_" style="fill:#27DEBF;" d="M387.328,84.635c0-1.858-1.304-4.118-2.914-5.047l-2.373-1.37
				c-1.609-0.929-4.218-0.929-5.828,0l-36.386,21.045c-1.609,0.929-2.914,3.189-2.914,5.047v40.035c0,1.859,1.305,4.118,2.914,5.047
				l2.373,1.37c1.609,0.929,4.219,0.929,5.828,0l11.702-6.761l4.17,7.223c0.266,0.462,0.952,0.396,1.127-0.107l4.407-12.722
				l14.98-8.678c1.609-0.929,2.914-3.188,2.914-5.047L387.328,84.635z"/>
			<path id="XMLID_15821_" style="opacity:0.2;" d="M336.913,144.345c0,1.858,1.305,4.118,2.914,5.047l2.373,1.37
				c1.455,0.84,3.718,0.913,5.33,0.235c-1.371,0.519-2.416-0.255-2.416-1.917l0-40.035c0-0.929,0.326-1.959,0.853-2.872l-8.2-4.734
				c-0.527,0.913-0.853,1.942-0.853,2.872V144.345z"/>
			<path id="XMLID_15794_" style="opacity:0.3;fill:#FFFFFF;" d="M387.232,83.807c-0.34-1.237-1.468-1.631-2.814-0.856L348.026,104
				c-0.802,0.462-1.536,1.251-2.053,2.175l-8.197-4.731c0.53-0.924,1.251-1.713,2.052-2.175l36.379-21.05
				c1.618-0.924,4.228-0.924,5.832,0l2.379,1.373C385.792,80.381,386.947,82.148,387.232,83.807z"/>
		</g>
		<g id="XMLID_15783_">
			<g id="XMLID_15745_">
				<path id="XMLID_15746_" style="fill:#455A64;" d="M370.201,112.565c-0.002-0.003-0.007-0.005-0.012-0.007
					c-0.041-0.022-0.094-0.036-0.152-0.039l-2.091-0.118c-0.212-0.012-0.369-0.164-0.352-0.34c0.029-0.33,0.046-0.659,0.048-0.977
					c0.002-0.355-0.012-0.702-0.046-1.04c-0.014-0.166,0.085-0.441,0.229-0.618l2.335-2.827c0.145-0.176,0.208-0.437,0.142-0.581
					l-1.11-2.453c-0.014-0.034-0.039-0.06-0.068-0.077c-0.005-0.002-0.01-0.005-0.014-0.007c-0.092-0.046-0.229-0.007-0.357,0.111
					l-2.494,2.277c-0.176,0.162-0.415,0.198-0.545,0.092c-0.323-0.265-0.68-0.47-1.066-0.62c-0.171-0.068-0.29-0.256-0.251-0.437
					l0.77-3.491c0.024-0.106-0.019-0.195-0.106-0.246c-0.06-0.034-0.14-0.048-0.232-0.041l-2.439,0.244
					c-0.227,0.022-0.466,0.188-0.533,0.371l-1.322,3.546c-0.068,0.183-0.309,0.408-0.533,0.514c-0.499,0.236-1.004,0.528-1.51,0.876
					c-0.205,0.138-0.434,0.147-0.523,0.012l-1.247-1.906c-0.089-0.135-0.29-0.106-0.451,0.06l-2.678,2.83
					c-0.162,0.169-0.253,0.432-0.207,0.586l0.745,2.526c0.046,0.154-0.017,0.427-0.135,0.608c-0.458,0.692-0.868,1.409-1.233,2.137
					c-0.092,0.183-0.35,0.379-0.581,0.434l-2.292,0.552c-0.232,0.055-0.463,0.248-0.519,0.429l-1.153,3.884
					c-0.056,0.181,0.075,0.338,0.285,0.35l2.094,0.118c0.212,0.012,0.367,0.164,0.352,0.34c-0.063,0.7-0.065,1.377-0.005,2.017
					c0.017,0.169-0.082,0.444-0.227,0.618l-2.335,2.83c-0.145,0.174-0.207,0.434-0.142,0.581l1.11,2.451
					c0.015,0.036,0.039,0.06,0.068,0.077c0,0.002,0,0.002,0.002,0.002c0.002,0.002,0.005,0.002,0.007,0.002
					c0.027,0.014,0.056,0.022,0.087,0.022h0.002c0.082,0,0.178-0.043,0.273-0.128l2.492-2.28c0.176-0.159,0.415-0.198,0.545-0.092
					c0.326,0.265,0.683,0.47,1.066,0.62c0.174,0.067,0.292,0.258,0.251,0.437l-0.77,3.493c-0.022,0.104,0.019,0.188,0.101,0.239
					c0.002,0.002,0.005,0.002,0.007,0.005c0.058,0.034,0.138,0.051,0.229,0.041l2.439-0.241c0.227-0.024,0.466-0.191,0.533-0.372
					l1.324-3.546c0.068-0.183,0.309-0.408,0.533-0.516c0.256-0.121,0.516-0.258,0.774-0.408c0.244-0.142,0.49-0.299,0.736-0.466
					c0.203-0.14,0.434-0.15,0.521-0.014l1.25,1.908c0.017,0.024,0.036,0.043,0.06,0.055c0.101,0.063,0.258,0.019,0.388-0.118
					l2.68-2.83c0.159-0.166,0.251-0.432,0.205-0.586l-0.746-2.523c-0.046-0.157,0.019-0.429,0.138-0.608
					c0.458-0.692,0.868-1.411,1.23-2.14c0.092-0.183,0.35-0.376,0.584-0.432l2.289-0.552c0.234-0.055,0.466-0.248,0.519-0.432
					l1.155-3.882C370.36,112.744,370.31,112.628,370.201,112.565z M357.973,122.05c-0.046,0.012-0.089,0.024-0.135,0.034
					c-0.034,0.01-0.065,0.015-0.096,0.022c-0.072,0.014-0.145,0.026-0.217,0.036c-0.085,0.012-0.169,0.019-0.252,0.024
					c-0.052,0.003-0.104,0.005-0.156,0.006c-0.025,0-0.049,0-0.073,0c-1.001-0.011-1.835-0.519-2.298-1.545
					c-0.174-0.383-0.285-0.815-0.335-1.278c-0.029-0.229-0.041-0.466-0.039-0.709c0.014-2.212,1.151-4.953,3.025-6.933
					c0.605-0.639,1.23-1.139,1.848-1.498c0.205-0.121,0.413-0.227,0.615-0.314c0.608-0.268,1.194-0.391,1.73-0.367
					c0.007,0,0.012,0,0.019,0.002c0.029,0,0.058,0.002,0.087,0.005c0.031,0.002,0.06,0.005,0.089,0.01
					c0.031,0.002,0.063,0.005,0.094,0.012c0.832,0.121,1.513,0.622,1.918,1.515c1.035,2.289-0.152,6.284-2.651,8.921
					C360.098,121.098,358.986,121.79,357.973,122.05z"/>
			</g>
			<g id="XMLID_15784_">
				<path id="XMLID_15785_" style="fill:#455A64;" d="M384.847,118.039c-0.002-0.002-0.005-0.004-0.009-0.006
					c-0.031-0.017-0.071-0.027-0.115-0.029l-1.586-0.09c-0.161-0.009-0.28-0.124-0.267-0.258c0.022-0.251,0.035-0.499,0.037-0.741
					c0.002-0.269-0.009-0.532-0.035-0.789c-0.011-0.126,0.064-0.335,0.174-0.468l1.771-2.144c0.11-0.134,0.157-0.331,0.108-0.441
					l-0.842-1.861c-0.011-0.026-0.029-0.046-0.051-0.059c-0.004-0.002-0.007-0.004-0.011-0.006c-0.07-0.035-0.174-0.006-0.271,0.084
					l-1.892,1.727c-0.134,0.123-0.315,0.15-0.414,0.07c-0.245-0.201-0.516-0.357-0.809-0.47c-0.13-0.051-0.22-0.194-0.19-0.331
					l0.584-2.647c0.018-0.08-0.015-0.148-0.08-0.187c-0.046-0.026-0.106-0.037-0.176-0.031l-1.85,0.185
					c-0.172,0.017-0.353,0.143-0.404,0.282l-1.003,2.689c-0.051,0.139-0.234,0.309-0.404,0.39c-0.379,0.179-0.761,0.401-1.145,0.664
					c-0.156,0.104-0.329,0.112-0.397,0.009l-0.946-1.445c-0.068-0.103-0.22-0.08-0.342,0.046l-2.031,2.146
					c-0.122,0.128-0.192,0.327-0.157,0.444l0.565,1.916c0.035,0.117-0.013,0.324-0.103,0.461c-0.347,0.525-0.659,1.068-0.935,1.621
					c-0.07,0.139-0.265,0.287-0.441,0.329l-1.738,0.419c-0.176,0.042-0.351,0.188-0.393,0.326l-0.875,2.945
					c-0.042,0.137,0.057,0.256,0.216,0.265l1.588,0.09c0.161,0.009,0.278,0.124,0.267,0.258c-0.048,0.531-0.049,1.045-0.004,1.529
					c0.013,0.128-0.062,0.337-0.172,0.468l-1.771,2.146c-0.11,0.132-0.157,0.329-0.108,0.441l0.841,1.859
					c0.011,0.027,0.029,0.046,0.051,0.059c0,0.002,0,0.002,0.002,0.002c0.002,0.002,0.004,0.002,0.006,0.002
					c0.02,0.011,0.042,0.016,0.066,0.016h0.002c0.062,0,0.135-0.033,0.207-0.097l1.89-1.729c0.134-0.121,0.315-0.15,0.413-0.07
					c0.247,0.201,0.518,0.357,0.809,0.47c0.132,0.051,0.221,0.196,0.19,0.331l-0.584,2.649c-0.016,0.079,0.015,0.143,0.077,0.181
					c0.002,0.002,0.004,0.002,0.005,0.004c0.044,0.026,0.104,0.038,0.174,0.031l1.849-0.183c0.172-0.018,0.353-0.145,0.404-0.282
					l1.004-2.689c0.051-0.139,0.234-0.309,0.404-0.391c0.194-0.091,0.392-0.196,0.587-0.309c0.185-0.108,0.371-0.227,0.558-0.353
					c0.154-0.106,0.329-0.113,0.395-0.011l0.948,1.447c0.013,0.018,0.027,0.033,0.046,0.042c0.077,0.048,0.196,0.015,0.295-0.09
					l2.033-2.146c0.121-0.126,0.19-0.327,0.155-0.445l-0.565-1.914c-0.035-0.119,0.015-0.326,0.104-0.461
					c0.348-0.525,0.659-1.07,0.933-1.623c0.069-0.139,0.265-0.285,0.443-0.327l1.736-0.419c0.177-0.042,0.353-0.188,0.393-0.327
					l0.876-2.944C384.967,118.174,384.929,118.087,384.847,118.039z M375.573,125.232c-0.035,0.009-0.068,0.018-0.103,0.026
					c-0.026,0.007-0.049,0.011-0.073,0.016c-0.055,0.011-0.11,0.02-0.165,0.028c-0.065,0.009-0.128,0.014-0.191,0.018
					c-0.04,0.003-0.079,0.004-0.118,0.004c-0.019,0-0.037,0-0.056,0c-0.759-0.008-1.391-0.393-1.743-1.172
					c-0.132-0.291-0.216-0.618-0.254-0.97c-0.022-0.174-0.031-0.353-0.029-0.538c0.011-1.678,0.873-3.756,2.294-5.258
					c0.459-0.485,0.933-0.864,1.401-1.136c0.155-0.091,0.313-0.172,0.466-0.238c0.461-0.203,0.906-0.296,1.312-0.278
					c0.005,0,0.009,0,0.015,0.002c0.022,0,0.044,0.002,0.066,0.004c0.024,0.002,0.046,0.004,0.068,0.007
					c0.024,0.002,0.048,0.004,0.071,0.009c0.631,0.091,1.147,0.472,1.454,1.149c0.785,1.736-0.115,4.766-2.011,6.765
					C377.185,124.51,376.342,125.035,375.573,125.232z"/>
			</g>
		</g>
	</g>
</g>
<g id="Characters_and_desk">
	<g id="Character_10_">
		<g id="XMLID_399_">
			<g id="XMLID_15375_">
				<g id="XMLID_216_">
					<path id="XMLID_219_" style="fill:#263238;" d="M238.391,225.053l-6.156-3.493c-2.21-1.254-3.582-3.611-3.582-6.151v-32.54
						h3.263v32.54c0,1.368,0.739,2.638,1.929,3.313l6.156,3.493L238.391,225.053z"/>
				</g>
				<g id="XMLID_15380_">
					<path id="XMLID_15460_" style="fill:#455A64;" d="M220.138,194.746c-0.997-0.576-1.806-2.038-1.806-3.265l0-28.988
						c0-1.228,0.903-2.64,2.018-3.155l32.078-14.816c1.115-0.515,2.826-0.465,3.824,0.11c0.997,0.576,1.806,2.037,1.806,3.265
						v28.988c0,1.227-0.903,2.64-2.018,3.155l-32.078,14.816C222.847,195.371,221.135,195.322,220.138,194.746z"/>
				</g>
				<g id="XMLID_15379_">
					<path id="XMLID_15458_" style="fill:#263238;" d="M225.555,164.44l-6.613-3.818c-0.376,0.577-0.61,1.247-0.61,1.871v28.988
						c0,1.227,0.809,2.689,1.806,3.265c0.997,0.576,2.709,0.625,3.824,0.111l1.593-0.736L225.555,164.44z"/>
				</g>
				<g id="XMLID_15377_">
					<path id="XMLID_15455_" style="fill:#37474F;" d="M223.961,161.423l32.078-14.816c1.115-0.515,2.018,0.063,2.018,1.291v28.988
						c0,1.227-0.903,2.64-2.018,3.155l-32.078,14.816c-1.114,0.515-2.018-0.063-2.018-1.291l0-28.988
						C221.943,163.35,222.847,161.938,223.961,161.423z"/>
				</g>
			</g>
			<g id="XMLID_400_">
				<g id="XMLID_15295_">
					<g id="XMLID_15370_">
						<g id="XMLID_15374_">
							<path id="XMLID_15452_" style="fill:#263238;" d="M231.041,226.923v54.421c0,0.458-0.325,1.021-0.722,1.251l-1.943,1.122
								c-0.397,0.229-1.047,0.229-1.444,0l-1.943-1.122c-0.397-0.229-0.722-0.792-0.722-1.251v-54.421
								c0-1.351,1.095-2.446,2.447-2.446h1.882C229.946,224.477,231.041,225.572,231.041,226.923z"/>
						</g>
						<g id="XMLID_15372_">
							<path id="XMLID_15450_" style="fill:#37474F;" d="M225.96,224.477L225.96,224.477c0.936,0,1.694,0.758,1.694,1.694
								l-0.001,57.226c0,0.405-0.287,0.571-0.638,0.368l-2.055-1.186c-0.382-0.22-0.694-0.762-0.694-1.202v-55.206
								C224.267,225.235,225.025,224.477,225.96,224.477z"/>
						</g>
					</g>
					<g id="XMLID_15362_">
						<g id="XMLID_15369_">
							<path id="XMLID_15432_" style="fill:#263238;" d="M267.681,246.028v56.034c0,0.46-0.323,1.02-0.722,1.251l-1.944,1.122
								c-0.399,0.23-1.045,0.23-1.444,0l-1.943-1.122c-0.399-0.23-0.722-0.79-0.722-1.251v-56.034c0-0.46,0.373-0.834,0.834-0.834
								l5.107,0C267.308,245.194,267.681,245.568,267.681,246.028z"/>
						</g>
						<g id="XMLID_15364_">
							<path id="XMLID_15413_" style="fill:#37474F;" d="M261.741,245.194h1.72c0.461,0,0.834,0.373,0.834,0.834l0,57.989
								c0,0.461-0.323,0.647-0.722,0.417l-1.943-1.122c-0.399-0.23-0.722-0.79-0.722-1.251v-56.034
								C260.907,245.568,261.28,245.194,261.741,245.194z"/>
						</g>
					</g>
					<g id="XMLID_15360_">
						<path id="XMLID_15407_" style="fill:#37474F;" d="M224.267,225.76v0.747c0,1.228,0.807,2.807,1.802,3.526l36.423,25.395
							c0.995,0.719,2.664,0.805,3.728,0.191l45.825-26.456c1.063-0.614,1.926-2.107,1.926-3.335v-0.768
							c0-1.228-0.904-2.641-2.019-3.156l-45.057-20.901c-1.115-0.515-2.88-0.434-3.944,0.18l-36.759,21.241
							C225.129,223.038,224.267,224.532,224.267,225.76z"/>
					</g>
					<g id="XMLID_15358_">
						<path id="XMLID_15402_" style="fill:#455A64;" d="M226.192,222.424l36.759-21.241c1.063-0.614,2.829-0.695,3.944-0.18
							l45.057,20.901c1.115,0.515,1.156,1.43,0.093,2.044l-45.824,26.457c-1.064,0.614-2.733,0.529-3.728-0.19l-36.422-25.376
							C225.074,224.119,225.129,223.038,226.192,222.424z"/>
					</g>
				</g>
			</g>
		</g>
		<g id="Boy">
			<g id="XMLID_15385_">
				<g id="XMLID_15388_">
					
						<rect id="XMLID_15481_" x="278.834" y="307.122" transform="matrix(-1 -1.224647e-16 1.224647e-16 -1 567.1327 630.4472)" style="fill:#FFA8A7;" width="9.465" height="16.203"/>
					<polygon id="XMLID_15480_" style="fill:#FFA8A7;" points="306.242,303.175 315.702,303.501 316.175,286.354 306.716,286.029 
											"/>
					<path id="XMLID_15479_" style="fill:#263238;" d="M288.299,319.073v-1.681c0.984,0.429,5.463,9.897,9.544,13.62
						c3.245,2.96,8.949,7.011,8.81,9.817c-0.179,3.622-5.344,5.227-9.8,4.181c-3.483-0.817-8.454-2.927-10.838-5.502
						c-2.329-2.514-3.162-5.959-4.408-7.644c-1.245-1.685-4.116-3.566-4.789-5.516c-0.37-1.071,0.069-3.418,0.589-5.4
						c0.477-1.819,0.994-3.819,1.615-3.648c0.002,0.222,0,1.121,0,1.121c0.747,0.828,2.813,1.649,5.143,1.739
						C285.669,320.218,288.311,320.221,288.299,319.073z"/>
					<path id="XMLID_15475_" style="fill:#263238;" d="M315.802,300.582c0.491,0.017,0.892,0.71,1.976,1.884
						c1.31,1.418,4.239,2.9,6.354,3.958c3.544,1.774,12.821,4.156,15.939,5.561c1.948,0.878,1.459,3.901-1.303,5.602
						c-2.059,1.269-8.615,2.495-14.453,1.189c-3.18-0.711-8.019-2.917-10.387-3.29c-2.593-0.409-7.364-0.907-9.298-2.24
						c-1.934-1.333-1.16-4.181-0.614-6.627c0.596-2.67,1.451-6.756,2.335-6.574l-0.029,0.84c1.138,1.723,6.931,2.427,9.431,1.158
						L315.802,300.582z"/>
					<path id="XMLID_15468_" style="fill:#27DEBF;" d="M240.709,208.582c-2.073,14.626,0.721,17.434,14.622,31.445
						c7.475,7.534,19.523,18.586,19.523,18.586s-0.174,4.67-0.273,15.146c-0.086,9.226,3.77,39.25,3.77,39.25
						s6.279,2.642,10.591-0.1c0,0,1.947-22.336,2.997-33.972c1.425-15.782,2.173-23.688,1.367-27.084
						c-0.711-2.993-14.861-20.855-18.125-25.869l30.068,17.467c0,0-1.025,7.65-0.875,13.352c0.33,12.524,1.868,37.536,1.868,37.536
						s6.885,3.081,10.3,0.425c0,0,8.663-54.702,8.663-59.192c0-6.822-29.627-27.186-35.235-31.928
						c-3.2-2.706-6.769-5.596-6.769-5.596L240.709,208.582z"/>
					<path id="XMLID_15293_" style="opacity:0.3;" d="M240.709,208.582c-2.073,14.626,0.721,17.434,14.622,31.445
						c7.475,7.534,19.523,18.586,19.523,18.586s-0.174,4.67-0.273,15.146c-0.086,9.226,3.77,39.25,3.77,39.25
						s6.279,2.642,10.591-0.1c0,0,1.947-22.336,2.997-33.972c1.425-15.782,2.173-23.688,1.367-27.084
						c-0.711-2.993-14.861-20.855-18.125-25.869l30.068,17.467c0,0-1.025,7.65-0.875,13.352c0.33,12.524,1.868,37.536,1.868,37.536
						s6.885,3.081,10.3,0.425c0,0,8.663-54.702,8.663-59.192c0-6.822-29.627-27.186-35.235-31.928
						c-3.2-2.706-6.769-5.596-6.769-5.596L240.709,208.582z"/>
					<path id="XMLID_15466_" style="opacity:0.1;" d="M275.182,225.984c0,0,4.824-3.566,6.871-9.799c0,0-0.257,4.201-1.07,7.453
						c-0.813,3.252,24.268,19.813,24.268,19.813L275.182,225.984z"/>
					<path id="XMLID_15487_" style="fill:#FFA8A7;" d="M292.595,174.59c0,0,1.664-14.915,1.664-20.376c0-5.85-2.47-9.31-10.068-9.48
						c0,0-5.524,37.752-2.527,40.607c1.64,1.563,8.792,3.908,15.916,5.976l3.935-11.318
						C298.832,178.397,295.869,176.596,292.595,174.59z"/>
					<path id="XMLID_15712_" style="fill:#E0E0E0;" d="M282.95,144.166c0,0,6.28,0.167,9.072,2.836
						c2.899,2.772,2.863,4.944,2.573,9.878c-0.29,4.934-1.276,17.723-1.276,17.723s-4.716,4.46-15.32,3.957L282.95,144.166z"/>
					<path id="XMLID_15465_" style="fill:#F5F5F5;" d="M252.641,152.66c-2.249,3.384-8.906,20.436-12.169,57.564
						c6.637,7.22,39.34,8.807,49.498-6.58c0,0,3.419-30.846,3.347-38.219c-0.05-5.102-0.191-17.444-9.126-20.692h-11.707
						l-13.351,2.269C259.249,147.003,255.359,148.571,252.641,152.66z"/>
					<g id="XMLID_15395_">
						<g id="XMLID_15398_">
							<path id="XMLID_15464_" style="fill:#263238;" d="M271.699,115.026c-0.351,7.413,5.374,13.706,12.787,14.057
								c7.413,0.351,13.706-5.374,14.057-12.787s-5.374-13.706-12.787-14.057C278.343,101.889,272.05,107.614,271.699,115.026z"/>
							<path id="XMLID_15463_" style="fill:#263238;" d="M261.468,124.107c0,0,1.691,10.321,2.484,12.041
								c0.793,1.72,2.572,2.283,2.572,2.283l0.188-7.195L261.468,124.107z"/>
							<path id="XMLID_15459_" style="fill:#263238;" d="M264.891,109.598c0,0-2.323-0.512-4.238,1.268
								c-1.877,1.746-1.148,7.523,0.816,13.241l4.075,0.664L264.891,109.598z"/>
							<path id="XMLID_15457_" style="fill:#FFA8A7;" d="M266.771,124.833c-0.845,0.452-1.942-1.182-2.905-2.29
								c-0.963-1.108-4.202-2.713-6.016,0.685c-1.849,3.463,1.067,8.292,3.632,9.233c4.42,1.621,5.23-1.225,5.23-1.225
								l-0.423,16.201c3.663,4.503,17.677,8.497,14.619,0.263l0.221-4.926c0,0,4.036,0.809,6.034,0.597
								c3.324-0.354,5.523-2.859,6.693-6.384c1.879-5.661,2.709-10.265,1.879-21.612c-0.91-12.438-15.288-13.247-23.287-8.726
								C264.449,111.17,266.771,124.833,266.771,124.833z"/>
							<path id="XMLID_15454_" style="fill:#263238;" d="M266.706,126.215c-0.365-0.195-1.861-2.693-2.84-3.672
								c-1.356-1.356,1.024-12.945,1.024-12.945s-1.224-2.966,1.647-5.841c2.042-2.045,5.812-4.503,11.286-3.258
								c4.014,0.913,7.897,1.53,10.83,1.878c3.491,0.414,8.303-0.06,11.225-1.326c0.175,1.951,0.19,4.049-0.701,5.953
								c-0.759,1.621-1.95,3.112-3.862,4.223s-3.867,1.787-7.874,1.945c-8.771,0.346-13.54-1.375-14.652-1.581
								c-1.514-0.281-1.91,1.181-2.922,5.178C268.978,120.277,269.897,127.924,266.706,126.215z"/>
							<path id="XMLID_15453_" style="fill:#263238;" d="M264.856,110.506l-4.841-2.901c0.772-1.39,2.482-1.867,3.819-1.066
								C265.17,107.34,265.628,109.116,264.856,110.506z"/>
							<path id="XMLID_15451_" style="fill:#F28F8F;" d="M281.129,142.773c0,0-7.296-1.833-9.806-3.323
								c-1.68-0.998-3.025-2.653-3.393-3.691c0,0,0.379,2.208,1.826,4.25c1.77,2.497,11.281,4.724,11.281,4.724L281.129,142.773z"/>
							<g id="XMLID_15400_">
								<path id="XMLID_15449_" style="fill:#263238;" d="M282.948,124.412c-0.04,0.847-0.734,1.501-1.549,1.46
									c-0.815-0.041-1.444-0.76-1.403-1.608c0.04-0.847,0.733-1.5,1.549-1.46C282.36,122.846,282.988,123.565,282.948,124.412z"/>
								<path id="XMLID_15433_" style="fill:#263238;" d="M281.701,119.312l-3.24,1.593c-0.423-0.929-0.04-2.039,0.855-2.479
									C280.21,117.986,281.278,118.382,281.701,119.312z"/>
								<path id="XMLID_15427_" style="fill:#F28F8F;" d="M280.882,133.874l3.31,1.424c-0.379,0.95-1.427,1.402-2.342,1.008
									C280.936,135.913,280.502,134.824,280.882,133.874z"/>
								<path id="XMLID_15412_" style="fill:#263238;" d="M294.503,120.773l-2.775-2.354c0.626-0.797,1.755-0.916,2.521-0.266
									C295.016,118.803,295.129,119.976,294.503,120.773z"/>
								<path id="XMLID_15411_" style="fill:#263238;" d="M293.62,123.868c-0.04,0.847-0.733,1.501-1.549,1.459
									c-0.815-0.041-1.443-0.76-1.403-1.607c0.04-0.847,0.733-1.501,1.548-1.46C293.031,122.301,293.66,123.021,293.62,123.868z"
									/>
								<polygon id="XMLID_15406_" style="fill:#F28F8F;" points="287.12,122.249 285.894,131.128 291.308,130.8 								"/>
							</g>
						</g>
					</g>
				</g>
			</g>
		</g>
		<g id="XMLID_15161_">
			<g id="XMLID_15172_">
				<polygon id="XMLID_15782_" style="fill:#455A64;" points="253.077,319.41 169.141,270.949 326.666,180.041 410.602,228.502 				
					"/>
			</g>
			<g id="XMLID_15171_">
				<polygon id="XMLID_15779_" style="fill:#263238;" points="169.141,270.949 169.141,367.87 173.559,370.421 173.559,304.106 
					248.659,347.466 248.66,413.78 253.077,416.331 253.077,319.41 				"/>
			</g>
			<g id="XMLID_15170_">
				<polygon id="XMLID_15776_" points="173.559,370.421 177.977,367.87 177.977,306.657 173.559,304.106 				"/>
			</g>
			<g id="XMLID_15169_">
				<polygon id="XMLID_15774_" style="fill:#37474F;" points="253.077,416.331 257.495,413.78 257.495,347.466 406.185,261.659 
					406.185,327.973 410.603,325.423 410.602,228.502 253.077,319.41 				"/>
			</g>
			<g id="XMLID_15162_">
				<polygon id="XMLID_15748_" style="fill:#263238;" points="406.185,327.973 401.767,325.423 401.767,264.21 406.185,261.659 				
					"/>
			</g>
		</g>
		<g id="XMLID_15131_">
			<g id="XMLID_15157_">
				<path id="XMLID_15731_" style="fill:#EBEBEB;" d="M252.426,262.266l-33.458,19.317c-0.52,0.3-1.364,0.3-1.884,0l-24.622-14.216
					c-0.52-0.3-0.52-0.787,0-1.088l33.458-19.317c0.52-0.3,1.364-0.3,1.884,0l24.622,14.216
					C252.947,261.478,252.947,261.965,252.426,262.266z"/>
			</g>
			<g id="XMLID_15156_">
				<path id="XMLID_15729_" style="fill:#E0E0E0;" d="M227.804,246.962l23.381,13.499l-32.216,18.6c-0.52,0.3-1.364,0.3-1.884,0
					l-23.381-13.499l32.217-18.6C226.441,246.662,227.284,246.662,227.804,246.962z"/>
			</g>
			<g id="XMLID_15155_">
				<path id="XMLID_15727_" style="fill:#FAFAFA;" d="M252.426,258.864l-33.458,19.317c-0.52,0.3-1.364,0.3-1.884,0l-24.622-14.216
					c-0.52-0.3-0.52-0.787,0-1.088l33.458-19.317c0.52-0.3,1.364-0.3,1.884,0l24.622,14.216
					C252.946,258.077,252.946,258.564,252.426,258.864z"/>
			</g>
		</g>
		<g id="XMLID_389_">
			<g id="XMLID_15158_">
				<g id="XMLID_15160_">
					<path id="XMLID_15739_" style="fill:#E0E0E0;" d="M279.91,224.863v-0.375c0-0.601,0.422-1.331,0.942-1.631l55.547-32.07
						c0.52-0.3,1.363-0.3,1.884,0l11.369,6.565c0.52,0.3,0.942,1.031,0.942,1.631v0.374c0,0.601-0.422,1.331-0.942,1.631
						l-55.546,32.07c-0.52,0.3-1.363,0.3-1.884,0l-11.369-6.564C280.332,226.194,279.91,225.464,279.91,224.863z"/>
				</g>
				<g id="XMLID_15159_">
					<path id="XMLID_15735_" style="fill:#FAFAFA;" d="M280.852,223.944l11.369,6.563c0.52,0.3,1.363,0.3,1.884,0l55.547-32.068
						c0.52-0.3,0.52-0.787,0-1.088l-11.369-6.565c-0.52-0.3-1.364-0.3-1.884,0l-55.547,32.07
						C280.332,223.157,280.332,223.644,280.852,223.944z"/>
				</g>
				<path id="XMLID_15502_" style="fill:#FFA8A7;" d="M333.08,198.264c-0.976-1.612-6.307-6.338-7.354-7.303
					c-1.047-0.965-5.566-1.63-9.536-2.874c-3.632-1.673-8.386-4.335-14.674-8.089l-3.935,11.318
					c5.892,1.709,11.765,3.229,14.488,3.958c2.295,0.878,2.208,1.557,4.078,2.619c3.469,1.969,5.719,1.578,5.719,1.578
					s1.698,1.622,3.278,2.707c2.454,1.684,4.913,2.976,7.936,2.021C336.39,203.154,334.056,199.876,333.08,198.264z"/>
			</g>
		</g>
		<g id="XMLID_525_">
			<g id="XMLID_14808_">
				<g id="XMLID_527_">
					<g id="XMLID_14403_">
						<path id="XMLID_15365_" style="fill:#EBEBEB;" d="M319.083,270.996c3.221-3.287,5.113-11.493,1.971-14.1H305.07
							c-3.141,2.606-1.251,10.808,1.968,14.097c0.027,0.031,0.059,0.06,0.088,0.091c0.037,0.036,0.074,0.073,0.111,0.108
							c0.091,0.088,0.188,0.174,0.291,0.259c0.025,0.021,0.051,0.04,0.077,0.06c0.079,0.062,0.157,0.124,0.243,0.184
							c0.137,0.097,0.276,0.188,0.416,0.266c2.65,1.53,6.945,1.53,9.595,0h0h0c0.142-0.079,0.281-0.17,0.419-0.268
							c0.08-0.056,0.152-0.114,0.226-0.171c0.032-0.025,0.064-0.048,0.095-0.075c0.1-0.082,0.193-0.165,0.281-0.25
							c0.043-0.04,0.086-0.083,0.128-0.125C319.034,271.047,319.06,271.022,319.083,270.996z"/>
					</g>
					<g id="XMLID_14402_">
						<path id="XMLID_15363_" style="fill:#FAFAFA;" d="M306.458,255.846c-3.647,2.106-3.647,5.52,0,7.626
							c3.647,2.106,9.561,2.106,13.208,0c3.647-2.106,3.647-5.52,0-7.626C316.019,253.741,310.105,253.741,306.458,255.846z"/>
					</g>
					<g id="XMLID_530_">
						<path id="XMLID_15361_" style="fill:#EBEBEB;" d="M309.044,257.34c-2.219,1.281-2.219,3.358,0,4.639
							c2.219,1.281,5.817,1.281,8.036,0c2.219-1.281,2.219-3.358,0-4.639C314.861,256.058,311.263,256.058,309.044,257.34z"/>
					</g>
					<g id="XMLID_529_">
						<path id="XMLID_15359_" style="fill:#E0E0E0;" d="M317.08,259.541c-2.219-1.281-5.817-1.281-8.036,0
							c-0.616,0.356-1.055,0.774-1.329,1.219c0.274,0.445,0.713,0.863,1.329,1.219c2.219,1.281,5.817,1.281,8.036,0
							c0.616-0.356,1.055-0.774,1.329-1.219C318.135,260.316,317.696,259.897,317.08,259.541z"/>
					</g>
				</g>
			</g>
			<g id="XMLID_526_">
				<path id="XMLID_15288_" style="fill:#27DEBF;" d="M309.534,260.76c0,0-1.564-1.49-2.907-3.864
					c-1.342-2.373-1.59-5.553-0.896-5.945c0.694-0.392,3.518,2.779,3.518,2.779s-0.416-1.937-0.297-4.051
					c0.118-2.114,0.634-4.035,1.239-4.423c0.605-0.388,1.96,2.28,2.541,4.212c0.581,1.933,0.928,3.521,0.928,3.521
					s0.397-2.612,1.041-4.447c0.705-2.006,1.344-2.46,1.839-2.261c0.496,0.198,0.822,1.134,0.967,3.807
					c0.102,1.871-0.119,3.824-0.119,3.824s0.996-1.095,2.102-2.157c1.214-1.166,1.734-1.327,2.081-1.105
					c0.347,0.223,0.443,2.037-1.438,5.438c-1.66,3.001-3.549,4.672-3.549,4.672S313.981,262.439,309.534,260.76z"/>
			</g>
		</g>
		<g id="XMLID_372_">
			<g id="XMLID_390_">
				<path id="XMLID_14801_" style="fill:#27DEBF;" d="M296.85,286.55c0.239-0.138,0.358-0.318,0.359-0.499c0-0.181,0-0.769,0-0.769
					l-37.207-21.004c-0.478-0.276-1.254-0.276-1.732,0l-33.441,19.307l38.595,22.265L296.85,286.55z"/>
				<path id="XMLID_14857_" style="opacity:0.2;" d="M296.85,286.55c0.239-0.138,0.358-0.318,0.359-0.499c0-0.181,0-0.769,0-0.769
					l-37.207-21.004c-0.478-0.276-1.254-0.276-1.732,0l-33.441,19.307l38.595,22.265L296.85,286.55z"/>
				<path id="XMLID_14784_" style="fill:#27DEBF;" d="M296.85,285.8c0.478-0.276,0.478-0.724,0-1l-36.849-21.273
					c-0.478-0.276-1.254-0.276-1.732,0l-33.441,19.307l38.595,22.265L296.85,285.8z"/>
				<path id="XMLID_14879_" style="opacity:0.5;" d="M296.85,285.8c0.478-0.276,0.478-0.724,0-1l-36.849-21.273
					c-0.478-0.276-1.254-0.276-1.732,0l-33.441,19.307l38.595,22.265L296.85,285.8z"/>
				<g id="XMLID_14753_">
					<path id="XMLID_14783_" style="fill:#EBEBEB;" d="M232.527,277.789l24.758-14.287c0.478-0.276,1.253-0.276,1.732,0
						l33.988,19.621l3.22-1.875v3.813l-0.06,0.036c0.107,0.235,0.021,0.494-0.299,0.678l-28.354,16.363l-38.595-22.265v-4.166
						L232.527,277.789z"/>
					<path id="XMLID_14781_" style="fill:#FAFAFA;" d="M295.865,281.609c0.478-0.276,0.478-0.724,0-1l-36.849-21.273
						c-0.478-0.276-1.254-0.276-1.732,0l-28.368,16.37l38.595,22.265L295.865,281.609z"/>
					<polygon id="XMLID_14780_" style="fill:#E6E6E6;" points="267.512,297.971 267.512,302.138 228.916,279.872 228.916,275.706 
											"/>
					<path id="XMLID_14779_" style="fill:#263238;" d="M267.053,296.345c0.1,0.05,0.2,0.09,0.32,0.11c0.17,0.04,0.36,0.04,0.51-0.01
						c0.06-0.01,0.11-0.03,0.16-0.06c0.26-0.14,0.23-0.4-0.07-0.57c-0.13-0.07-0.29-0.12-0.45-0.13c-0.2-0.02-0.4,0.01-0.54,0.09
						c-0.02,0.01-0.04,0.02-0.05,0.04C266.733,295.965,266.773,296.185,267.053,296.345z"/>
					<path id="XMLID_14767_" style="fill:#263238;" d="M262.683,299.604c0,0.59,0.15,1.08,0.44,1.44c0.3,0.38,0.74,0.59,1.24,0.59
						c0.01,0,0.01,0,0.01,0c0.38,0,0.79-0.12,1.2-0.36c0.07-0.04,0.15-0.08,0.22-0.13l-0.49-0.28c-1.18,0.66-2.12,0.1-2.12-1.26
						c0-1.36,0.96-3.03,2.14-3.71c0.64-0.37,1.22-0.38,1.61-0.08c0.2,0.13,0.35,0.35,0.44,0.64c0.17,0.04,0.36,0.04,0.51-0.01
						c-0.07-0.3-0.19-0.56-0.36-0.76c-0.3-0.37-0.73-0.58-1.24-0.58c-0.39,0-0.79,0.12-1.21,0.36
						C263.733,296.235,262.683,298.055,262.683,299.604z"/>
				</g>
				<path id="XMLID_14752_" style="fill:#27DEBF;" d="M263.925,295.668l33.284-16.266v0.543c0,0.276-0.194,0.612-0.433,0.75
					l-32.851,15.727V295.668z"/>
				<path id="XMLID_14878_" style="opacity:0.2;" d="M263.925,295.668l33.284-16.266v0.543c0,0.276-0.194,0.612-0.433,0.75
					l-32.851,15.727V295.668z"/>
				<path id="XMLID_519_" style="fill:#27DEBF;" d="M296.85,279.898c0.478-0.276,0.478-0.724,0-1l-36.849-21.273
					c-0.478-0.276-1.254-0.276-1.732,0l-33.441,16.056l38.595,22.265L296.85,279.898z"/>
				<g id="XMLID_391_">
					<polygon id="XMLID_398_" style="fill:#27DEBF;" points="263.424,305.85 224.829,283.585 224.829,273.667 263.423,295.949 					
						"/>
					<polygon id="XMLID_14810_" style="opacity:0.1;" points="263.424,305.85 224.829,283.585 224.829,273.667 263.423,295.949 
											"/>
					<g id="XMLID_395_">
						<path id="XMLID_397_" style="fill:#455A64;" d="M255.81,299.489c0.501,0,0.944-0.21,1.247-0.59
							c0.287-0.359,0.438-0.858,0.438-1.441c-0.001-1.549-1.053-3.37-2.394-4.145c-0.414-0.239-0.82-0.36-1.208-0.36
							c-1.009,0-1.686,0.816-1.686,2.03c0,1.55,1.052,3.371,2.395,4.146C255.016,299.368,255.422,299.489,255.81,299.489
							L255.81,299.489z"/>
						<path id="XMLID_396_" style="fill:#F5F5F5;" d="M256.995,297.459c0.001,1.366-0.959,1.92-2.143,1.237
							c-1.185-0.683-2.145-2.345-2.145-3.712c0-1.367,0.96-1.921,2.143-1.237C256.034,294.431,256.994,296.093,256.995,297.459z"/>
					</g>
					<path id="XMLID_394_" style="fill:#F5F5F5;" d="M249.216,292.482v0.749c0,1.502-1.054,2.11-2.355,1.359l-16.724-9.656
						c-1.3-0.751-2.355-2.577-2.355-4.078v-0.75c0-1.502,1.054-2.11,2.355-1.359l16.724,9.656
						C248.161,289.155,249.216,290.98,249.216,292.482z"/>
					<polygon id="XMLID_392_" style="fill:#27DEBF;" points="263.94,305.557 263.94,295.698 263.423,295.949 263.424,305.85 					
						"/>
					<polygon id="XMLID_14858_" style="opacity:0.2;" points="263.94,305.557 263.94,295.698 263.423,295.949 263.424,305.85 					
						"/>
				</g>
			</g>
			<g id="XMLID_14881_">
				<g id="XMLID_278_">
					<path id="XMLID_14884_" style="fill:#27DEBF;" d="M225.187,272.128c0,0.209,0.169,0.475,0.377,0.596l37.842,21.83
						c0.208,0.12,0.545,0.12,0.754,0l33.915-17.155l0-0.753l-38.58-22.273l-33.93,17.16
						C225.356,271.652,225.187,271.919,225.187,272.128z"/>
					<path id="XMLID_15177_" style="opacity:0.1;" d="M263.783,293.889v0.75c-0.141,0-0.272-0.033-0.381-0.087l-37.836-21.827
						c-0.207-0.12-0.381-0.392-0.381-0.598c0-0.207,0.174-0.479,0.381-0.598c-0.207,0.12-0.207,0.315,0,0.435l37.836,21.838
						C263.511,293.868,263.642,293.889,263.783,293.889z"/>
					<path id="XMLID_15175_" style="opacity:0.5;" d="M298.074,276.645l-33.911,17.158c-0.109,0.065-0.25,0.087-0.381,0.087
						c-0.141,0-0.272-0.022-0.381-0.087l-37.836-21.838c-0.207-0.12-0.207-0.315,0-0.435l33.932-17.157L298.074,276.645z"/>
					<path id="XMLID_15168_" style="opacity:0.2;" d="M298.074,276.645l0,0.753l-33.911,17.155c-0.109,0.065-0.25,0.087-0.381,0.087
						v-0.75c0.13,0,0.272-0.022,0.381-0.087L298.074,276.645z"/>
				</g>
				<g id="XMLID_369_">
					<polygon id="XMLID_15174_" style="fill:#27DEBF;" points="297.559,276.945 258.964,254.68 258.964,244.763 297.558,267.144 
											"/>
					<polygon id="XMLID_14882_" style="opacity:0.7;" points="297.559,276.945 258.964,254.68 258.964,244.763 297.558,267.144 
											"/>
				</g>
				<g id="XMLID_325_">
					<path id="XMLID_288_" style="fill:#EBEBEB;" d="M225.655,266.794c-0.26,0.15-0.471,0.515-0.471,0.816v2.007
						c0,0.3,0.211,0.665,0.471,0.815l37.653,21.722c0.26,0.15,0.682,0.15,0.942,0L293,276.603v-3.094l-38.581-22.273
						L225.655,266.794z"/>
					<path id="XMLID_287_" style="fill:#FAFAFA;" d="M254.419,251.236l-28.764,15.557c-0.26,0.15-0.26,0.393,0,0.543l37.653,21.722
						c0.26,0.15,0.682,0.15,0.942,0L293,273.509L254.419,251.236z"/>
					<path id="XMLID_286_" style="fill:#263238;" d="M289.336,273.759c0.1,0.05,0.2,0.09,0.32,0.11c0.17,0.04,0.36,0.04,0.51-0.01
						c0.06-0.01,0.11-0.03,0.16-0.06c0.26-0.14,0.23-0.4-0.07-0.57c-0.13-0.07-0.29-0.12-0.45-0.13c-0.2-0.02-0.4,0.01-0.54,0.09
						c-0.02,0.01-0.04,0.02-0.05,0.04C289.016,273.38,289.056,273.599,289.336,273.759z"/>
					<path id="XMLID_15055_" style="fill:#E6E6E6;" d="M263.782,289.163v3.099c-0.174,0-0.348-0.033-0.478-0.109l-37.651-21.718
						c-0.261-0.152-0.468-0.522-0.468-0.816v-2.012c0-0.25,0.152-0.555,0.359-0.729c-0.141,0.141-0.109,0.326,0.109,0.457
						l37.651,21.718C263.434,289.131,263.608,289.174,263.782,289.163z"/>
					<g id="XMLID_289_">
						<path id="XMLID_15058_" style="fill:#263238;" d="M294.371,269.468c-0.556-0.329-1.246-0.291-1.948,0.114
							c-1.177,0.68-2.192,2.243-2.663,3.942c0.231,0.033,0.516,0.075,0.643,0.095c0.437-1.508,1.33-2.901,2.34-3.484
							c0.224-0.128,0.513-0.251,0.81-0.251c0.165,0,0.332,0.037,0.491,0.133c0.514,0.307,0.802,1.129,0.771,2.197
							c-0.061,2.054-1.237,4.377-2.623,5.177c-0.263,0.153-0.619,0.294-0.968,0.239l-0.702,0.402
							c0.014,0.009,0.028,0.018,0.042,0.026c0.249,0.149,0.525,0.222,0.817,0.222c0.36,0,0.744-0.111,1.131-0.336
							c1.582-0.913,2.875-3.422,2.942-5.711C295.492,270.91,295.097,269.902,294.371,269.468z"/>
					</g>
				</g>
				<g id="XMLID_383_">
					<path id="XMLID_285_" style="fill:#27DEBF;" d="M225.187,265.831c0,0.209,0.169,0.475,0.377,0.595l37.842,21.831
						c0.208,0.12,0.545,0.12,0.754,0l33.915-20.727l0-0.753l-38.58-22.273l-33.93,20.732
						C225.356,265.355,225.187,265.622,225.187,265.831z"/>
					<path id="XMLID_284_" style="opacity:0.1;" d="M263.783,287.593v0.75c-0.141,0-0.272-0.033-0.381-0.087l-37.836-21.827
						c-0.207-0.12-0.381-0.392-0.381-0.598c0-0.207,0.174-0.479,0.381-0.598c-0.207,0.12-0.207,0.315,0,0.435l37.836,21.838
						C263.511,287.571,263.642,287.593,263.783,287.593z"/>
					<path id="XMLID_283_" style="fill:#27DEBF;" d="M298.074,266.777l-33.911,20.729c-0.109,0.065-0.25,0.087-0.381,0.087
						c-0.141,0-0.272-0.022-0.381-0.087l-37.836-21.838c-0.207-0.12-0.207-0.315,0-0.435l33.932-20.729L298.074,266.777z"/>
					<path id="XMLID_282_" style="opacity:0.2;" d="M298.074,266.777l0,0.753l-33.911,20.726c-0.109,0.065-0.25,0.087-0.381,0.087
						v-0.75c0.13,0,0.272-0.022,0.381-0.087L298.074,266.777z"/>
				</g>
				<g id="XMLID_376_">
					<polygon id="XMLID_15173_" style="fill:#27DEBF;" points="298.074,276.645 298.075,266.794 297.558,267.144 297.559,276.945 
											"/>
					<polygon id="XMLID_14883_" style="opacity:0.2;" points="298.074,276.645 298.075,266.794 297.558,267.144 297.559,276.945 
											"/>
				</g>
			</g>
			<g id="XMLID_14885_">
				<path id="XMLID_15103_" style="fill:#27DEBF;" d="M296.85,266.627c0.239-0.138,0.358-0.318,0.359-0.499c0-0.181,0-0.769,0-0.769
					l-37.207-21.005c-0.478-0.276-1.254-0.276-1.732,0l-33.441,19.307l38.595,22.265L296.85,266.627z"/>
				<path id="XMLID_15102_" style="opacity:0.2;" d="M296.85,266.627c0.239-0.138,0.358-0.318,0.359-0.499c0-0.181,0-0.769,0-0.769
					l-37.207-21.005c-0.478-0.276-1.254-0.276-1.732,0l-33.441,19.307l38.595,22.265L296.85,266.627z"/>
				<path id="XMLID_15098_" style="fill:#27DEBF;" d="M296.85,265.877c0.478-0.276,0.478-0.724,0-1l-36.849-21.273
					c-0.478-0.276-1.254-0.276-1.732,0l-33.441,19.307l38.595,22.265L296.85,265.877z"/>
				<path id="XMLID_15079_" style="opacity:0.5;" d="M296.85,265.877c0.478-0.276,0.478-0.724,0-1l-36.849-21.273
					c-0.478-0.276-1.254-0.276-1.732,0l-33.441,19.307l38.595,22.265L296.85,265.877z"/>
				<g id="XMLID_15068_">
					<path id="XMLID_15078_" style="fill:#EBEBEB;" d="M232.527,257.866l24.758-14.287c0.478-0.276,1.253-0.276,1.732,0
						l33.988,19.621l3.22-1.875v3.813l-0.06,0.036c0.107,0.235,0.021,0.494-0.299,0.678l-28.354,16.363l-38.595-22.265v-4.166
						L232.527,257.866z"/>
					<path id="XMLID_15077_" style="fill:#FAFAFA;" d="M295.865,261.686c0.478-0.276,0.478-0.724,0-1l-36.849-21.273
						c-0.478-0.276-1.254-0.276-1.732,0l-28.368,16.37l38.595,22.265L295.865,261.686z"/>
					<polygon id="XMLID_15073_" style="fill:#E6E6E6;" points="267.512,278.049 267.512,282.215 228.916,259.949 228.916,255.783 
											"/>
					<path id="XMLID_15072_" style="fill:#263238;" d="M267.053,276.422c0.1,0.05,0.2,0.09,0.32,0.11c0.17,0.04,0.36,0.04,0.51-0.01
						c0.06-0.01,0.11-0.03,0.16-0.06c0.26-0.14,0.23-0.4-0.07-0.57c-0.13-0.07-0.29-0.12-0.45-0.13c-0.2-0.02-0.4,0.01-0.54,0.09
						c-0.02,0.01-0.04,0.02-0.05,0.04C266.733,276.042,266.773,276.262,267.053,276.422z"/>
					<path id="XMLID_15069_" style="fill:#263238;" d="M262.683,279.682c0,0.59,0.15,1.08,0.44,1.44c0.3,0.38,0.74,0.59,1.24,0.59
						c0.01,0,0.01,0,0.01,0c0.38,0,0.79-0.12,1.2-0.36c0.07-0.04,0.15-0.08,0.22-0.13l-0.49-0.28c-1.18,0.66-2.12,0.1-2.12-1.26
						c0-1.36,0.96-3.03,2.14-3.71c0.64-0.37,1.22-0.38,1.61-0.08c0.2,0.13,0.35,0.35,0.44,0.64c0.17,0.04,0.36,0.04,0.51-0.01
						c-0.07-0.3-0.19-0.56-0.36-0.76c-0.3-0.37-0.73-0.58-1.24-0.58c-0.39,0-0.79,0.12-1.21,0.36
						C263.733,276.312,262.683,278.132,262.683,279.682z"/>
				</g>
				<path id="XMLID_15067_" style="fill:#27DEBF;" d="M263.925,275.745l33.284-16.266v0.543c0,0.276-0.194,0.612-0.433,0.75
					L263.925,276.5V275.745z"/>
				<path id="XMLID_15063_" style="opacity:0.2;" d="M263.925,275.745l33.284-16.266v0.543c0,0.276-0.194,0.612-0.433,0.75
					L263.925,276.5V275.745z"/>
				<path id="XMLID_15060_" style="fill:#27DEBF;" d="M296.85,259.975c0.478-0.276,0.478-0.724,0-1l-36.849-21.273
					c-0.478-0.276-1.254-0.276-1.732,0l-33.441,16.056l38.595,22.265L296.85,259.975z"/>
				<g id="XMLID_14890_">
					<polygon id="XMLID_15059_" style="fill:#27DEBF;" points="263.424,285.927 224.829,263.662 224.829,253.744 263.423,276.027 
											"/>
					<polygon id="XMLID_15057_" style="opacity:0.1;" points="263.424,285.927 224.829,263.662 224.829,253.744 263.423,276.027 
											"/>
					<g id="XMLID_15051_">
						<path id="XMLID_15056_" style="fill:#455A64;" d="M255.81,279.566c0.501,0,0.944-0.21,1.247-0.59
							c0.287-0.359,0.438-0.858,0.438-1.441c-0.001-1.549-1.053-3.37-2.394-4.145c-0.414-0.239-0.82-0.36-1.208-0.36
							c-1.009,0-1.686,0.816-1.686,2.03c0,1.55,1.052,3.371,2.395,4.146C255.016,279.445,255.422,279.566,255.81,279.566
							L255.81,279.566z"/>
						<path id="XMLID_15054_" style="fill:#F5F5F5;" d="M256.995,277.536c0.001,1.366-0.959,1.92-2.143,1.237
							c-1.185-0.683-2.145-2.345-2.145-3.712c0-1.367,0.96-1.921,2.143-1.238C256.034,274.508,256.994,276.17,256.995,277.536z"/>
					</g>
					<path id="XMLID_14918_" style="fill:#F5F5F5;" d="M249.216,272.559v0.749c0,1.502-1.054,2.11-2.355,1.359l-16.724-9.656
						c-1.3-0.751-2.355-2.577-2.355-4.078v-0.75c0-1.502,1.054-2.11,2.355-1.359l16.724,9.656
						C248.161,269.232,249.216,271.057,249.216,272.559z"/>
					<polygon id="XMLID_14907_" style="fill:#27DEBF;" points="263.94,285.634 263.94,275.775 263.423,276.027 263.424,285.927 
											"/>
					<polygon id="XMLID_14896_" style="opacity:0.2;" points="263.94,285.634 263.94,275.775 263.423,276.027 263.424,285.927 					
						"/>
				</g>
			</g>
			<g id="XMLID_15222_">
				<g id="XMLID_15246_">
					<path id="XMLID_15263_" style="fill:#27DEBF;" d="M225.187,251.615c0,0.209,0.169,0.476,0.377,0.596l37.842,21.831
						c0.208,0.12,0.545,0.12,0.754,0l33.915-17.155l0-0.753l-38.58-22.273l-33.93,17.16
						C225.356,251.139,225.187,251.406,225.187,251.615z"/>
					<path id="XMLID_15250_" style="opacity:0.1;" d="M263.783,273.377v0.75c-0.141,0-0.272-0.033-0.381-0.087l-37.836-21.827
						c-0.207-0.12-0.381-0.391-0.381-0.598s0.174-0.479,0.381-0.598c-0.207,0.12-0.207,0.315,0,0.435l37.836,21.838
						C263.511,273.355,263.642,273.377,263.783,273.377z"/>
					<path id="XMLID_15249_" style="opacity:0.5;" d="M298.074,256.132l-33.911,17.158c-0.109,0.065-0.25,0.087-0.381,0.087
						c-0.141,0-0.272-0.022-0.381-0.087l-37.836-21.838c-0.207-0.12-0.207-0.315,0-0.435l33.932-17.157L298.074,256.132z"/>
					<path id="XMLID_15247_" style="opacity:0.2;" d="M298.074,256.132l0,0.753l-33.911,17.155c-0.109,0.065-0.25,0.087-0.381,0.087
						v-0.75c0.13,0,0.272-0.022,0.381-0.087L298.074,256.132z"/>
				</g>
				<g id="XMLID_15243_">
					<polygon id="XMLID_15245_" style="fill:#27DEBF;" points="297.559,256.432 258.964,234.167 258.964,224.25 297.558,246.631 
											"/>
					<polygon id="XMLID_15244_" style="opacity:0.7;" points="297.559,256.432 258.964,234.167 258.964,224.25 297.558,246.631 
											"/>
				</g>
				<g id="XMLID_15234_">
					<path id="XMLID_15242_" style="fill:#EBEBEB;" d="M225.655,246.281c-0.26,0.15-0.471,0.515-0.471,0.816v2.007
						c0,0.3,0.211,0.665,0.471,0.816l37.653,21.722c0.26,0.15,0.682,0.15,0.942,0L293,256.09v-3.094l-38.581-22.273L225.655,246.281
						z"/>
					<path id="XMLID_15241_" style="fill:#FAFAFA;" d="M254.419,230.724l-28.764,15.557c-0.26,0.15-0.26,0.393,0,0.544
						l37.653,21.722c0.26,0.15,0.682,0.15,0.942,0L293,252.996L254.419,230.724z"/>
					<path id="XMLID_15240_" style="fill:#263238;" d="M289.336,253.247c0.1,0.05,0.2,0.09,0.32,0.11c0.17,0.04,0.36,0.04,0.51-0.01
						c0.06-0.01,0.11-0.03,0.16-0.06c0.26-0.14,0.23-0.4-0.07-0.57c-0.13-0.07-0.29-0.12-0.45-0.13c-0.2-0.02-0.4,0.01-0.54,0.09
						c-0.02,0.01-0.04,0.02-0.05,0.04C289.016,252.867,289.056,253.087,289.336,253.247z"/>
					<path id="XMLID_15239_" style="fill:#E6E6E6;" d="M263.782,268.65v3.099c-0.174,0-0.348-0.033-0.478-0.109l-37.651-21.718
						c-0.261-0.152-0.468-0.522-0.468-0.816v-2.012c0-0.25,0.152-0.555,0.359-0.729c-0.141,0.141-0.109,0.326,0.109,0.457
						l37.651,21.718C263.434,268.618,263.608,268.661,263.782,268.65z"/>
					<g id="XMLID_15237_">
						<path id="XMLID_15238_" style="fill:#263238;" d="M294.371,248.955c-0.556-0.329-1.246-0.291-1.948,0.114
							c-1.177,0.68-2.192,2.243-2.663,3.942c0.231,0.033,0.516,0.075,0.643,0.096c0.437-1.508,1.33-2.902,2.34-3.484
							c0.224-0.128,0.513-0.251,0.81-0.251c0.165,0,0.332,0.037,0.491,0.133c0.514,0.307,0.802,1.129,0.771,2.197
							c-0.061,2.054-1.237,4.377-2.623,5.176c-0.263,0.153-0.619,0.294-0.968,0.239l-0.702,0.402
							c0.014,0.009,0.028,0.018,0.042,0.026c0.249,0.149,0.525,0.222,0.817,0.222c0.36,0,0.744-0.112,1.131-0.336
							c1.582-0.913,2.875-3.422,2.942-5.711C295.492,250.397,295.097,249.389,294.371,248.955z"/>
					</g>
				</g>
				<g id="XMLID_15226_">
					<path id="XMLID_15233_" style="fill:#27DEBF;" d="M225.187,245.318c0,0.209,0.169,0.476,0.377,0.596l37.842,21.831
						c0.208,0.12,0.545,0.12,0.754,0l33.915-20.727l0-0.753l-38.58-22.273l-33.93,20.732
						C225.356,244.842,225.187,245.109,225.187,245.318z"/>
					<path id="XMLID_15232_" style="opacity:0.1;" d="M263.783,267.08v0.75c-0.141,0-0.272-0.033-0.381-0.087l-37.836-21.827
						c-0.207-0.12-0.381-0.391-0.381-0.598c0-0.207,0.174-0.479,0.381-0.598c-0.207,0.12-0.207,0.315,0,0.435l37.836,21.838
						C263.511,267.058,263.642,267.08,263.783,267.08z"/>
					<path id="XMLID_15231_" style="fill:#27DEBF;" d="M298.074,246.264l-33.911,20.729c-0.109,0.065-0.25,0.087-0.381,0.087
						c-0.141,0-0.272-0.022-0.381-0.087l-37.836-21.838c-0.207-0.12-0.207-0.315,0-0.435l33.932-20.729L298.074,246.264z"/>
					<path id="XMLID_15227_" style="opacity:0.2;" d="M298.074,246.264l0,0.753l-33.911,20.726c-0.109,0.065-0.25,0.087-0.381,0.087
						v-0.75c0.13,0,0.272-0.022,0.381-0.087L298.074,246.264z"/>
				</g>
				<g id="XMLID_15223_">
					<polygon id="XMLID_15225_" style="fill:#27DEBF;" points="298.074,256.132 298.075,246.281 297.558,246.631 297.559,256.432 
											"/>
					<polygon id="XMLID_15224_" style="opacity:0.2;" points="298.074,256.132 298.075,246.281 297.558,246.631 297.559,256.432 
											"/>
				</g>
			</g>
			<g id="XMLID_15104_">
				<path id="XMLID_15221_" style="fill:#27DEBF;" d="M296.85,246.114c0.239-0.138,0.358-0.318,0.359-0.499c0-0.181,0-0.769,0-0.769
					l-37.207-21.004c-0.478-0.276-1.254-0.276-1.732,0l-33.441,19.307l38.595,22.265L296.85,246.114z"/>
				<path id="XMLID_15220_" style="opacity:0.2;" d="M296.85,246.114c0.239-0.138,0.358-0.318,0.359-0.499c0-0.181,0-0.769,0-0.769
					l-37.207-21.004c-0.478-0.276-1.254-0.276-1.732,0l-33.441,19.307l38.595,22.265L296.85,246.114z"/>
				<path id="XMLID_15219_" style="fill:#27DEBF;" d="M296.85,245.364c0.478-0.276,0.478-0.724,0-1l-36.849-21.273
					c-0.478-0.276-1.254-0.276-1.732,0l-33.441,19.307l38.595,22.265L296.85,245.364z"/>
				<path id="XMLID_15218_" style="opacity:0.5;" d="M296.85,245.364c0.478-0.276,0.478-0.724,0-1l-36.849-21.273
					c-0.478-0.276-1.254-0.276-1.732,0l-33.441,19.307l38.595,22.265L296.85,245.364z"/>
				<g id="XMLID_15211_">
					<path id="XMLID_15217_" style="fill:#EBEBEB;" d="M232.527,237.353l24.758-14.287c0.478-0.276,1.253-0.276,1.732,0
						l33.988,19.621l3.22-1.875v3.813l-0.06,0.036c0.107,0.235,0.021,0.494-0.299,0.678l-28.354,16.363l-38.595-22.265v-4.166
						L232.527,237.353z"/>
					<path id="XMLID_15216_" style="fill:#FAFAFA;" d="M295.865,241.173c0.478-0.276,0.478-0.724,0-1L259.017,218.9
						c-0.478-0.276-1.254-0.276-1.732,0l-28.368,16.37l38.595,22.265L295.865,241.173z"/>
					<polygon id="XMLID_15215_" style="fill:#E6E6E6;" points="267.512,257.536 267.512,261.702 228.916,239.436 228.916,235.27 
											"/>
					<path id="XMLID_15214_" style="fill:#263238;" d="M267.053,255.909c0.1,0.05,0.2,0.09,0.32,0.11c0.17,0.04,0.36,0.04,0.51-0.01
						c0.06-0.01,0.11-0.03,0.16-0.06c0.26-0.14,0.23-0.4-0.07-0.57c-0.13-0.07-0.29-0.12-0.45-0.13c-0.2-0.02-0.4,0.01-0.54,0.09
						c-0.02,0.01-0.04,0.02-0.05,0.04C266.733,255.529,266.773,255.749,267.053,255.909z"/>
					<path id="XMLID_15212_" style="fill:#263238;" d="M262.683,259.169c0,0.59,0.15,1.08,0.44,1.44c0.3,0.38,0.74,0.59,1.24,0.59
						c0.01,0,0.01,0,0.01,0c0.38,0,0.79-0.12,1.2-0.36c0.07-0.04,0.15-0.08,0.22-0.13l-0.49-0.28c-1.18,0.66-2.12,0.1-2.12-1.26
						s0.96-3.03,2.14-3.71c0.64-0.37,1.22-0.38,1.61-0.08c0.2,0.13,0.35,0.35,0.44,0.64c0.17,0.04,0.36,0.04,0.51-0.01
						c-0.07-0.3-0.19-0.56-0.36-0.76c-0.3-0.37-0.73-0.58-1.24-0.58c-0.39,0-0.79,0.12-1.21,0.36
						C263.733,255.799,262.683,257.619,262.683,259.169z"/>
				</g>
				<path id="XMLID_15187_" style="fill:#27DEBF;" d="M263.925,255.232l33.284-16.266v0.544c0,0.276-0.194,0.612-0.433,0.75
					l-32.851,15.727V255.232z"/>
				<path id="XMLID_15186_" style="opacity:0.2;" d="M263.925,255.232l33.284-16.266v0.544c0,0.276-0.194,0.612-0.433,0.75
					l-32.851,15.727V255.232z"/>
				<path id="XMLID_15185_" style="fill:#27DEBF;" d="M296.85,239.462c0.478-0.276,0.478-0.724,0-1l-36.849-21.273
					c-0.478-0.276-1.254-0.276-1.732,0l-33.441,16.056l38.595,22.265L296.85,239.462z"/>
				<g id="XMLID_15122_">
					<polygon id="XMLID_15184_" style="fill:#27DEBF;" points="263.424,265.414 224.829,243.149 224.829,233.232 263.423,255.514 
											"/>
					<polygon id="XMLID_15183_" style="opacity:0.1;" points="263.424,265.414 224.829,243.149 224.829,233.232 263.423,255.514 
											"/>
					<g id="XMLID_15180_">
						<path id="XMLID_15182_" style="fill:#455A64;" d="M255.81,259.053c0.501,0,0.944-0.209,1.247-0.59
							c0.287-0.359,0.438-0.858,0.438-1.441c-0.001-1.549-1.053-3.37-2.394-4.145c-0.414-0.239-0.82-0.36-1.208-0.36
							c-1.009,0-1.686,0.816-1.686,2.03c0,1.55,1.052,3.371,2.395,4.146C255.016,258.932,255.422,259.053,255.81,259.053
							L255.81,259.053z"/>
						<path id="XMLID_15181_" style="fill:#F5F5F5;" d="M256.995,257.023c0.001,1.366-0.959,1.92-2.143,1.237
							c-1.185-0.683-2.145-2.345-2.145-3.712c0-1.367,0.96-1.921,2.143-1.237C256.034,253.995,256.994,255.657,256.995,257.023z"/>
					</g>
					<path id="XMLID_15179_" style="fill:#F5F5F5;" d="M249.216,252.046v0.749c0,1.502-1.054,2.11-2.355,1.359l-16.724-9.656
						c-1.3-0.751-2.355-2.577-2.355-4.078v-0.75c0-1.501,1.054-2.11,2.355-1.359l16.724,9.656
						C248.161,248.719,249.216,250.545,249.216,252.046z"/>
					<polygon id="XMLID_15178_" style="fill:#27DEBF;" points="263.94,265.121 263.94,255.262 263.423,255.514 263.424,265.414 
											"/>
					<polygon id="XMLID_15176_" style="opacity:0.2;" points="263.94,265.121 263.94,255.262 263.423,255.514 263.424,265.414 					
						"/>
				</g>
			</g>
		</g>
		<g id="XMLID_15382_">
			<path id="XMLID_15384_" style="fill:#FFA8A7;" d="M278.55,215.732c-5.982-1.742-27.385-7.734-33.882-9.836
				c-4.528-1.465-6.972-2.504-7.092-6.417c-0.111-3.64,5.282-33.453,7.237-40.797c1.715-6.444,8.498-11.309,14.32-11.68
				c1.944,6.439,2.919,20.982-2.201,25.519c-1.907,7.571-4.121,21.343-4.121,21.343s10.945,5.69,19.642,9.878
				c4.342,2.091,10.153,3.984,13.606,4.356c2.747,0.296,7.68,1.585,8.727,2.55c1.047,0.965,6.087,6.575,7.063,8.187
				c0.976,1.612,3.31,4.889,0,5.935c-3.024,0.955-5.483-0.337-7.936-2.021c-1.58-1.084-3.278-2.707-3.278-2.707
				s-3.621,0.562-7.089-1.407C281.674,217.574,278.55,215.732,278.55,215.732z"/>
		</g>
		<g id="XMLID_15491_">
			<g id="XMLID_15044_">
				<g id="XMLID_15050_">
					<path id="XMLID_15529_" style="fill:#E0E0E0;" d="M387.585,219.415l3.971-48.142c0.123-1.496-0.766-3.281-1.986-3.985
						c-1.22-0.704-3.263-0.667-4.563,0.084l-52.72,30.438c-1.3,0.751-2.455,2.573-2.578,4.069l-3.971,48.142
						c-0.124,1.497,0.765,3.281,1.985,3.985c1.22,0.704,3.263,0.667,4.563-0.084l52.721-30.438
						C386.307,222.733,387.461,220.912,387.585,219.415z"/>
				</g>
				<g id="XMLID_15047_">
					<path id="XMLID_15526_" style="fill:#FAFAFA;" d="M387.585,219.415l3.971-48.142c0.123-1.496-0.766-3.281-1.986-3.985
						c-1.22-0.704-3.263-0.667-4.563,0.084l-52.721,30.438c-0.643,0.371-1.248,1.004-1.713,1.73l8.194,4.731l0,45.91l46.24-26.696
						C386.307,222.734,387.461,220.912,387.585,219.415z"/>
				</g>
				<g id="XMLID_15046_">
					<path id="XMLID_15519_" style="fill:#F0F0F0;" d="M330.155,252.572l3.971-48.142c0.123-1.496,1.278-3.318,2.578-4.069
						l52.721-30.438c1.3-0.751,2.255-0.146,2.131,1.35l-3.971,48.142c-0.123,1.496-1.278,3.318-2.578,4.069l-52.721,30.438
						C330.986,254.673,330.031,254.069,330.155,252.572z"/>
				</g>
				<g id="XMLID_15045_">
					<path id="XMLID_15517_" style="fill:#27DEBF;" d="M357.365,213.945c0.203-2.465,1.931-5.368,3.858-6.485
						c1.928-1.117,3.325-0.024,3.122,2.441c-0.203,2.465-1.931,5.368-3.858,6.485C358.559,217.502,357.162,216.409,357.365,213.945z
						"/>
				</g>
			</g>
			<g id="XMLID_15029_">
				<g id="XMLID_15042_">
					<polygon id="XMLID_15514_" style="fill:#FAFAFA;" points="356.435,229.775 374.106,219.573 371.897,218.297 354.235,228.503 
											"/>
				</g>
				<g id="XMLID_15041_">
					<path id="XMLID_15508_" style="fill:#F5F5F5;" d="M377.579,243.068l-15.78,9.114c-0.283,0.163-0.652,0.239-1.011,0.228
						c-0.305-0.011-0.62-0.087-0.859-0.217c-0.011,0-0.011-0.011-0.022-0.011l-6.949-4.013c-0.011-0.011-0.022-0.011-0.033-0.022
						c-0.511-0.304-0.903-1.011-0.903-1.61v-0.37c0-0.598,0.413-0.848,0.935-0.544l4.198,2.414l0.935,0.544l-0.207-1.066
						l-3.648-19.013l2.202,1.275l17.673-10.201l4.209,21.882C378.427,242.046,378.101,242.775,377.579,243.068z"/>
				</g>
				<g id="XMLID_15040_">
					<polygon id="XMLID_15506_" style="fill:#E0E0E0;" points="352.312,245.548 357.694,242.44 358.788,249.683 					"/>
				</g>
				<g id="XMLID_15039_">
					<path id="XMLID_15504_" style="fill:#EBEBEB;" d="M356.437,229.778l-2.202-1.275l3.648,19.013
						c0.12,0.587-0.218,0.827-0.728,0.522l-4.198-2.414c-0.522-0.304-0.935-0.054-0.935,0.544v0.37c0,0.598,0.392,1.305,0.903,1.61
						c0.011,0.011,0.022,0.011,0.033,0.022l6.949,4.013c0.011,0,0.011,0.011,0.022,0.011c0.239,0.131,0.555,0.207,0.859,0.217
						L356.437,229.778z"/>
				</g>
			</g>
		</g>
		<g id="XMLID_15536_">
			<path id="XMLID_15670_" style="fill:#27DEBF;" d="M284.867,155.276c-1.024,2.056-2.719,2.814-5.715,2.958
				c-2.996,0.144-6.516-1.559-8.047-3.387l3.935-3.447l4.465,3.833l0.651-3.913L284.867,155.276z"/>
			<path id="XMLID_15669_" style="opacity:0.1;" d="M284.867,155.276c-1.024,2.056-2.719,2.814-5.715,2.958
				c-2.996,0.144-6.516-1.559-8.047-3.387l3.935-3.447l4.465,3.833l0.651-3.913L284.867,155.276z"/>
			<g id="XMLID_15544_">
				<path id="XMLID_15668_" style="fill:#27DEBF;" d="M282.61,153.974c0,0,0.603,2.086,0.237,3.991
					c-0.392,2.039-1.531,3.215-1.531,3.215s-1.241,0.863-3.22,0.144c-1.483-1.554-2.923-3.986-2.622-6.814l4.031,0.722
					L282.61,153.974z"/>
				<path id="XMLID_15666_" style="fill:#27DEBF;" d="M281.315,161.18c0,0,3.123,26.877,3.182,29.034
					c0.059,2.157-3.387,9.587-5.226,9.535c-1.839-0.052-5.004-7.178-4.934-9.131c0.07-1.953,3.759-29.294,3.759-29.294
					L281.315,161.18z"/>
				<path id="XMLID_15545_" style="opacity:0.1;" d="M278.095,161.324c0,0,1.589,0.916,3.22-0.144l0.049,0.425
					c0,0-1.423,1.133-3.367,0.447L278.095,161.324z"/>
			</g>
			<g id="XMLID_15538_">
				<g id="XMLID_15540_">
					<path id="XMLID_15543_" style="fill:#E0E0E0;" d="M279.505,155.232l-13.126-11.242l0.09-3.427c0,0-1.872,0.346-4.154,5.899
						c1.646,4.612,5.03,9.687,9.987,12.946l3.172-4.898L279.505,155.232z"/>
					<path id="XMLID_15542_" style="fill:#E0E0E0;" d="M281.129,142.773c0,0,1.836,0.5,3.254,3.41
						c1.149,2.358,1.284,10.944,1.284,10.944l-3.057-3.154l-3.105,1.258c0.471-2.834,1.36-7.99,1.36-7.99L281.129,142.773z"/>
				</g>
			</g>
		</g>
		<path id="XMLID_15711_" style="fill:#E0E0E0;" d="M259.133,147.003c0,0-6.372-0.492-10.654,3.503
			c-4.282,3.995-5.04,7.439-6.747,17.52c-1.706,10.081-2.91,18.662-2.91,18.662s7.141,5.049,15.901,3.131l3.036-16.823
			c0,0,2.862-5.572,3.71-10.135C262.746,155.978,261.245,149.234,259.133,147.003z"/>
	</g>
</g>
</svg>
