<?xml version="1.0" encoding="utf-8"?>
<!-- Generator: Adobe Illustrator 27.5.0, SVG Export Plug-In . SVG Version: 6.00 Build 0)  -->
<svg version="1.1" xmlns="http://www.w3.org/2000/svg" xmlns:xlink="http://www.w3.org/1999/xlink" x="0px" y="0px"
	 viewBox="0 0 750 500" style="enable-background:new 0 0 750 500;" xml:space="preserve">
<g id="BACKGROUND">
	<rect id="XMLID_191_" style="fill:#FFFFFF;" width="750" height="500"/>
</g>
<g id="OBJECTS">
	<g id="XMLID_268_">
		<rect id="XMLID_5742_" x="405.284" y="378.876" width="304.716" height="2.431"/>
		<g id="XMLID_5613_">
			<g id="XMLID_5159_">
				<path id="XMLID_5588_" style="fill:#014375;" d="M649.852,118.987v106.004c0,10.001-7.733,18.197-17.547,18.93
					c0,0.003,0,0.003,0,0.003c-0.474,0.035-0.954,0.052-1.437,0.052c-10.487,0-18.987-8.5-18.987-18.984V118.987
					c0-10.487,8.5-18.987,18.987-18.987c3.254,0,6.316,0.819,8.995,2.262c1.636,0.88,3.128,1.992,4.43,3.297
					C647.727,108.998,649.852,113.744,649.852,118.987z"/>
				<path id="XMLID_5579_" style="fill:#F5A01F;" d="M632.598,185.432c-1.693,3.102-2.886,6.847-1.581,10.133
					c1.541,3.881,5.87,5.677,9.501,7.744c3.51,2.001,6.675,4.599,9.334,7.638v14.043c0,10.484-8.5,18.984-18.984,18.984
					c-10.487,0-18.987-8.5-18.987-18.984V169.13c1.995-0.897,4.231-1.248,6.528-0.877c2.558,0.414,5.396,1.592,7.557,0.164
					c2.081-1.374,2.208-4.349,1.946-6.83c-0.239-2.28-0.615-4.542-1.124-6.776c-0.44-1.938-0.986-3.866-1.09-5.853
					c-0.348-6.511,4.43-12.666,10.553-14.911c2.82-1.035,5.896-1.366,8.572-2.728c2.668-1.36,4.125-3.194,5.028-5.353v26.895
					c-1.501,0.147-3.039,0.742-4.315,1.394c-3.217,1.641-5.836,4.562-6.819,8.069c-1.245,4.433-0.098,9.262-1.294,13.706
					C636.505,179.444,634.291,182.331,632.598,185.432z"/>
				<path id="XMLID_5583_" style="fill:#AF2B31;" d="M638.419,231.263c-0.633,4.723-2.823,9.216-6.114,12.657
					c0,0.003,0,0.003,0,0.003c-0.474,0.035-0.954,0.052-1.437,0.052c-10.487,0-18.987-8.5-18.987-18.984v-39.826
					c0.193-0.014,0.388-0.023,0.586-0.023c2.987-0.006,5.945,1.558,7.566,4.065c2.162,3.34,1.82,7.693,3.133,11.45
					c2.038,5.83,7.719,9.501,11.289,14.54C637.724,219.802,639.169,225.666,638.419,231.263z"/>
				<path id="XMLID_5584_" style="fill:#E6E6E6;" d="M640.19,109.055c-0.871,4.72-4.487,8.515-9.21,9.354
					c-2.306,0.411-4.717,0.474-6.848,1.449c-4.137,1.894-6.16,7.075-5.16,11.513c0.264,1.158,0.698,2.285,0.796,3.467
					c0.101,1.184-0.213,2.498-1.164,3.208c-0.431,0.322-0.951,0.492-1.434,0.724c-2.478,1.187-3.846,3.866-4.778,6.454
					c-0.181,0.503-0.351,1.009-0.512,1.515v-27.752c0-10.487,8.5-18.987,18.987-18.987c3.254,0,6.316,0.819,8.995,2.262
					C640.633,104.395,640.535,107.178,640.19,109.055z"/>
				<path id="XMLID_5572_" style="fill:#D58956;" d="M630.867,100L630.867,100c-0.563,0-1.119,0.029-1.67,0.077
					c9.703,0.846,17.316,8.986,17.316,18.909V224.99c0,9.922-7.613,18.062-17.316,18.908c0.551,0.048,1.107,0.077,1.67,0.077l0,0
					c10.486,0,18.986-8.5,18.986-18.986V118.986C649.852,108.5,641.352,100,630.867,100z"/>
			</g>
			<g id="XMLID_5589_">
				<g id="XMLID_5577_">
					<g id="XMLID_5546_">
						<path id="XMLID_5573_" d="M628.622,128.393c0,0.552-0.448,1-1,1c-0.552,0-1-0.448-1-1c0-0.552,0.448-1,1-1
							C628.174,127.393,628.622,127.84,628.622,128.393z"/>
						<circle id="XMLID_5574_" cx="634.111" cy="128.393" r="1"/>
					</g>
					<g id="XMLID_5581_">
						<path id="XMLID_5587_" d="M628.622,133.888c0,0.552-0.448,1-1,1c-0.552,0-1-0.448-1-1c0-0.552,0.448-1,1-1
							C628.174,132.888,628.622,133.336,628.622,133.888z"/>
						<circle id="XMLID_5586_" cx="634.111" cy="133.888" r="1"/>
					</g>
				</g>
				<g id="XMLID_5590_">
					<g id="XMLID_5594_">
						<path id="XMLID_5596_" d="M628.622,210.087c0,0.552-0.448,1-1,1c-0.552,0-1-0.448-1-1c0-0.552,0.448-1,1-1
							C628.174,209.087,628.622,209.535,628.622,210.087z"/>
						<circle id="XMLID_5595_" cx="634.111" cy="210.087" r="1"/>
					</g>
					<g id="XMLID_5591_">
						<path id="XMLID_5593_" d="M628.622,215.583c0,0.552-0.448,1-1,1c-0.552,0-1-0.448-1-1c0-0.552,0.448-1,1-1
							C628.174,214.583,628.622,215.031,628.622,215.583z"/>
						<circle id="XMLID_5592_" cx="634.111" cy="215.583" r="1"/>
					</g>
				</g>
			</g>
		</g>
		<g id="XMLID_4946_">
			<g id="XMLID_5544_">
				<path id="XMLID_5585_" style="fill:#F5A01F;" d="M700.512,171.988c0,0.946-0.006,1.889-0.014,2.826
					c-0.029,2.421-0.089,4.809-0.181,7.161c-0.187,4.732-0.506,9.317-0.946,13.709c-2.794,28.117-10.424,48.292-19.398,48.292
					c-4.53,0-8.716-5.137-12.111-13.844c-1.892-4.847-3.539-10.794-4.861-17.581c-0.095-0.483-0.187-0.972-0.279-1.466
					c-1.228-6.641-2.15-14.031-2.702-21.937c-0.132-1.906-0.244-3.841-0.331-5.801c-0.17-3.697-0.256-7.491-0.256-11.358
					c0-3.251,0.06-6.451,0.181-9.587c0.181-4.786,0.497-9.423,0.931-13.862c0.253-2.564,0.546-5.065,0.874-7.489
					c0.224-1.636,0.463-3.234,0.719-4.798c0.492-3.015,1.046-5.893,1.656-8.612c0.897-4.019,1.915-7.696,3.033-10.964
					c1.641-4.798,3.498-8.716,5.516-11.545c2.357-3.312,4.933-5.131,7.629-5.131c5.971,0,11.346,8.929,15.098,23.184
					c1.981,7.517,3.507,16.518,4.433,26.473c0.124,1.325,0.236,2.668,0.339,4.025C700.279,159.526,700.512,165.66,700.512,171.988z"
					/>
				<path id="XMLID_5580_" style="fill:#AF2B31;" d="M699.842,153.682c-0.27,0.043-0.546,0.02-0.805-0.086
					c-0.549-0.224-0.906-0.75-1.225-1.25c-3.053-4.827-5.669-10.194-10.297-13.543c-4.789-3.47-11.441-4.186-16.86-1.814
					c-2.202,0.963-4.177,2.38-6.35,3.401c-0.897,0.423-1.869,0.782-2.852,0.667c-0.011,0-0.023-0.003-0.034-0.006
					c0.224-1.636,0.463-3.234,0.719-4.798c0.492-3.015,1.046-5.893,1.656-8.612c1.547-0.894,2.915-1.966,4.254-3.306
					c2.501-2.498,4.959-5.327,8.34-6.362c2.386-0.733,5.062-0.443,7.238,0.776c1.751,0.986,3.148,2.518,4.901,3.504
					c1.966,1.104,4.341,1.406,6.543,0.931c1.981,7.517,3.507,16.518,4.433,26.473C699.627,150.982,699.739,152.325,699.842,153.682z
					"/>
				<path id="XMLID_5578_" style="fill:#F5A01F;" d="M682.212,190.926c-0.914,4.617-3.504,8.782-6.753,12.188
					c-3.248,3.407-7.149,6.12-11.114,8.656c-0.425,0.273-0.88,0.549-1.345,0.779c-0.095-0.483-0.187-0.972-0.279-1.466
					c-1.228-6.641-2.15-14.031-2.702-21.937c-0.132-1.906-0.244-3.841-0.331-5.801c0.701,0.871,1.345,1.805,1.969,2.351
					c1.871,1.641,4.013,2.972,6.299,3.953c2.288,0.978,4.732,1.604,7.21,1.82C675.925,191.535,682.04,191.794,682.212,190.926z"/>
				<path id="XMLID_5575_" style="fill:#AF2B31;" d="M700.498,174.813c-0.029,2.421-0.089,4.809-0.181,7.161
					c-0.187,4.732-0.506,9.317-0.946,13.709c-0.198,0.181-0.402,0.356-0.609,0.532c-3.251,2.728-7.063,4.7-10.93,6.451
					c-5.6,2.538-11.924,5.16-14.414,10.783c-0.796,1.791-1.104,3.915-0.267,5.689c0.834,1.771,3.064,2.938,4.852,2.139
					c1.259-0.563,2.021-1.958,2.084-3.337c0.06-1.38-0.486-2.731-1.262-3.872c3.484-0.561,6.928,2.438,7.428,5.93
					c0.5,3.493-1.535,7.037-4.493,8.957c-2.961,1.923-6.675,2.397-10.179,2.009c-1.265-0.141-2.53-0.391-3.72-0.834
					c-2.027-5.192-3.772-11.651-5.14-19.048c0.736-1.348,1.633-2.613,2.642-3.763c2.636-3.007,5.982-5.298,8.851-8.084
					c2.869-2.785,5.353-6.339,5.482-10.334c7.98-2.645,14.049-9.006,20.767-14.063C700.475,174.831,700.486,174.822,700.498,174.813
					z"/>
				<path id="XMLID_5545_" style="fill:#014375;" d="M700.512,171.988c0,3.389-0.066,6.724-0.195,9.987
					c-1.268,1.938-2.768,3.726-4.444,5.309c-4.246,4.019-9.65,6.865-15.423,7.799c-5.772,0.931-11.893-0.109-16.886-3.154
					c-1.285-0.785-2.501-1.705-3.544-2.783c-0.382-5.499-0.586-11.246-0.586-17.159c0-3.251,0.06-6.451,0.181-9.587
					c0.181-4.786,0.497-9.423,0.931-13.862c0.423-4.295,0.957-8.406,1.593-12.286c2.216-1.636,4.884-2.722,7.506-3.185
					c5.091-0.897,10.366,0.204,15.141,2.188c4.68,1.946,9.116,4.844,11.959,9.044c1.13,1.667,1.981,3.498,2.76,5.358
					C700.159,156.686,700.512,164.191,700.512,171.988z"/>
				<path id="XMLID_5576_" style="fill:#E6E6E6;" d="M692.02,173.853c-2.265,5.105-6.373,9.63-11.717,11.251
					c-5.344,1.624-11.878-0.276-14.643-5.126c-1.641-2.875-1.834-6.413-1.095-9.639c0.535-2.346,1.607-4.669,3.498-6.163
					c1.892-1.492,4.715-1.952,6.738-0.644c2.297,1.486,2.872,4.582,2.855,7.319c1.176-1.708,2.107-3.645,2.285-5.709
					c0.175-2.067-0.5-4.275-2.084-5.609c-1.417-1.193-3.355-1.561-5.206-1.618c-4.694-0.15-9.406,1.512-13.037,4.484
					c0.181-4.786,0.497-9.423,0.931-13.862c0.164-0.124,0.319-0.242,0.469-0.354c3.036-2.294,6.744-3.677,10.49-4.255
					c2.794-0.431,5.675-0.469,8.423,0.193c5.933,1.432,10.823,6.178,12.95,11.898C695.004,161.739,694.493,168.273,692.02,173.853z"
					/>
				<path id="XMLID_5582_" style="fill:#AF2B31;" d="M673.476,115.072c-1.82,0.862-4.482,1.725-6.649,1.604
					c1.641-4.798,3.498-8.716,5.516-11.545c0.173-0.032,0.348-0.058,0.523-0.078c1.814-0.207,3.858,0.296,4.818,1.552
					c0.431,0.566,0.615,1.236,0.656,1.9C678.501,111.182,676.342,113.715,673.476,115.072z"/>
				<path id="XMLID_5597_" style="fill:#D58956;" d="M699.503,149.657C696.824,120.833,689.091,100,679.973,100
					c-0.547,0-1.088,0.077-1.624,0.224c8.403,2.307,15.387,22.338,17.905,49.433c0.656,7.029,1.009,14.534,1.009,22.331
					c0,0.946-0.006,1.889-0.014,2.826c-0.029,2.421-0.089,4.809-0.181,7.161c-0.187,4.732-0.506,9.317-0.946,13.709
					c-2.624,26.403-9.511,45.801-17.773,48.068c0.536,0.147,1.077,0.223,1.624,0.223c8.975,0,16.604-20.174,19.398-48.292
					c0.44-4.393,0.759-8.978,0.946-13.709c0.092-2.352,0.152-4.74,0.181-7.161c0.009-0.937,0.014-1.88,0.014-2.826
					C700.512,164.191,700.159,156.686,699.503,149.657z"/>
			</g>
			<g id="XMLID_5598_">
				<g id="XMLID_5606_">
					<g id="XMLID_5610_">
						<path id="XMLID_5612_" d="M677.728,128.392c0,0.552-0.448,1-1,1s-1-0.448-1-1c0-0.552,0.448-1,1-1
							S677.728,127.84,677.728,128.392z"/>
						<path id="XMLID_5611_" d="M684.217,128.392c0,0.552-0.448,1-1,1c-0.552,0-1-0.448-1-1c0-0.552,0.448-1,1-1
							C683.769,127.392,684.217,127.84,684.217,128.392z"/>
					</g>
					<g id="XMLID_5607_">
						<path id="XMLID_5609_" d="M677.728,133.888c0,0.552-0.448,1-1,1s-1-0.448-1-1c0-0.552,0.448-1,1-1
							S677.728,133.336,677.728,133.888z"/>
						<path id="XMLID_5608_" d="M684.217,133.888c0,0.552-0.448,1-1,1c-0.552,0-1-0.448-1-1c0-0.552,0.448-1,1-1
							C683.769,132.888,684.217,133.336,684.217,133.888z"/>
					</g>
				</g>
				<g id="XMLID_5599_">
					<g id="XMLID_5603_">
						<circle id="XMLID_5605_" cx="676.728" cy="210.087" r="1"/>
						<path id="XMLID_5604_" d="M684.217,210.087c0,0.552-0.448,1-1,1c-0.552,0-1-0.448-1-1c0-0.552,0.448-1,1-1
							C683.769,209.087,684.217,209.535,684.217,210.087z"/>
					</g>
					<g id="XMLID_5600_">
						<path id="XMLID_5602_" d="M677.728,215.583c0,0.552-0.448,1-1,1s-1-0.448-1-1c0-0.552,0.448-1,1-1
							S677.728,215.03,677.728,215.583z"/>
						<path id="XMLID_5601_" d="M684.217,215.583c0,0.552-0.448,1-1,1c-0.552,0-1-0.448-1-1c0-0.552,0.448-1,1-1
							C683.769,214.583,684.217,215.03,684.217,215.583z"/>
					</g>
				</g>
			</g>
		</g>
		<g id="XMLID_5715_">
			<g id="XMLID_5233_">
				<path id="XMLID_5245_" style="fill:#231F20;" d="M597.861,174.238c0,2.829-2.294,5.126-5.123,5.126
					c-2.831,0-5.125-2.297-5.125-5.126c0-0.385,0.043-0.759,0.124-1.118c0.509-2.294,2.556-4.007,5.002-4.007
					c2.446,0,4.49,1.713,4.999,4.007C597.818,173.479,597.861,173.853,597.861,174.238z"/>
				<path id="XMLID_5243_" d="M597.861,174.238c0,2.829-2.294,5.126-5.123,5.126c-2.831,0-5.125-2.297-5.125-5.126
					c0-0.385,0.043-0.759,0.124-1.118h10.001C597.818,173.479,597.861,173.853,597.861,174.238z"/>
				<rect id="XMLID_5227_" x="585.493" y="241.101" style="fill:#231F20;" width="14.489" height="15.246"/>
				<rect id="XMLID_5230_" x="585.493" y="241.101" width="14.489" height="6.676"/>
				<path id="XMLID_5226_" d="M642.09,245.805h-98.706c-1.669,0-3.023-1.353-3.023-3.022v-65.743c0-1.669,1.353-3.022,3.023-3.022
					h98.706c1.669,0,3.022,1.353,3.022,3.022v65.743C645.112,244.452,643.759,245.805,642.09,245.805z"/>
				<path id="XMLID_5228_" style="fill:#014375;" d="M543.384,243.793c-0.557,0-1.01-0.453-1.01-1.01v-65.743
					c0-0.557,0.453-1.01,1.01-1.01h98.706c0.557,0,1.01,0.453,1.01,1.01v65.743c0,0.557-0.453,1.01-1.01,1.01H543.384z"/>
				<g id="XMLID_5258_">
					<path id="XMLID_5683_" style="fill:#752B31;" d="M604.761,182.414c-0.489-0.743-1.326-1.199-2.153-1.211
						c-0.876-0.013-1.158,0.091-1.8-0.721c-0.39-0.493-1.278-0.919-1.857-0.784c-0.196,0.046-0.381,0.144-0.58,0.174
						c-0.469,0.072-0.908-0.238-1.357-0.407c-0.768-0.29-1.656-0.155-2.324,0.353c-0.266,0.203-0.496,0.458-0.758,0.668
						c-0.592,0.474-1.317,0.69-1.983,1.023c-0.666,0.334-1.325,0.856-1.526,1.635c-0.117,0.456-0.062,0.947-0.151,1.41
						c-0.197,1.022-1.066,1.797-1.144,2.839c-0.039,0.521,0.13,1.034,0.165,1.556c0.079,1.155-0.462,2.455,0.151,3.396
						c0.433,0.665,1.308,0.865,1.682,1.572c0.148,0.28,0.2,0.612,0.347,0.894c0.443,0.849,1.522,0.917,2.392,0.748
						c0.592-0.115,1.174-0.291,1.736-0.525c0.316-0.132,0.65-0.284,0.98-0.207c0.476,0.112,0.772,0.656,1.222,0.863
						c0.59,0.271,1.274-0.101,1.897,0.058c0.744,0.19,1.282,1.105,2.043,1.058c0.461-0.028,0.831-0.408,1.159-0.766
						c0.551-0.602,1.103-1.205,1.654-1.807c0.246-0.269,0.497-0.545,0.654-0.886c0.168-0.367,0.217-0.785,0.302-1.186
						c0.267-1.262,0.914-2.546,0.54-3.777c-0.166-0.547-0.517-0.999-0.746-1.517c-0.255-0.578-0.351-1.24-0.273-1.877
						c0.048-0.39,0.159-0.771,0.163-1.164C605.205,183.319,605.03,182.823,604.761,182.414z"/>
					<path id="XMLID_5682_" style="fill:#F68080;" d="M582.034,217.699l-1.497,4.053c-0.153,0.424-0.313,0.837-0.48,1.245
						c-3.272,7.986-9.033,12.723-12.942,8.985c-3.398-3.241-8.485-14.245-10.154-17.975c-0.184-0.189-0.365-0.381-0.542-0.576
						c-2.106-2.304-4.215-4.607-6.321-6.911c-0.348-0.381-1.459-2.048-0.979-2.562c0.789-0.842,4.093,2.739,4.613,3.279
						c-1.101-1.594-2.201-3.188-3.302-4.785c-0.286-0.411-0.576-0.839-0.665-1.331c-0.089-0.492,0.087-1.067,0.531-1.295
						c0.716-0.358,1.489,0.337,1.987,0.965c1.226,1.544,2.454,3.087,3.683,4.631c-0.876-1.786-1.811-3.563-2.447-5.452
						c-0.201-0.59-0.929-2.364-0.515-2.931c0.884-1.205,2.281,1.074,2.592,1.722c0.994,2.062,1.987,4.124,2.981,6.189
						c-0.557-2.305-0.918-4.658-1.069-7.021c-0.044-0.662,0.032-1.487,0.643-1.73c0.845-0.335,1.492,0.783,1.708,1.663
						c0.71,2.938,1.277,5.91,1.701,8.903c0.384-1.354,1.036-2.628,1.906-3.735c0.189-0.238,0.415-0.484,0.714-0.533
						c0.775-0.12,1.044,1.013,0.902,1.785c-0.369,2.044-1.223,3.962-1.622,5.998c-0.011,0.044-0.016,0.091-0.023,0.135l6.886,12.683
						l1.298-2.823l1.24-2.706L582.034,217.699z"/>
					<path id="XMLID_5681_" d="M582.034,217.699l-1.497,4.053c-0.153,0.424-0.313,0.837-0.48,1.245
						c-4.237-0.569-6.939-1.866-8.434-2.719l1.24-2.706L582.034,217.699z"/>
					<path id="XMLID_5703_" style="fill:#F68080;" d="M611.863,222.607c0.823,3.91,2.107,16.637,2.552,21.186h8.846
						c-0.472-5.568-2.037-17.545-3.013-22.595c-0.547-2.846-0.951-4.784-0.951-4.784l-9.851-0.705c0,0,0.889,1.329,1.761,4.283
						C611.433,220.751,611.655,221.622,611.863,222.607z"/>
					<path id="XMLID_5679_" d="M620.248,221.197c-4.187,0.75-7.299-0.309-9.041-1.206c-0.872-2.953-1.761-4.283-1.761-4.283
						l9.851,0.705C619.297,216.414,619.701,218.352,620.248,221.197z"/>
					<path id="XMLID_5678_" style="fill:#FFFFFF;" d="M622.079,218.23c0,0-3.446,1.141-6.855,1.292
						c-1.646,0.074-3.28-0.084-4.516-0.712c-3.787-1.933-7.617-18.199-7.617-18.199s0.718,0.131,1.879,0.488
						c0.003,0,0.01,0.003,0.014,0.003C609.16,202.387,619.038,206.596,622.079,218.23z"/>
					<path id="XMLID_5677_" style="opacity:0.3;fill:#368CAD;" d="M615.223,219.522c-1.646,0.074-3.28-0.084-4.516-0.712
						c-3.787-1.933-7.617-18.199-7.617-18.199s0.718,0.131,1.879,0.488c0.003,0,0.01,0.003,0.014,0.003
						c2.065,0.981,4.871,3.062,7.083,7.465C613.936,212.288,614.818,216.303,615.223,219.522z"/>
					<path id="XMLID_5676_" style="fill:#FFFFFF;" d="M570.111,218.927c0,0,3.395,1.284,6.795,1.577
						c1.641,0.143,3.281,0.053,4.542-0.523c3.864-1.773,8.37-17.865,8.37-17.865s-0.722,0.101-1.898,0.409
						c-0.003,0-0.01,0.002-0.014,0.002C583.68,203.637,573.635,207.429,570.111,218.927z"/>
					<path id="XMLID_5675_" style="opacity:0.3;fill:#368CAD;" d="M576.906,220.504c1.641,0.143,3.281,0.053,4.542-0.523
						c3.864-1.773,8.37-17.865,8.37-17.865s-0.722,0.101-1.898,0.409c-0.003,0-0.01,0.002-0.014,0.002
						c-2.104,0.894-4.994,2.855-7.389,7.163C578.495,213.329,577.446,217.305,576.906,220.504z"/>
					<path id="XMLID_5696_" style="fill:#FFFFFF;" d="M612.849,243.793c0.168-6.513,0.563-29.545-2.034-35.44
						c-3.033-6.887-9.391-8.33-9.391-8.33l-7.365,0.574c0,0-8.544,1.501-12.432,10.753c-3.016,7.176-4.01,24.867-4.305,32.444
						H612.849z"/>
					<path id="XMLID_5671_" style="fill:#F68080;" d="M591.866,193.294c-0.473,0.068-0.972-0.149-1.406-0.503
						c-0.941-0.762-1.582-2.171-1.003-2.74c0.363-0.357,0.782-0.333,1.143-0.187c0.483,0.189,0.863,0.597,0.863,0.597
						L591.866,193.294z"/>
					<path id="XMLID_5664_" d="M591.866,193.294c-0.473,0.068-0.972-0.149-1.406-0.503c-0.08-1.046,0.045-2.24,0.14-2.928
						c0.483,0.189,0.863,0.597,0.863,0.597L591.866,193.294z"/>
					<path id="XMLID_5658_" style="fill:#F68080;" d="M603.643,193.107c0.475,0.053,0.966-0.179,1.39-0.547
						c0.916-0.792,1.512-2.22,0.915-2.771c-0.374-0.345-0.792-0.308-1.148-0.151c-0.476,0.204-0.843,0.624-0.843,0.624
						L603.643,193.107z"/>
					<path id="XMLID_5657_" d="M603.643,193.107c0.475,0.053,0.966-0.179,1.39-0.547c0.046-1.048-0.116-2.237-0.233-2.922
						c-0.476,0.204-0.843,0.624-0.843,0.624L603.643,193.107z"/>
					<path id="XMLID_5651_" style="fill:#F68080;" d="M601.383,202.264c-3.967,3.245-8.706,0.139-8.706,0.139l0.646-4.23
						l0.328-2.149l6.891-0.11l0.56,4.234L601.383,202.264z"/>
					<path id="XMLID_5650_" d="M601.102,200.148c-3.407,0.818-6.198-0.739-7.778-1.976l0.328-2.149l6.891-0.11L601.102,200.148z"/>
					<path id="XMLID_5648_" style="fill:#F68080;" d="M604.392,191.092c-0.242,4.245-3.427,7.515-7.115,7.305
						c-3.688-0.21-6.482-3.821-6.24-8.066c0.242-4.245,3.428-7.515,7.115-7.305C601.84,183.236,604.633,186.847,604.392,191.092z"/>
					<path id="XMLID_5647_" style="fill:#752B31;" d="M593.47,190.775c0.37-0.579,0.515-1.389,1.145-1.661
						c0.652-0.281,1.412,0.211,2.102,0.044c0.817-0.198,1.174-1.201,1.927-1.573c0.443-0.219,0.873-0.098,1.326-0.191
						c0.326-0.067,0.634-0.403,0.974-0.13c0.199,0.159,0.291,0.413,0.391,0.648c0.1,0.235,0.236,0.48,0.472,0.576
						c0.135,0.055,0.285,0.053,0.426,0.088c0.499,0.122,0.774,0.656,0.901,1.154c0.067,0.264,0.113,0.538,0.242,0.778
						c0.129,0.24,0.366,0.446,0.638,0.444c0.481-0.003,0.721-0.581,0.784-1.058c0.343-2.571-0.965-5.508-3.27-6.794
						c-2.157-1.204-4.85-1.4-7.159-0.523c-1.151,0.438-2.285,1.235-2.599,2.426c-0.105,0.397-0.112,0.818-0.245,1.207
						c-0.284,0.828-1.102,1.412-1.295,2.266c-0.068,0.303-0.052,0.617-0.034,0.927c0.043,0.774-0.293,1.665,0.556,2.146
						C591.643,192.053,592.946,191.596,593.47,190.775z"/>
				</g>
				<path id="XMLID_5229_" style="fill:#333333;" d="M610.263,258.397h-35.051v-0.946c0-2.79,2.262-5.052,5.052-5.052h24.948
					c2.79,0,5.052,2.262,5.052,5.052V258.397z"/>
				<circle id="XMLID_5234_" style="fill:#014375;" cx="592.737" cy="171.637" r="1.128"/>
			</g>
			<path id="XMLID_5247_" d="M633.857,258.397H526.405c-0.261,0-0.472-0.211-0.472-0.472v-3.311c0-0.261,0.211-0.472,0.472-0.472
				h107.452c0.261,0,0.472,0.211,0.472,0.472v3.311C634.329,258.186,634.118,258.397,633.857,258.397z"/>
			<path id="XMLID_5521_" d="M654.711,258.397c0.143-0.494,0.221-1.008,0.221-1.537c0-3.774-3.848-6.833-8.595-6.833
				s-8.595,3.059-8.595,6.833c0,0.529,0.078,1.043,0.221,1.537H654.711z"/>
		</g>
		<g id="XMLID_5617_">
			<g id="XMLID_5614_">
				<path id="XMLID_5627_" style="fill:#014375;" d="M447.854,240.927c-0.016-0.035-0.045-0.071-0.08-0.103
					c-0.006,0-0.006-0.003-0.006-0.006c-0.369-0.318-1.609-0.552-1.995-0.838c-0.703-0.527-1.294-1.432-1.815-2.129
					c-1.079-1.442-1.975-3.019-2.74-4.648c-1.529-3.254-2.525-6.748-3.225-10.268c-0.536-2.701-0.928-5.435-1.031-8.187
					c-0.347-9.045,2.364-18.346-0.263-27.005c0,0,0.007,0.006,0.023,0.023c0.051,0.058,0.106,0.119,0.157,0.18
					c0.016,0.016,0.029,0.035,0.048,0.055c5.441,6.196,7.272,14.916,6.925,23.167c-0.103,2.467-0.379,4.92-0.472,7.387
					C443.098,226.223,444.643,233.958,447.854,240.927z"/>
				<path id="XMLID_5626_" style="opacity:0.5;fill:#014375;" d="M447.854,240.927c-0.029-0.035-0.055-0.067-0.08-0.103
					c-0.006,0-0.006-0.003-0.006-0.006c-8.251-10.13-6.877-25.454-7.304-37.685c-0.363-10.339-2.781-14.177-3.536-15.134
					c5.441,6.196,7.272,14.916,6.925,23.167c-0.103,2.467-0.379,4.92-0.472,7.387C443.098,226.223,444.643,233.958,447.854,240.927z
					"/>
			</g>
			<g id="XMLID_5622_">
				<path id="XMLID_5624_" style="fill:#014375;" d="M450.368,243.671c-0.002-0.036-0.015-0.076-0.035-0.115
					c-0.005-0.002-0.004-0.005-0.003-0.008c-0.212-0.396-1.2-1.009-1.437-1.382c-0.43-0.686-0.638-1.661-0.854-2.433
					c-0.45-1.598-0.697-3.251-0.815-4.904c-0.236-3.304,0.067-6.639,0.632-9.898c0.435-2.5,1.004-4.98,1.828-7.381
					c2.701-7.891,8.116-14.99,8.728-23.306c0,0,0.004,0.008,0.012,0.027c0.025,0.067,0.052,0.137,0.076,0.207
					c0.008,0.019,0.013,0.04,0.023,0.063c2.624,7.131,1.306,15.236-1.728,22.215c-0.906,2.087-1.958,4.105-2.855,6.195
					C451.154,229.451,449.917,236.613,450.368,243.671z"/>
				<path id="XMLID_5623_" style="opacity:0.5;fill:#014375;" d="M450.368,243.671c-0.013-0.04-0.024-0.076-0.035-0.115
					c-0.005-0.002-0.004-0.005-0.003-0.008c-3.735-11.446,2.528-24.165,6.216-34.823c3.116-9.01,2.31-13.112,1.978-14.185
					c2.624,7.131,1.306,15.236-1.728,22.215c-0.906,2.087-1.958,4.105-2.855,6.195C451.154,229.451,449.917,236.613,450.368,243.671
					z"/>
			</g>
			<g id="XMLID_5616_">
				<path id="XMLID_5619_" style="fill:#014375;" d="M449.692,241.126c-0.01-0.043-0.034-0.088-0.065-0.131
					c-0.007-0.002-0.006-0.005-0.005-0.009c-0.335-0.433-1.646-0.969-2.005-1.37c-0.655-0.737-1.102-1.866-1.517-2.75
					c-0.863-1.829-1.494-3.764-1.969-5.727c-0.95-3.922-1.26-7.989-1.239-12.018c0.017-3.092,0.2-6.186,0.706-9.236
					c1.651-10.026,6.722-19.647,5.778-29.761c0,0,0.006,0.008,0.02,0.03c0.044,0.075,0.09,0.154,0.133,0.233
					c0.014,0.021,0.024,0.045,0.041,0.071c4.592,8.037,4.646,18.039,2.411,27.037c-0.667,2.69-1.522,5.327-2.179,8.019
					C447.764,223.885,447.725,232.739,449.692,241.126z"/>
				<path id="XMLID_5618_" style="opacity:0.5;fill:#014375;" d="M449.692,241.126c-0.024-0.045-0.045-0.087-0.065-0.131
					c-0.007-0.002-0.006-0.005-0.005-0.009c-6.799-12.996-1.844-29.541,0.435-43.089c1.924-11.453,0.126-16.218-0.489-17.44
					c4.592,8.037,4.646,18.039,2.411,27.037c-0.667,2.69-1.522,5.327-2.179,8.019C447.764,223.885,447.725,232.739,449.692,241.126z
					"/>
			</g>
			<path id="XMLID_5629_" style="fill:#AF2B31;" d="M459.849,236.074v8.438c0,0.482-0.016,0.96-0.051,1.429
				c-0.064,0.887-0.183,1.751-0.36,2.589c-0.886,4.256-3.154,7.808-6.16,9.867h-12.019c-3.006-2.059-5.274-5.611-6.163-9.867
				c-0.177-0.838-0.296-1.702-0.36-2.589c-0.035-0.469-0.052-0.947-0.052-1.429v-8.438H459.849z"/>
			<rect id="XMLID_5621_" x="434.684" y="240.645" style="fill:#F5A01F;" width="25.165" height="2.586"/>
			<path id="XMLID_5620_" style="fill:#F5A01F;" d="M459.797,245.941c-0.064,0.887-0.183,1.751-0.36,2.589h-24.343
				c-0.177-0.838-0.296-1.702-0.36-2.589H459.797z"/>
		</g>
		<g id="XMLID_5223_">
			<rect id="XMLID_5220_" x="414.772" y="100" style="fill:#E6E6E6;" width="44.154" height="60.35"/>
			<rect id="XMLID_5236_" x="417.647" y="102.875" style="fill:#014375;" width="38.406" height="54.602"/>
			<rect id="XMLID_5232_" x="417.647" y="102.875" style="fill:#AF2B31;" width="38.406" height="11.829"/>
			<rect id="XMLID_5225_" x="417.647" y="151.478" style="fill:#AF2B31;" width="38.406" height="5.998"/>
			<path id="XMLID_5231_" style="fill:#F5A01F;" d="M456.053,119.312v9.139c-0.371,0.161-0.722,0.365-1.044,0.618
				c-1.699,1.342-2.202,3.66-2.673,5.772c-0.144,0.65-0.308,1.325-0.736,1.834c-1.159,1.377-3.421,0.785-4.898-0.239
				c-1.478-1.026-2.921-2.429-4.72-2.392c-1.805,0.04-3.245,1.578-4.013,3.217c-0.768,1.636-1.092,3.461-1.929,5.062
				c-0.84,1.601-2.449,3.024-4.246,2.826c-1.915-0.216-3.154-2.096-4.85-3.01c-2.561-1.377-5.884-0.293-7.946,1.759
				c-0.506,0.503-0.951,1.049-1.351,1.63v-9.949c0.158-0.184,0.325-0.362,0.5-0.535c2.061-2.053,5.387-3.136,7.946-1.759
				c1.696,0.914,2.935,2.794,4.85,3.007c1.797,0.201,3.406-1.222,4.246-2.823s1.161-3.427,1.929-5.062
				c0.768-1.638,2.208-3.176,4.013-3.217c1.799-0.037,3.243,1.365,4.72,2.389c1.48,1.026,3.743,1.618,4.898,0.242
				c0.428-0.509,0.592-1.184,0.739-1.834c0.468-2.113,0.972-4.43,2.673-5.772C454.719,119.775,455.366,119.482,456.053,119.312z"/>
		</g>
		<g id="XMLID_5246_">
			<g id="XMLID_5240_">
				<g id="XMLID_5239_">
					<rect id="XMLID_5237_" x="439.532" y="261.386" style="fill:#999999;" width="7.709" height="138.614"/>
					<rect id="XMLID_5238_" x="439.532" y="261.386" width="7.709" height="6.215"/>
				</g>
				<g id="XMLID_5241_">
					<rect id="XMLID_5244_" x="660.492" y="261.386" style="fill:#999999;" width="7.709" height="138.614"/>
					<rect id="XMLID_5242_" x="660.492" y="261.386" width="7.709" height="6.215"/>
				</g>
			</g>
			<path id="XMLID_5235_" style="fill:#E6E6E6;" d="M680.926,263.974H426.807c-1.721,0-3.115-1.395-3.115-3.115l0,0
				c0-1.721,1.395-3.115,3.115-3.115h254.119c1.721,0,3.115,1.395,3.115,3.115l0,0C684.041,262.58,682.646,263.974,680.926,263.974z
				"/>
		</g>
		<g id="XMLID_5542_">
			<rect id="XMLID_5543_" x="608.11" y="286.577" width="8.653" height="105.54"/>
			<rect id="XMLID_5524_" x="610.924" y="278.694" width="46.155" height="121.306"/>
			<rect id="XMLID_5527_" x="610.924" y="364.203" style="fill:#014375;" width="46.155" height="35.797"/>
			<rect id="XMLID_5528_" x="610.924" y="394.862" width="46.155" height="5.138"/>
			<rect id="XMLID_5525_" x="610.924" y="278.694" style="fill:#F5A01F;" width="46.155" height="36.824"/>
			<rect id="XMLID_5526_" x="619.19" y="312.139" style="fill:#AF2B31;" width="29.623" height="3.379"/>
			<g id="XMLID_5532_">
				<path id="XMLID_5529_" style="fill:#F5A01F;" d="M640.223,373.934c0,3.436-2.786,6.222-6.222,6.222
					c-3.436,0-6.222-2.786-6.222-6.222s2.785-6.222,6.222-6.222C637.437,367.712,640.223,370.497,640.223,373.934z"/>
				<path id="XMLID_5530_" style="fill:#AF2B31;" d="M634.001,377.479L634.001,377.479c-0.58,0-1.054-0.474-1.054-1.054v-4.983
					c0-0.58,0.474-1.054,1.054-1.054l0,0c0.58,0,1.054,0.474,1.054,1.054v4.983C635.055,377.005,634.581,377.479,634.001,377.479z"
					/>
			</g>
		</g>
		<g id="XMLID_5643_">
			<g id="XMLID_5625_">
				<path id="XMLID_5631_" style="fill:#D58956;" d="M554.134,385.215c-1.317,0.017-3.37,0.987-3.68,5.137l0.046,2.793
					c0.016,0.987,0.709,1.833,1.674,2.041c5.088,1.097,21.13,4.306,36.271,4.691c9.268,0.236,13.757,0.095,15.93-0.101
					c1.157-0.104,2.044-1.069,2.058-2.23l0.021-1.717c0.019-1.563-0.873-2.994-2.284-3.665l-1.254-0.596L554.134,385.215z"/>
				<path id="XMLID_5644_" d="M605.171,392.09v2.087c0,0-41.085,0.296-52.296-5.008c0,0-2.645-3.869,3.168-19.674
					c0.543-1.48,1.161-3.067,1.863-4.766l20.913,2.398c0,0-0.227,4.956,2.834,9.708c1.095,1.699,2.613,3.372,4.712,4.783
					C594.331,386.973,604.714,386.375,605.171,392.09z"/>
				<path id="XMLID_5642_" d="M581.653,376.834c-8.983-0.584-19.956-4.878-25.61-7.339c0.543-1.48,1.161-3.067,1.863-4.766
					l20.913,2.398C578.819,367.126,578.592,372.082,581.653,376.834z"/>
			</g>
			<g id="XMLID_5632_">
				<g id="XMLID_5633_">
					<path id="XMLID_5636_" style="fill:#D58956;" d="M502.217,380.13c-1.109,0.014-2.838,0.832-3.099,4.327l0.039,2.353
						c0.014,0.832,0.597,1.544,1.41,1.719c4.285,0.924,17.797,3.627,30.55,3.951c7.806,0.198,11.587,0.08,13.417-0.085
						c0.974-0.088,1.722-0.9,1.734-1.878l0.018-1.446c0.016-1.316-0.735-2.522-1.924-3.087l-1.056-0.502L502.217,380.13z"/>
					<path id="XMLID_5635_" d="M545.203,385.92v1.758c0,0-34.604,0.249-44.047-4.218c0,0-2.227-3.259,2.668-16.571
						c0.458-1.247,0.978-2.583,1.569-4.014l17.614,2.019c0,0-0.191,4.174,2.387,8.176c0.922,1.431,2.201,2.84,3.968,4.029
						C536.073,381.61,544.818,381.107,545.203,385.92z"/>
					<path id="XMLID_5634_" d="M525.395,373.071c-7.566-0.492-16.808-4.109-21.571-6.181c0.458-1.247,0.978-2.583,1.569-4.014
						l17.614,2.019C523.008,364.894,522.816,369.069,525.395,373.071z"/>
				</g>
				<path id="XMLID_5669_" style="fill:#014375;" d="M528.457,366.056c-12.2,2.217-27.062-2.826-27.062-2.826v-66.945l23.728,0.842
					c0,0,0.489,9.236,1.089,20.959c0.707,13.747,1.57,30.908,1.989,40.608C528.371,362.575,528.469,365.263,528.457,366.056z"/>
				<path id="XMLID_5649_" style="opacity:0.5;fill:#014375;" d="M526.212,318.087c-7.368,1.4-16.475,0.615-24.817-0.851v-20.951
					l23.728,0.842C525.123,297.128,525.612,306.364,526.212,318.087z"/>
				<path id="XMLID_5667_" style="opacity:0.5;fill:#014375;" d="M528.457,366.056c-12.2,2.217-27.062-2.826-27.062-2.826v-6.344
					c4.95,1.429,16.406,4.093,26.806,1.808C528.371,362.575,528.469,365.263,528.457,366.056z"/>
			</g>
			<path id="XMLID_5641_" style="fill:#014375;" d="M590.257,359.198c-0.647,5.229-1.089,8.515-1.089,8.515
				c-16.17,2.817-37.138-2.607-37.138-2.607l1.679-9.009l10.096-55.073l-37.552-2.386c0,0-21.528,4.74-40.199-0.724
				c-12.062-3.533-15.584-13.954-16.564-20.89c-0.54-3.803-0.316-6.56-0.316-6.56s54.236-6.488,71.188-5.968
				c4.838,0.147,10.944,1.481,17.297,3.547c15.906,5.171,33.366,14.931,36.393,22.138
				C597.352,298.042,592.542,340.734,590.257,359.198z"/>
			<path id="XMLID_5638_" d="M557.658,268.042c-38.814,20.839-76.662,12.373-88.169,8.98c-0.54-3.803-0.316-6.56-0.316-6.56
				s54.236-6.488,71.188-5.968C545.199,264.641,551.305,265.975,557.658,268.042z"/>
			<path id="XMLID_5637_" style="opacity:0.5;fill:#014375;" d="M590.257,359.198c-0.647,5.229-1.089,8.515-1.089,8.515
				c-16.17,2.817-37.138-2.607-37.138-2.607l1.679-9.009C560.171,357.887,572.601,360.301,590.257,359.198z"/>
			
				<path id="XMLID_5630_" style="fill:none;stroke:#000000;stroke-width:0.3774;stroke-linecap:round;stroke-linejoin:round;stroke-miterlimit:10;" d="
				M566.721,291.152c-2.108,4.065-2.917,9.87-2.917,9.87s-2.614-4.124-2.148-8.838"/>
			<g id="XMLID_5646_">
				<path id="XMLID_5672_" style="fill:#F15A24;" d="M643.033,240.143c-0.477,0.178-0.974,0.348-1.486,0.506
					c-1.21,0.377-2.386,0.658-3.464,0.845c-2.728,0.472-4.841,0.325-5.39-0.451c-0.049-0.069-0.086-0.138-0.109-0.216l-4.496-14.46
					l-5.137-16.509l-0.469-1.503l16.443-5.114l0.469,1.503l0.207,0.667l0.523,1.676l0.362,1.167l0.627,2.015l7.914,25.441
					C649.389,236.877,646.793,238.752,643.033,240.143z"/>
				<path id="XMLID_5662_" style="fill:#FFFFFF;" d="M634.271,221.305c-1.069,5.468,1.089,10.987,3.076,16.19
					c0.483,1.265,0.937,2.719,0.736,3.999c-2.728,0.472-4.841,0.325-5.39-0.451c-0.049-0.069-0.086-0.138-0.109-0.216l-4.496-14.46
					c0.218-1.972,0.71-3.889,1.601-5.672c1.791-3.579,4.999-6.221,7.296-9.495c0.848-1.207,1.57-2.507,2.153-3.861
					c0.172-0.405,0.247-1.242,0.463-1.929l0.523,1.676l0.362,1.167c-0.204,0.431-0.388,0.768-0.483,0.917
					c-0.917,1.463-2.09,2.757-2.947,4.252c-0.779,1.363-1.279,2.863-1.776,4.352C634.895,218.937,634.507,220.104,634.271,221.305z"
					/>
				<path id="XMLID_5668_" style="fill:#F5A01F;" d="M639.394,204.744c-1.262,1.492-4.14,3.133-7.698,4.24
					c-3.556,1.107-6.862,1.389-8.745,0.874l-0.469-1.503l16.443-5.114L639.394,204.744z"/>
				<path id="XMLID_5645_" style="fill:#666666;" d="M638.925,203.24c0.409,1.315-2.94,3.526-7.48,4.938
					c-4.54,1.412-8.553,1.491-8.962,0.176s2.94-3.526,7.48-4.938C634.504,202.004,638.516,201.925,638.925,203.24z"/>
				<path id="XMLID_5655_" style="fill:#999999;" d="M622.648,208.639c0.762-1.29,3.65-2.95,7.316-4.091
					c4.183-1.301,7.915-1.47,8.797-0.46c0.182-0.308,0.244-0.594,0.165-0.848c-0.409-1.315-4.421-1.236-8.962,0.176
					c-4.54,1.412-7.889,3.623-7.48,4.938C622.516,208.459,622.573,208.553,622.648,208.639z"/>
				<path id="XMLID_5639_" d="M628.632,206.558c0.161,0.517-0.651,1.23-1.814,1.591c-1.162,0.362-2.235,0.236-2.396-0.282
					c-0.161-0.517,0.651-1.23,1.814-1.592C627.398,205.914,628.471,206.04,628.632,206.558z"/>
				<path id="XMLID_5659_" style="fill:#F5A01F;" d="M643.329,238.806c-0.063,0.451-0.161,0.9-0.296,1.337
					c-0.477,0.178-0.974,0.348-1.486,0.506c-4.277,1.331-8.086,1.478-8.854,0.394c0.342-0.868,0.558-1.785,0.632-2.717
					c0.153-1.94-0.293-3.872-0.739-5.767c-0.342-1.466-0.684-2.932-1.029-4.398c-0.256-1.101-0.517-2.211-0.555-3.34
					c-0.127-3.844,2.268-7.262,4.605-10.312c1.457-1.903,2.949-3.835,3.938-6.031c0.19-0.423,0.411-0.9,0.578-1.391l0.989,3.182
					c-1.003,1.604-2.245,3.099-3.007,4.835c-1.018,2.326-1.112,4.996-0.512,7.463c0.601,2.466,1.869,4.737,3.45,6.724
					c0.503,0.632,1.044,1.251,1.4,1.978c0.345,0.713,0.497,1.503,0.629,2.288C643.367,235.291,643.579,237.064,643.329,238.806z"/>
			</g>
			<path id="XMLID_5666_" style="fill:#FFFFFF;stroke:#231F20;stroke-width:0.3774;stroke-miterlimit:10;" d="M624.308,214.144
				c0,0.066-0.034,0.118-0.086,0.161c-0.055-0.104-0.101-0.164-0.129-0.164C623.951,214.139,624.31,214.004,624.308,214.144z"/>
			<path id="XMLID_5663_" style="fill:#F68080;" d="M651.689,212.86c-5.293,2.46-7.535,4.033-7.552,4.044
				c0.424-0.298,1.938,2.61,2.013,2.864c0.336,1.135,0.118,2.111-0.249,3.198c-0.265,0.785-0.27,0.748,0.304,1.312
				c0.485,0.477,0.918,0.871,1.166,1.531c0.337,0.9,0.264,1.946-0.196,2.79c0.354-0.095,0.688,0.21,0.88,0.522
				c0.584,0.951,0.582,2.184,0.186,3.227c-0.396,1.044-1.143,1.92-1.974,2.664c-2.279,2.039-5.271,3.074-8.236,3.61
				c-5.528,0.997-12.528,2.765-15.446,0.607c-0.043-0.032-0.083-0.063-0.123-0.095l-1.026-1.196l-5.726,1.432l-2.168-12.973
				c1.955-0.423,3.57-1.831,4.74-3.455c0.017-0.023,0.032-0.046,0.049-0.069c1.173-1.656,1.969-3.542,2.906-5.341
				c0.655-1.262,1.472-2.564,2.783-3.113c0.069-0.029,0.144-0.063,0.201-0.112c0.371,0.678,1.227,3.211,1.227,3.211
				s1.463,1.653,5.554-1.446c4.088-3.102,16.199-10.191,21.281-10.671C657.369,204.92,656.998,210.39,651.689,212.86z"/>
			<path id="XMLID_5660_" d="M622.586,239.229c-0.043-0.032-0.083-0.063-0.123-0.095l-1.026-1.196l-5.726,1.432l-2.168-12.973
				c1.955-0.423,3.57-1.831,4.74-3.455C620.073,225.502,622.793,230.806,622.586,239.229z"/>
			<path id="XMLID_5654_" style="fill:#AF2B31;" d="M508.004,168.641l-4.907,8.641l-20.522,28.804c0,0-5.804,3.044-12.525,4.479
				c-3.007,0.641-6.198,0.96-9.136,0.54c-9.507-1.36-10.858-13.209,3.154-23.71c8.808-6.603,23.911-12.318,33.91-15.65
				C503.879,169.78,508.004,168.641,508.004,168.641z"/>
			<path id="XMLID_5652_" style="opacity:0.5;fill:#AF2B31;" d="M508.004,168.641l-4.907,8.641l-20.522,28.804
				c0,0-5.804,3.044-12.525,4.479c3.789-19.881,18.533-32.573,27.927-38.82C503.879,169.78,508.004,168.641,508.004,168.641z"/>
			<path id="XMLID_5628_" style="fill:#AF2B31;" d="M509.755,169.113c0,0,2.608-4.044,3.994-4.613
				c1.386-0.569,11.011-3.069,18.026,3.871c0,0,1.44,0.658,1.209,6.242C532.752,180.198,509.755,169.113,509.755,169.113z"/>
			<path id="XMLID_5656_" style="fill:#E6E6E6;" d="M550.267,266.711c0,0-29.345,17.975-84.012,8.348c0,0-3.174-12.258,0-35.528
				c3.171-23.273,13.962-60.71,45.581-72.488c0,0,9.32-3.823,20.652,4.665c0,0,14.149,11.378,15.112,31.708
				c0.336,7.072,0.086,12.637-0.382,17.26c-0.88,8.667-2.541,14.008-2.596,19.72c-0.04,4.174,1.463,9.622,2.944,14.529
				C549.19,260.315,550.785,265.049,550.267,266.711z"/>
			<path id="XMLID_5653_" style="opacity:0.5;fill:#999999;" d="M547.565,254.925c-8.44-10.179-23.121-35.172-27.235-50.784
				c-5.091-19.324,4.131-24.926,4.66-25.145c0.529-0.221,2.498,4.55,3.122,5.14l19.105,36.54c-0.88,8.667-2.541,14.008-2.596,19.72
				C544.581,244.57,546.085,250.018,547.565,254.925z"/>
			<path id="XMLID_5665_" style="fill:#E6E6E6;" d="M618.817,239.421l-4.206,1.093l-6.503,1.69l-3.202-18.024l4.002-0.796
				l6.744-1.345C615.652,222.038,620.947,229.179,618.817,239.421z"/>
			<path id="XMLID_5661_" style="opacity:0.5;fill:#999999;" d="M614.611,240.514l-6.503,1.69l-3.202-18.024l4.002-0.796
				C611.162,225.798,615.232,231.479,614.611,240.514z"/>
			<path id="XMLID_5640_" style="fill:#AF2B31;" d="M554.345,254.142c-0.213-0.169-26.643-33.861-32.526-52.633
				s2.875-23.737,8.468-25.093c5.593-1.356,11.488,4.866,23.316,29.468c11.829,24.602,13.118,24.349,13.118,24.349
				s30.759-10.062,37.46-8.824c6.701,1.238,10.572,17.163,6.199,22.767C606.008,249.778,561.707,260.004,554.345,254.142z"/>
			<path id="XMLID_5615_" d="M547.928,135.69c-0.881-2.19-2.462-1.172-3.975-1.68c-1.602-0.538-0.913-0.752-1.345-2.255
				c-0.342-1.187-0.753-2.088-1.708-2.975c-1.599-1.483-3.908-2.162-6.054-1.781c0.689-1.287-0.139-3.123-1.56-3.458
				c-1.421-0.335-2.982,0.937-2.941,2.396c-0.807-2.052-3.221-3.326-5.37-2.836c-2.15,0.49-3.772,2.685-3.61,4.884
				c-2.528-0.869-5.533-0.483-7.553,1.267c-2.021,1.75-2.807,4.9-1.561,7.265c-2.71,0.159-5.508,1.577-6.568,4.076
				c-1.06,2.499,0.333,5.954,3.009,6.415c-2.029,2.066-3.501,4.993-2.869,7.819c0.632,2.826,4.058,4.979,6.58,3.556
				c-0.546,1.965,0.189,4.224,1.787,5.492c1.598,1.268,3.965,1.471,5.755,0.493c1.013,2.171,3.102,3.807,5.453,4.269
				c2.351,0.462,4.904-0.261,6.664-1.888c2.65,1.817,6.594,1.057,8.702-1.368c2.108-2.425,2.418-6.118,1.142-9.067
				c3.263-1.83,6.539-4.154,7.929-7.628c1.39-3.474-0.022-8.266-3.633-9.247C547.678,138.984,548.505,137.125,547.928,135.69z"/>
		</g>
		<g id="XMLID_5255_">
			<g id="XMLID_5519_">
				<path id="XMLID_5523_" d="M516.53,395.378c0,2.553-2.069,4.622-4.622,4.622c-2.553,0-4.622-2.069-4.622-4.622
					c0-2.553,2.069-4.622,4.622-4.622C514.461,390.756,516.53,392.825,516.53,395.378z"/>
				<path id="XMLID_5522_" style="fill:#666666;" d="M511.908,396.8L511.908,396.8c-0.888,0-1.614-0.727-1.614-1.614v-4.366
					c0-0.888,0.726-1.614,1.614-1.614l0,0c0.888,0,1.614,0.727,1.614,1.614v4.366C513.523,396.073,512.796,396.8,511.908,396.8z"/>
			</g>
			<rect id="XMLID_5520_" x="493.427" y="308.553" style="fill:#999999;" width="6.931" height="58.071"/>
			<path id="XMLID_5518_" d="M500.357,308.553v8.19c-2.38-0.316-4.709-0.707-6.931-1.138v-7.052H500.357z"/>
			<path id="XMLID_5541_" style="fill:#666666;" d="M515.593,390.232c-2.106-0.357-5.402-2.92-13.486-8.474
				c-5.3-3.641-7.947-4.364-9.176-4.301c-0.387-0.02-0.915,0.039-1.621,0.241l-2.683,6.422c3.98,0.75,15.827,6.089,18.292,8.25
				c2.761,2.421,6.199,2.492,6.199,2.492C516.224,394.862,517.698,390.589,515.593,390.232z"/>
			<path id="XMLID_5515_" style="fill:#F5A01F;" d="M540.361,216.874v51.034c0,2.107-1.365,3.979-3.378,4.599
				c-8.359,2.576-17.86,4.375-28.06,5.18c-3.979,0.313-8.061,0.477-12.223,0.477c-1.38,0-2.751-0.017-4.111-0.055
				c-13.278-0.345-25.631-2.354-36.169-5.603c-2.012-0.621-3.378-2.492-3.378-4.599v-51.034c0-2.107,1.366-3.979,3.378-4.6
				c11.619-3.579,25.444-5.657,40.28-5.657c14.839,0,28.663,2.078,40.283,5.657C538.996,212.895,540.361,214.767,540.361,216.874z"
				/>
			<path id="XMLID_5513_" d="M508.924,277.688c-3.979,0.313-8.061,0.477-12.223,0.477c-1.38,0-2.751-0.017-4.111-0.055
				c-0.696-2.377-1.44-4.786-1.44-4.786l12.375-1.722L508.924,277.688z"/>
			<path id="XMLID_5673_" style="fill:#F5A01F;" d="M553.203,297.01c0,4.988-3.323,9.383-8.138,10.685
				c-12.396,3.346-26.703,5.258-41.941,5.258c-15.239,0-29.546-1.912-41.939-5.258c-2.409-0.65-4.444-2.076-5.876-3.961
				c-1.435-1.886-2.265-4.232-2.265-6.724c0-3.553,3.289-6.204,6.755-5.422c9.538,2.145,19.878,3.605,30.75,4.246
				c4.119,0.244,8.316,0.368,12.574,0.368c3.645,0,7.244-0.092,10.789-0.27c11.525-0.581,22.477-2.081,32.538-4.344
				c0.414-0.092,0.822-0.138,1.225-0.138C550.65,291.45,553.203,293.879,553.203,297.01z"/>
			<path id="XMLID_5670_" d="M513.911,295.932c-4.22,4.266-7.652,4.105-14.678,4.234c-7.79,0.141-11.369-3.7-11.369-3.7
				s1.026-0.253,2.685-0.632c4.119,0.244,8.316,0.368,12.574,0.368C506.768,296.202,510.367,296.11,513.911,295.932z"/>
			<g id="XMLID_5261_" style="opacity:0.5;">
				<path id="XMLID_5509_" style="fill:#F15A24;" d="M546.449,291.587c-1.175,0.264-2.366,0.514-3.564,0.758
					c1.298,1.262,2.146,3.175,2.146,5.364l0,0c0,4.518-1.85,8.646-4.81,11.196c1.644-0.38,3.259-0.783,4.842-1.211
					c4.815-1.301,8.141-5.697,8.141-10.685l0,0C553.204,293.457,549.914,290.807,546.449,291.587z"/>
			</g>
			<path id="XMLID_5257_" style="opacity:0.5;fill:#F15A24;" d="M536.983,212.275c-1.731-0.533-3.516-1.029-5.341-1.493
				c0.443,0.83,0.695,1.798,0.695,2.814v57.591c0,1.017-0.251,1.984-0.695,2.814c1.825-0.465,3.61-0.96,5.341-1.493
				c2.014-0.62,3.379-2.492,3.379-4.599v-51.034C540.362,214.768,538.997,212.896,536.983,212.275z"/>
			<path id="XMLID_5256_" style="fill:#999999;" d="M506.312,297.222c-3.748-11.809-2.787-25.621-2.787-25.621l-24.344-0.856
				c0,0-0.964,14.729,2.81,26.549c0.547,1.715,2.15,2.872,3.949,2.872h18.231C505.699,300.166,506.774,298.679,506.312,297.222z"/>
			<path id="XMLID_5347_" style="opacity:0.5;fill:#999999;" d="M506.312,297.222c-3.748-11.809-2.787-25.621-2.787-25.621
				l-4.983-0.175c-0.132,2.669-0.517,15.002,2.886,25.724c0.474,1.492-0.628,3.016-2.194,3.016h4.937
				C505.699,300.166,506.774,298.679,506.312,297.222z"/>
			<path id="XMLID_5540_" style="fill:#E6E6E6;" d="M503.103,368.651v9.078h-12.419v-9.078c0-2.05,1.659-3.708,3.708-3.708h5.002
				C501.441,364.942,503.103,366.601,503.103,368.651z"/>
			<path id="XMLID_5531_" style="opacity:0.5;fill:#999999;" d="M503.103,369.631v8.098h-12.419v-5.896
				C493.823,370.479,498.541,368.984,503.103,369.631z"/>
			<g id="XMLID_5510_">
				<circle id="XMLID_5248_" cx="466.148" cy="394.602" r="5.398"/>
				<path id="XMLID_5271_" style="fill:#666666;" d="M466.148,396.263L466.148,396.263c-1.037,0-1.885-0.848-1.885-1.885v-5.099
					c0-1.037,0.848-1.885,1.885-1.885l0,0c1.037,0,1.885,0.848,1.885,1.885v5.099C468.033,395.415,467.184,396.263,466.148,396.263z
					"/>
			</g>
			<g id="XMLID_5514_">
				<circle id="XMLID_5517_" cx="527.601" cy="394.602" r="5.398"/>
				<path id="XMLID_5516_" style="fill:#666666;" d="M527.601,396.263L527.601,396.263c-1.037,0-1.885-0.848-1.885-1.885v-5.099
					c0-1.037,0.848-1.885,1.885-1.885l0,0c1.037,0,1.885,0.848,1.885,1.885v5.099C529.487,395.415,528.638,396.263,527.601,396.263z
					"/>
			</g>
			<path id="XMLID_5511_" style="fill:#999999;" d="M536.539,387.882c-3.684-0.428-9.45-3.499-23.593-10.152
				c-9.272-4.362-13.903-5.228-16.053-5.153c-2.15-0.075-6.781,0.792-16.053,5.153c-14.143,6.653-19.91,9.724-23.593,10.152
				c-3.683,0.428-1.105,5.548,4.331,5.548c0,0,6.015-0.085,10.846-2.986c4.526-2.718,18.165-6.948,24.47-7.471
				c6.305,0.523,19.944,4.753,24.47,7.471c4.831,2.901,10.845,2.986,10.845,2.986C537.644,393.43,540.223,388.31,536.539,387.882z"
				/>
		</g>
	</g>
	<g id="XMLID_259_">
		<rect id="XMLID_176_" x="40" y="378.876" width="304.716" height="2.431"/>
		<g id="XMLID_195_">
			<polygon id="XMLID_292_" points="82.639,287.691 161.617,287.691 149.561,232.824 70.583,232.824 			"/>
			<polygon id="XMLID_291_" style="fill:#F5A01F;" points="160.036,285.339 149.014,235.177 74.853,235.177 85.876,285.339 			"/>
			<g id="XMLID_270_">
				<path id="XMLID_289_" style="fill:#752B31;" d="M111.951,241.274c0.314-0.533,0.879-0.88,1.453-0.918
					c0.608-0.04,0.808,0.022,1.225-0.565c0.253-0.357,0.855-0.684,1.263-0.611c0.138,0.025,0.27,0.086,0.409,0.1
					c0.328,0.033,0.622-0.197,0.928-0.331c0.524-0.229,1.146-0.167,1.627,0.163c0.192,0.131,0.361,0.301,0.55,0.437
					c0.428,0.309,0.939,0.433,1.414,0.641c0.475,0.208,0.951,0.548,1.118,1.082c0.098,0.313,0.076,0.656,0.155,0.975
					c0.173,0.704,0.804,1.211,0.895,1.932c0.046,0.361-0.053,0.723-0.06,1.087c-0.014,0.805,0.408,1.69,0.015,2.365
					c-0.277,0.477-0.878,0.647-1.113,1.152c-0.093,0.2-0.117,0.433-0.209,0.633c-0.278,0.606-1.025,0.691-1.636,0.604
					c-0.415-0.059-0.826-0.161-1.225-0.304c-0.224-0.08-0.461-0.174-0.689-0.109c-0.327,0.094-0.513,0.483-0.818,0.643
					c-0.4,0.209-0.889-0.025-1.316,0.107c-0.51,0.158-0.852,0.813-1.382,0.808c-0.321-0.003-0.592-0.254-0.833-0.492
					c-0.404-0.399-0.809-0.798-1.214-1.197c-0.181-0.178-0.365-0.361-0.486-0.593c-0.13-0.249-0.179-0.538-0.252-0.813
					c-0.23-0.867-0.725-1.737-0.509-2.605c0.096-0.386,0.324-0.712,0.464-1.081c0.157-0.411,0.2-0.874,0.123-1.314
					c-0.047-0.269-0.138-0.53-0.155-0.803C111.674,241.918,111.778,241.568,111.951,241.274z"/>
				<path id="XMLID_288_" style="fill:#F68080;" d="M128.992,264.989l1.184,2.764c0.121,0.289,0.247,0.571,0.378,0.848
					c2.556,5.434,6.727,8.521,9.311,5.786c2.246-2.372,5.392-10.199,6.42-12.851c0.121-0.138,0.24-0.277,0.357-0.419
					c1.382-1.675,2.766-3.351,4.148-5.026c0.228-0.277,0.942-1.475,0.59-1.815c-0.578-0.557-2.747,2.048-3.09,2.442
					c0.708-1.146,1.417-2.293,2.125-3.442c0.184-0.296,0.37-0.604,0.415-0.948c0.044-0.345-0.098-0.739-0.415-0.881
					c-0.51-0.224-1.023,0.286-1.347,0.741c-0.797,1.116-1.596,2.232-2.395,3.348c0.545-1.272,1.132-2.54,1.508-3.875
					c0.119-0.417,0.562-1.675,0.254-2.055c-0.657-0.806-1.547,0.827-1.741,1.289c-0.618,1.468-1.235,2.936-1.853,4.406
					c0.305-1.622,0.473-3.269,0.494-4.917c0.007-0.461-0.074-1.032-0.508-1.179c-0.599-0.203-1.009,0.597-1.128,1.216
					c-0.389,2.067-0.678,4.152-0.867,6.247c-0.314-0.927-0.813-1.79-1.456-2.528c-0.14-0.158-0.305-0.322-0.515-0.345
					c-0.543-0.056-0.69,0.741-0.564,1.272c0.329,1.407,0.99,2.71,1.34,4.11c0.009,0.03,0.014,0.063,0.021,0.093l-4.337,9.057
					l-1.002-1.915l-0.958-1.836L128.992,264.989z"/>
				<path id="XMLID_287_" d="M128.992,264.989l1.184,2.764c0.121,0.289,0.247,0.571,0.378,0.848
					c2.924-0.545,4.756-1.543,5.765-2.188l-0.958-1.836L128.992,264.989z"/>
				<path id="XMLID_286_" style="fill:#F68080;" d="M102.656,285.339h6.117c0,0-0.866-12.518-0.335-15.883
					c0.11-0.692,0.233-1.305,0.364-1.841c0.501-2.083,1.072-3.039,1.072-3.039l-6.82,0.839c0,0-0.212,1.361-0.492,3.358
					C102.023,272.594,102.703,281.969,102.656,285.339z"/>
				<path id="XMLID_285_" d="M102.562,268.773c2.936,0.373,5.061-0.473,6.24-1.158c0.501-2.083,1.072-3.039,1.072-3.039l-6.82,0.839
					C103.053,265.415,102.841,266.776,102.562,268.773z"/>
				<path id="XMLID_284_" style="fill:#FFFFFF;" d="M101.184,266.776c0,0,2.435,0.671,4.809,0.655
					c1.146-0.007,2.277-0.175,3.113-0.655c2.563-1.477,4.649-12.916,4.649-12.916s-0.494,0.116-1.288,0.405
					c-0.002,0-0.007,0.002-0.009,0.002C109.601,255.309,102.885,258.583,101.184,266.776z"/>
				<path id="XMLID_283_" style="opacity:0.3;fill:#368CAD;" d="M105.994,267.431c1.146-0.007,2.277-0.175,3.113-0.655
					c2.563-1.477,4.649-12.916,4.649-12.916s-0.494,0.116-1.288,0.405c-0.002,0-0.007,0.002-0.009,0.002
					c-1.4,0.755-3.276,2.3-4.658,5.439C106.632,262.358,106.162,265.18,105.994,267.431z"/>
				<path id="XMLID_282_" style="fill:#FFFFFF;" d="M137.322,265.42c0,0-2.314,1.013-4.666,1.336
					c-1.136,0.157-2.278,0.153-3.175-0.203c-2.748-1.095-6.449-12.118-6.449-12.118s0.506,0.045,1.333,0.217
					c0.002,0,0.007,0.001,0.01,0.001C127.351,255.276,134.466,257.555,137.322,265.42z"/>
				<path id="XMLID_281_" style="opacity:0.3;fill:#368CAD;" d="M132.655,266.756c-1.136,0.157-2.278,0.153-3.175-0.203
					c-2.748-1.095-6.449-12.118-6.449-12.118s0.506,0.045,1.333,0.217c0.002,0,0.007,0.001,0.01,0.001
					c1.494,0.547,3.572,1.807,5.388,4.716C131.298,261.827,132.167,264.553,132.655,266.756z"/>
				<path id="XMLID_280_" style="fill:#FFFFFF;" d="M120.031,253.529c0,0,5.991,0.74,9.02,7.032
					c3.029,6.291,5.753,24.777,5.753,24.777h-24.795c0,0-3.211-20.933-1.347-25.826c1.864-4.893,6.231-6.121,6.231-6.121
					L120.031,253.529z"/>
				<path id="XMLID_279_" style="fill:#F68080;" d="M121.297,248.378c0.331,0.031,0.67-0.138,0.96-0.399
					c0.627-0.563,1.022-1.565,0.6-1.94c-0.265-0.235-0.555-0.204-0.801-0.09c-0.329,0.149-0.578,0.446-0.578,0.446L121.297,248.378z
					"/>
				<path id="XMLID_278_" d="M121.297,248.378c0.331,0.031,0.67-0.138,0.96-0.399c0.018-0.73-0.111-1.555-0.201-2.03
					c-0.329,0.149-0.578,0.446-0.578,0.446L121.297,248.378z"/>
				<path id="XMLID_277_" style="fill:#F68080;" d="M113.106,248.665c-0.328,0.054-0.678-0.09-0.985-0.331
					c-0.665-0.518-1.129-1.489-0.734-1.893c0.247-0.253,0.54-0.242,0.793-0.145c0.338,0.125,0.608,0.404,0.608,0.404
					L113.106,248.665z"/>
				<path id="XMLID_276_" d="M113.106,248.665c-0.328,0.054-0.678-0.09-0.985-0.331c-0.069-0.727,0.002-1.559,0.059-2.039
					c0.338,0.125,0.608,0.404,0.608,0.404L113.106,248.665z"/>
				<path id="XMLID_275_" style="fill:#F68080;" d="M115,254.948c2.872,2.115,6.055-0.212,6.055-0.212l-0.599-2.917l-0.304-1.482
					l-4.792,0.168l-0.239,2.962L115,254.948z"/>
				<path id="XMLID_274_" d="M115.121,253.468c2.396,0.448,4.281-0.733,5.335-1.649l-0.304-1.482l-4.792,0.168L115.121,253.468z"/>
				<path id="XMLID_273_" style="fill:#F68080;" d="M112.514,247.291c0.318,2.941,2.648,5.101,5.203,4.825
					c2.555-0.277,4.369-2.885,4.051-5.826c-0.318-2.941-2.648-5.101-5.203-4.825C114.01,241.741,112.196,244.35,112.514,247.291z"/>
				<path id="XMLID_272_" style="fill:#752B31;" d="M120.092,246.684c-0.278-0.389-0.407-0.947-0.855-1.114
					c-0.463-0.173-0.974,0.197-1.459,0.105c-0.575-0.109-0.858-0.793-1.395-1.025c-0.315-0.136-0.61-0.037-0.928-0.086
					c-0.229-0.035-0.455-0.257-0.682-0.056c-0.133,0.118-0.188,0.298-0.248,0.464c-0.061,0.167-0.147,0.342-0.308,0.417
					c-0.092,0.043-0.196,0.047-0.293,0.076c-0.342,0.102-0.515,0.483-0.585,0.834c-0.037,0.186-0.059,0.378-0.14,0.549
					c-0.081,0.171-0.238,0.323-0.428,0.331c-0.334,0.015-0.522-0.379-0.583-0.707c-0.329-1.775,0.475-3.861,2.032-4.837
					c1.456-0.913,3.32-1.145,4.956-0.617c0.816,0.263,1.632,0.777,1.892,1.594c0.087,0.273,0.107,0.565,0.213,0.83
					c0.227,0.566,0.816,0.942,0.98,1.529c0.058,0.208,0.058,0.427,0.057,0.643c-0.003,0.539,0.263,1.147-0.31,1.511
					C121.407,247.508,120.486,247.236,120.092,246.684z"/>
				<polygon id="XMLID_271_" style="fill:#EC1C24;" points="114.389,267.431 124.965,267.431 124.331,262.736 113.756,262.736 				
					"/>
			</g>
			<polygon id="XMLID_202_" points="83.033,288.894 187.203,288.894 186.143,285.115 81.973,285.115 			"/>
			<path id="XMLID_200_" style="fill:#333333;" d="M112.603,233.878c0,0.325,0.264,0.589,0.589,0.589
				c0.325,0,0.589-0.264,0.589-0.589c0-0.325-0.264-0.589-0.589-0.589C112.867,233.289,112.603,233.553,112.603,233.878z"/>
			
				<rect id="XMLID_199_" x="98.361" y="286.354" transform="matrix(-1 -1.224647e-16 1.224647e-16 -1 202.5251 574.0115)" style="fill:#333333;" width="5.802" height="1.304"/>
			
				<rect id="XMLID_198_" x="94.597" y="286.354" transform="matrix(-1 -1.224647e-16 1.224647e-16 -1 191.3905 574.0115)" style="fill:#333333;" width="2.196" height="1.304"/>
		</g>
		<g id="XMLID_294_">
			<g id="XMLID_296_">
				<g id="XMLID_300_">
					<rect id="XMLID_302_" x="83.615" y="291.858" style="fill:#999999;" width="7.709" height="108.142"/>
					<rect id="XMLID_301_" x="83.615" y="291.858" width="7.709" height="6.215"/>
				</g>
				<g id="XMLID_297_">
					<rect id="XMLID_299_" x="175.071" y="291.858" style="fill:#999999;" width="7.709" height="108.142"/>
					<rect id="XMLID_298_" x="175.071" y="291.858" width="7.709" height="6.215"/>
				</g>
			</g>
			<path id="XMLID_295_" style="fill:#E6E6E6;" d="M195.505,294.446H70.89c-1.721,0-3.115-1.395-3.115-3.115l0,0
				c0-1.721,1.395-3.115,3.115-3.115h124.615c1.721,0,3.115,1.395,3.115,3.115l0,0C198.62,293.051,197.225,294.446,195.505,294.446z
				"/>
		</g>
		<g id="XMLID_260_">
			<g id="XMLID_323_">
				<path id="XMLID_325_" style="fill:#014375;" d="M71.342,378.524c-0.02-0.043-0.055-0.087-0.099-0.126
					c-0.008,0-0.008-0.004-0.008-0.008c-0.454-0.391-1.978-0.679-2.452-1.031c-0.865-0.648-1.591-1.761-2.231-2.618
					c-1.327-1.773-2.428-3.712-3.368-5.713c-1.879-4-3.103-8.296-3.964-12.623c-0.659-3.321-1.141-6.681-1.267-10.064
					c-0.427-11.119,2.906-22.553-0.324-33.198c0,0,0.008,0.008,0.028,0.028c0.063,0.071,0.13,0.146,0.194,0.221
					c0.02,0.02,0.035,0.043,0.059,0.067c6.688,7.616,8.939,18.336,8.513,28.48c-0.126,3.032-0.466,6.049-0.58,9.081
					C65.495,360.449,67.394,369.956,71.342,378.524z"/>
				<path id="XMLID_324_" style="opacity:0.5;fill:#014375;" d="M71.342,378.524c-0.035-0.043-0.067-0.083-0.099-0.126
					c-0.008,0-0.008-0.004-0.008-0.008c-10.143-12.453-8.453-31.291-8.979-46.326c-0.446-12.71-3.419-17.428-4.347-18.605
					c6.688,7.616,8.939,18.336,8.513,28.48c-0.126,3.032-0.466,6.049-0.58,9.081C65.495,360.449,67.394,369.956,71.342,378.524z"/>
			</g>
			<g id="XMLID_307_">
				<path id="XMLID_322_" style="fill:#014375;" d="M74.432,381.897c-0.003-0.044-0.019-0.093-0.043-0.141
					c-0.007-0.003-0.005-0.006-0.004-0.009c-0.261-0.487-1.476-1.24-1.766-1.699c-0.529-0.843-0.784-2.042-1.05-2.99
					c-0.553-1.964-0.857-3.996-1.001-6.029c-0.29-4.062,0.083-8.161,0.777-12.168c0.534-3.074,1.234-6.122,2.248-9.074
					c3.32-9.701,9.977-18.427,10.73-28.65c0,0,0.004,0.01,0.015,0.033c0.031,0.082,0.064,0.169,0.093,0.254
					c0.01,0.023,0.016,0.049,0.029,0.077c3.225,8.766,1.605,18.73-2.125,27.309c-1.114,2.565-2.406,5.046-3.51,7.616
					C75.398,364.417,73.878,373.221,74.432,381.897z"/>
				<path id="XMLID_321_" style="opacity:0.5;fill:#014375;" d="M74.432,381.897c-0.016-0.049-0.03-0.094-0.043-0.141
					c-0.007-0.003-0.005-0.006-0.004-0.009c-4.592-14.07,3.108-29.707,7.642-42.808c3.831-11.076,2.839-16.118,2.432-17.438
					c3.225,8.766,1.605,18.73-2.125,27.309c-1.114,2.565-2.406,5.046-3.51,7.616C75.398,364.417,73.878,373.221,74.432,381.897z"/>
			</g>
			<g id="XMLID_265_">
				<path id="XMLID_267_" style="fill:#014375;" d="M73.601,378.769c-0.012-0.052-0.041-0.108-0.08-0.161
					c-0.009-0.002-0.008-0.006-0.007-0.011c-0.412-0.532-2.023-1.191-2.465-1.684c-0.805-0.906-1.354-2.294-1.865-3.38
					c-1.061-2.248-1.837-4.628-2.42-7.041c-1.168-4.821-1.549-9.821-1.524-14.774c0.021-3.8,0.246-7.604,0.868-11.354
					c2.029-12.325,8.264-24.152,7.103-36.586c0,0,0.007,0.01,0.024,0.037c0.053,0.092,0.11,0.19,0.163,0.287
					c0.017,0.026,0.029,0.056,0.05,0.087c5.645,9.88,5.712,22.176,2.963,33.236c-0.82,3.307-1.871,6.548-2.679,9.858
					C71.231,357.574,71.183,368.458,73.601,378.769z"/>
				<path id="XMLID_266_" style="opacity:0.5;fill:#014375;" d="M73.601,378.769c-0.029-0.056-0.055-0.106-0.08-0.161
					c-0.009-0.002-0.008-0.006-0.007-0.011c-8.358-15.976-2.267-36.315,0.534-52.97c2.365-14.079,0.155-19.937-0.601-21.439
					c5.645,9.88,5.712,22.176,2.963,33.236c-0.82,3.307-1.871,6.548-2.679,9.858C71.231,357.574,71.183,368.458,73.601,378.769z"/>
			</g>
			<path id="XMLID_263_" style="fill:#AF2B31;" d="M86.087,372.559v10.372c0,0.592-0.02,1.181-0.063,1.757
				c-0.079,1.09-0.225,2.152-0.442,3.182c-1.09,5.232-3.877,9.598-7.573,12.129H63.234c-3.696-2.531-6.483-6.898-7.577-12.129
				c-0.217-1.031-0.363-2.093-0.442-3.182c-0.043-0.577-0.063-1.165-0.063-1.757v-10.372H86.087z"/>
			<rect id="XMLID_262_" x="55.152" y="378.177" style="fill:#F5A01F;" width="30.936" height="3.178"/>
			<path id="XMLID_261_" style="fill:#F5A01F;" d="M86.024,384.688c-0.079,1.09-0.225,2.152-0.442,3.182H55.657
				c-0.217-1.031-0.363-2.093-0.442-3.182H86.024z"/>
		</g>
		<g id="XMLID_196_">
			<path id="XMLID_243_" d="M222.435,260.972l-5.548-3.394c0,0-3.741,6.025,3.061,21.954l4.839-3.847L222.435,260.972z"/>
			<path id="XMLID_242_" style="fill:#F68080;" d="M188.022,287.242c10.921-1.033,16.616-7.844,26.791-12.359
				c0.1-0.043,0.511-0.138,1.127-0.268c3.192-0.656,11.91-2.193,11.91-2.193l-5.501-12.974l-8.278,2.419l-4.447,1.299
				c0,0-3.845-1.916-6.622-2.413c-2.777-0.497-7.177-1.609-9.515-3.97c-2.34-2.359-3.815,0.925-2.537,3.535
				c1.277,2.608,3.932,5.244,3.932,5.244s-2.332,3.48-8.636,4.128c-6.3,0.648-6.416-0.378-8.465,0.821
				c-2.047,1.198-0.508,3.129,0.645,3.4c0,0-3.497,0.421-4.315,1.368c-1.1,1.275-0.113,3.756,3.346,3.968
				c-0.139,0.01-1.853,0.166-2.059,1.913c-0.215,1.824,1.537,2.278,3.207,2.163c0,0-1.441,0.486-1.658,1.338
				C176.733,285.512,177.101,288.276,188.022,287.242z"/>
			<path id="XMLID_241_" d="M215.939,274.616c3.192-0.656,11.91-2.193,11.91-2.193l-5.501-12.974l-8.278,2.419
				C214.886,265.354,215.709,269.898,215.939,274.616z"/>
			
				<path id="XMLID_240_" style="fill:none;stroke:#231F20;stroke-width:0.3491;stroke-linecap:round;stroke-linejoin:round;stroke-miterlimit:10;" d="
				M191.789,272.731c0,0-5.567,3.68-13.361,1.18"/>
			
				<path id="XMLID_238_" style="fill:none;stroke:#231F20;stroke-width:0.3491;stroke-linecap:round;stroke-linejoin:round;stroke-miterlimit:10;" d="
				M192.644,277.452c0,0-3.293,2.381-15.174,1.794"/>
			
				<path id="XMLID_237_" style="fill:none;stroke:#231F20;stroke-width:0.3491;stroke-linecap:round;stroke-linejoin:round;stroke-miterlimit:10;" d="
				M192.925,281.746c0,0-6.488,2.782-14.319,1.577"/>
			<path id="XMLID_232_" style="fill:#AF2B31;" d="M170.488,380.168c4.342,4.861,23.401,8.611,23.401,8.611l-0.444-4.699
				c-0.242-1.572-0.354-4.3-0.404-6.81c-0.064-3.016-0.037-5.715-0.037-5.715l-18.793-2.197c-0.537,2.388-1.205,4.521-1.824,6.246
				C171.376,378.428,170.488,380.168,170.488,380.168z"/>
			<path id="XMLID_227_" d="M172.387,375.604c7.972,1.455,15.939,1.689,20.654,1.665c-0.064-3.016-0.037-5.715-0.037-5.715
				l-18.793-2.197C173.674,371.746,173.006,373.879,172.387,375.604z"/>
			<path id="XMLID_248_" style="fill:#014375;" d="M304.249,292.876c-0.541,2.072-1.31,4.114-2.316,6.163
				c-2.179,4.449-5.63,8.517-10.277,10.208c-2.316,0.846-4.799,1.066-7.26,1.28c-7.191,0.617-14.108,0.807-21.315,0.807h-47.924
				l-17.171,65.125c0,0-16.813,0.762-29.824-6.887c0,0,17.247-75.128,25.398-82.624c4.799-4.418,18.336-7.663,30.822-9.819
				c5.302-0.914,10.635-1.684,15.982-2.339c0.327-0.038,0.655-0.076,0.983-0.107c5.767-0.602,11.236-0.716,17.064-0.274
				c7.679,0.579,15.403-1.379,23.059-0.571c2.141,0.228,4.266,0.663,6.414,0.541c2.301-0.129,4.51-0.906,6.772-1.326
				c2.27-0.419,4.761-0.449,6.711,0.777c3.017,1.905,3.649,5.98,3.824,9.545v0.099C305.346,286.782,305.041,289.867,304.249,292.876
				z"/>
			<path id="XMLID_246_" d="M305.194,283.377v0.099c-25.451,4.243-48.549-2.301-63.846-8.791c5.767-0.602,11.236-0.716,17.064-0.274
				c7.679,0.579,15.403-1.379,23.059-0.571c2.141,0.228,4.266,0.663,6.414,0.541c2.301-0.129,4.51-0.906,6.772-1.326
				c2.27-0.419,4.761-0.449,6.711,0.777C304.386,275.736,305.018,279.812,305.194,283.377z"/>
			<path id="XMLID_212_" d="M170.089,376.46c-0.294-0.277-7.217,7.557-16.091,9.978c-8.874,2.421-11.788,2.656-11.942,7.329
				c0,0,53.962,0.474,53.962,0c0-0.474,0.322-5.389-1.9-11.062C194.117,382.705,175.274,381.338,170.089,376.46z"/>
			<path id="XMLID_211_" style="fill:#D58956;" d="M142.629,400h53.164c0.852,0,1.542-0.69,1.542-1.542v-4.343
				c0-0.852-0.69-1.542-1.542-1.542h-53.164c-0.852,0-1.542,0.69-1.542,1.542v4.343C141.087,399.31,141.777,400,142.629,400z"/>
			
				<path id="XMLID_210_" style="fill:none;stroke:#231F20;stroke-width:0.3491;stroke-linecap:round;stroke-linejoin:round;stroke-miterlimit:10;" d="
				M205.501,306.361c0.285-0.513,3.166,3.153,9.656,4.973c0,0-7.265,3.317-16.888-0.091"/>
			<path id="XMLID_205_" style="fill:#AF2B31;" d="M307.138,276.795c-0.915-11.935-2.322-28.809-3.802-36.457
				c-1.756-9.086,0.512-28.761-8.021-41.585c-3.127-4.866-6.335-9.167-11.47-12.174c-10.632-6.225-25.964-4.496-32.945,6.29
				c-2.817,4.354-4.931,9.44-5.763,14.584c-0.183,1.132-0.292,2.27-0.308,3.394c-0.076,5.459-0.243,18.595-0.572,31.794
				c-0.309,12.34-0.762,24.719-1.413,30.96C252.095,277.017,274.606,283.035,307.138,276.795z"/>
			<polygon id="XMLID_209_" style="fill:#F68080;" points="247.721,180.165 250.909,187.663 254.128,195.236 265.834,183.481 
				261.634,176.989 259.625,173.885 			"/>
			<path id="XMLID_208_" d="M247.721,180.165l3.188,7.498c6.348-1.77,9.631-8.109,10.725-10.674l-2.009-3.104L247.721,180.165z"/>
			<path id="XMLID_207_" style="fill:#F68080;" d="M234.275,173.005c3.945,8.675,12.848,13.114,19.885,9.914
				c7.037-3.2,9.544-12.827,5.599-21.503c-3.945-8.676-12.848-13.114-19.885-9.914C232.837,154.703,230.33,164.33,234.275,173.005z"
				/>
			<path id="XMLID_206_" style="fill:#752B31;" d="M252.315,165.61c0,0-8.415,2.388-13.401-2.429c0,0-6.974,2.935-9.853,0.544
				c-2.879-2.391,2.255-22.229,22.889-19.484c-0.164-0.876-0.075-1.568,0.247-2.4c0.141-0.364,0.408-0.762,0.797-0.749
				c0.376,0.012,0.619,0.403,0.733,0.761c0.225,0.708,0.221,1.487-0.011,2.194c0.547-0.534,1.119-1.084,1.843-1.332
				c0.723-0.248,1.644-0.098,2.056,0.546c0.409,0.639,0.181,1.5-0.219,2.145c-0.413,0.665-1.033,1.242-1.795,1.42
				c0.103,0.055,0.205,0.109,0.308,0.164c0,0,8.425,4.328,8.846,14.323c0.42,9.995-3.68,12.926-3.68,12.926l-5.598-2.654
				c1.612-1.148,3.362-1.908,2.137-6.073C256.122,160.445,252.466,161.852,252.315,165.61z"/>
			<path id="XMLID_204_" style="opacity:0.5;fill:#AF2B31;" d="M242.752,274.449c7.976-0.423,30.826-1.921,35.894-5.382
				c6.162-4.214,13.131-24.287,11.382-47.689c-0.59-7.904-1.952-14.045-3.499-18.712c-0.001-0.002-0.001-0.002-0.001-0.002
				c-3.142-4.167-6.688-7.877-10.614-10.692l-4.555,2.324l-4.665-5.606c0,0-8.751,2.663-9.775,18.497
				c-1.027,15.835,0.344,33.507,0.344,33.507l-13.005,1.946C243.935,255.556,243.454,268.532,242.752,274.449z"/>
			<path id="XMLID_201_" style="fill:#E6E6E6;" d="M260.339,242.28c0,0-5.982-46.434,5.214-53.011
				c11.196-6.577,30.932,9.399,16.966,66.192c0,0-1.415,10.769-9.803,12.053c-8.388,1.283-52.768,12.018-52.768,12.018
				s1.209-13.618-3.061-21.954L260.339,242.28z"/>
			
				<path id="XMLID_197_" style="fill:none;stroke:#231F20;stroke-width:0.3491;stroke-linecap:round;stroke-linejoin:round;stroke-miterlimit:10;" d="
				M270.251,245.487c0,0-4.163-3.181-9.912-3.207c0,0,7.836-2.243,13.965,1.488"/>
			<path id="XMLID_203_" style="fill:#F68080;" d="M252.574,188.723c0,0-1.423,1.444-2.089,7.948
				c-0.666,6.504,6.805-1.293,15.349-13.19L252.574,188.723z"/>
		</g>
		<g id="XMLID_190_">
			<path id="XMLID_239_" style="fill:#F5A01F;" d="M325.123,400v-82.084c0-5.319-3.942-9.628-8.803-9.628h-94.046
				c-4.86,0-8.803,4.309-8.803,9.628V400H325.123z"/>
			<path id="XMLID_213_" style="opacity:0.5;fill:#F15A24;" d="M226.815,400v-82.084c0-5.319,3.942-9.628,8.803-9.628h-13.344
				c-4.86,0-8.803,4.309-8.803,9.628V400H226.815z"/>
			<path id="XMLID_264_" style="opacity:0.5;fill:#F15A24;" d="M325.123,319.394v-1.478c0-5.319-3.942-9.628-8.803-9.628h-94.046
				c-4.86,0-8.803,4.309-8.803,9.628v1.478H325.123z"/>
		</g>
		<g id="XMLID_368_">
			<g id="XMLID_380_">
				<path id="XMLID_458_" style="fill:#014375;" d="M166.693,116.698c-1.363,3.02-4.65,5.061-7.96,4.94
					c-0.316-0.011-0.642-0.037-0.931,0.095c-0.747,0.342-0.7,1.41-0.526,2.215c0.484,2.257,0.968,4.509,1.457,6.765
					c0.026,0.121,0.053,0.242,0.074,0.363c0.216,1.089,0.337,2.268-0.284,3.167c-0.821,1.178-2.494,1.294-3.93,1.289
					c-2.078-0.005-2.767-0.768-3.03-1.925c-0.247-1.089-0.121-2.515-0.421-3.993c-0.41-2.01-1.073-3.956-1.499-5.96
					c-0.458-2.146-0.847-4.309-1.121-6.481c-0.068-0.573-0.132-1.142-0.184-1.715c-0.726-0.032-1.441-0.195-2.094-0.516
					c-1.447-0.71-2.531-2.12-2.846-3.698c-0.147-0.737-0.131-1.494-0.105-2.241c0.047-1.273,0.142-2.552,0.437-3.788
					c0.11-0.452,0.252-0.91,0.557-1.252c0.168-0.184,0.395-0.337,0.631-0.4c0.205-0.058,0.421-0.058,0.615,0.026
					c0.631,0.268,0.715,1.126,0.621,1.805c-0.147,1.068-0.484,2.115-0.494,3.193c-0.01,1.079,0.405,2.257,1.357,2.757
					c0.289,0.153,0.605,0.226,0.931,0.258c0.063,0.005,0.132,0.011,0.195,0.016c-0.032-2.588,0.168-5.177,0.695-7.718
					c0.189-0.915,0.431-1.846,0.968-2.609c0.537-0.768,1.42-1.352,2.352-1.284c0.01,0,0.021,0,0.031,0.005
					c0.784,0.063,1.468,0.563,1.989,1.152c1.489,1.678,1.883,4.061,1.899,6.302c0.021,2.241-0.274,4.503,0.089,6.718
					c0.074,0.452,0.2,0.942,0.574,1.21c0.221,0.158,0.484,0.205,0.752,0.179c0.331-0.042,0.663-0.195,0.926-0.4
					c0.979-0.758,1.347-2.052,1.51-3.272c0.163-1.221,0.179-2.494,0.679-3.619c0.494-1.131,1.662-2.094,2.872-1.857
					c0.647,0.126,1.189,0.563,1.641,1.042c0.063,0.068,0.126,0.137,0.184,0.205C167.44,110.075,168.014,113.762,166.693,116.698z"/>
				<path id="XMLID_457_" style="opacity:0.5;fill:#014375;" d="M157.492,115.572c-0.305,0.363-0.684,0.621-1.152,0.679
					c-0.731,0.095-1.452-0.358-1.868-0.968c-0.416-0.615-0.579-1.357-0.7-2.089c-0.437-2.736-0.347-5.529-0.6-8.291
					c-0.147-1.599-0.368-3.372-0.984-4.893c0.784,0.063,1.468,0.563,1.989,1.152c1.489,1.678,1.883,4.061,1.899,6.302
					c0.021,2.241-0.274,4.503,0.089,6.718c0.074,0.452,0.2,0.942,0.574,1.21C156.961,115.551,157.224,115.598,157.492,115.572z"/>
				<path id="XMLID_453_" style="opacity:0.5;fill:#014375;" d="M166.693,116.698c-1.363,3.02-4.65,5.061-7.96,4.94
					c-0.316-0.011-0.642-0.037-0.931,0.095c-0.747,0.342-0.7,1.41-0.526,2.215c0.484,2.257,0.968,4.509,1.457,6.765
					c0.026,0.121,0.053,0.242,0.074,0.363c-0.242,0.037-0.489,0.026-0.736-0.037c-1.315-0.321-1.925-1.815-2.267-3.125
					c-0.284-1.11-0.521-2.225-0.705-3.356c-0.137-0.863-0.247-1.747-0.089-2.609c0.158-0.857,0.626-1.704,1.394-2.12
					c0.684-0.374,1.499-0.368,2.273-0.458c3.178-0.384,6.029-2.757,6.986-5.808c0.484-1.552,0.468-3.241,0.021-4.803
					c-0.105-0.363-0.226-0.731-0.379-1.089C167.44,110.075,168.014,113.762,166.693,116.698z"/>
				<path id="XMLID_450_" style="opacity:0.5;fill:#014375;" d="M148.102,112.105c-0.047,0.258-0.352,0.373-0.615,0.41
					c-0.621,0.09-1.294-0.01-1.778-0.405c-0.794-0.637-0.868-1.799-0.842-2.814c0.026-1.263,0.1-2.53,0.216-3.788
					c0.058-0.637-0.116-1.294-0.163-1.947c0.205-0.058,0.421-0.058,0.615,0.026c0.631,0.268,0.715,1.126,0.621,1.805
					c-0.147,1.068-0.484,2.115-0.494,3.193c-0.01,1.079,0.405,2.257,1.357,2.757c0.289,0.153,0.605,0.226,0.931,0.258
					c0.005,0.005,0.005,0.016,0.01,0.021C148.044,111.774,148.133,111.937,148.102,112.105z"/>
			</g>
			<g id="XMLID_369_">
				<path id="XMLID_378_" style="fill:#AF2B31;" d="M164.539,126.26v8.982c0,4.192-1.763,7.891-4.459,10.151
					c-0.368,0.299-0.805,0.444-1.232,0.444h-9.8c-0.428,0-0.864-0.145-1.232-0.444c-2.696-2.26-4.459-5.959-4.459-10.151v-8.982
					H164.539z"/>
				<rect id="XMLID_370_" x="143.356" y="128.964" style="fill:#F5A01F;" width="21.184" height="2.395"/>
			</g>
		</g>
		<g id="XMLID_364_">
			<rect id="XMLID_367_" x="175.078" y="124.931" style="fill:#F5A01F;" width="21.705" height="20.907"/>
			<polygon id="XMLID_366_" points="196.783,124.931 196.783,128.338 175.078,126.87 175.078,124.931 			"/>
			<rect id="XMLID_365_" x="173.96" y="121.555" style="fill:#F5A01F;" width="23.94" height="4.74"/>
		</g>
		<g id="XMLID_360_">
			<rect id="XMLID_363_" x="95.054" y="116.332" style="fill:#014375;" width="42.092" height="29.506"/>
			<polygon id="XMLID_362_" points="137.146,116.332 137.146,122.938 95.054,120.092 95.054,116.332 			"/>
			<rect id="XMLID_361_" x="92.887" y="109.784" style="fill:#014375;" width="46.425" height="9.192"/>
		</g>
		<g id="XMLID_217_">
			<g id="XMLID_244_">
				<g id="XMLID_250_">
					<polygon id="XMLID_258_" style="fill:#752B31;" points="55.738,187.854 55.063,190.195 54.226,193.1 48.753,193.1 
						47.917,190.195 47.241,187.854 					"/>
					<polygon id="XMLID_251_" points="55.738,187.854 55.063,190.195 47.917,190.195 47.241,187.854 					"/>
				</g>
				<g id="XMLID_245_">
					<polygon id="XMLID_249_" style="fill:#752B31;" points="170.229,187.854 169.553,190.195 168.716,193.1 163.244,193.1 
						162.407,190.195 161.732,187.854 					"/>
					<polygon id="XMLID_247_" points="170.229,187.854 169.553,190.195 162.407,190.195 161.732,187.854 					"/>
				</g>
			</g>
			<rect id="XMLID_222_" x="40" y="182.227" style="fill:#913D48;" width="137.47" height="6.899"/>
		</g>
		<g id="XMLID_333_">
			<g id="XMLID_340_">
				<g id="XMLID_356_">
					<polygon id="XMLID_358_" style="fill:#752B31;" points="95.042,149.766 94.366,152.107 93.53,155.012 88.057,155.012 
						87.22,152.107 86.545,149.766 					"/>
					<polygon id="XMLID_357_" points="95.042,149.766 94.366,152.107 87.22,152.107 86.545,149.766 					"/>
				</g>
				<g id="XMLID_348_">
					<polygon id="XMLID_354_" style="fill:#752B31;" points="209.533,149.766 208.857,152.107 208.02,155.012 202.548,155.012 
						201.711,152.107 201.035,149.766 					"/>
					<polygon id="XMLID_351_" points="209.533,149.766 208.857,152.107 201.711,152.107 201.035,149.766 					"/>
				</g>
			</g>
			<rect id="XMLID_335_" x="79.304" y="144.139" style="fill:#913D48;" width="137.47" height="6.899"/>
		</g>
	</g>
</g>
</svg>
